<?xml version="1.0" encoding="utf-8"?>
<!-- Generator: Adobe Illustrator 25.0.1, SVG Export Plug-In . SVG Version: 6.00 Build 0)  -->
<svg version="1.1" id="Camada_1" xmlns="http://www.w3.org/2000/svg" xmlns:xlink="http://www.w3.org/1999/xlink" x="0px" y="0px"
	 width="230px" height="158px" viewBox="0 0 230 158" style="enable-background:new 0 0 230 158;" xml:space="preserve">
<style type="text/css">
	.st0{fill:#FFFFFF;}
	.st1{fill:#007858;}
	.st2{fill:#C7D440;}
</style>
<path class="st0" d="M210.2,0H19.7C8.9,0,0,8.9,0,19.8v118.5C0,149.1,8.9,158,19.7,158h190.7c10.8,0,19.7-8.9,19.7-19.7V19.8
	C230,8.9,221.1,0,210.2,0z"/>
<g>
	<path class="st1" d="M146.4,16.2c-13,0-25,3.9-35,10.6c-0.7,0.5-5.6,4-5.8,4.2c-8.2,6.1-13.6,7.2-21.1,5.3
		c-0.5-0.1-2.6-0.9-3.3-1.1c-5.1-1.9-10.7-3-16.5-3C38.9,32.2,18,53.2,18,79c0,25.8,20.9,46.8,46.8,46.8c5.2,0,10.1-0.9,14.8-2.4
		c11.2-3.3,17.3-2.4,24.3,2.5c1.4,1,4.8,3.2,5.5,3.7c10.4,7.7,23.3,12.2,37.2,12.2c34.7,0,62.8-28.1,62.8-62.8
		C209.2,44.3,181.1,16.2,146.4,16.2z"/>
	<g>
		<g>
			<g>
				<path class="st0" d="M123.8,88.7c-2.1,2-4.9,3.2-8,3.2c-2.1,0-4.1-0.7-5.8-1.7l-4.2,6.6c2.8,1.8,6.2,2.9,9.8,2.9
					c5.3,0.1,10.1-2,13.5-5.4L123.8,88.7z"/>
				<path class="st0" d="M116.3,61.8C105.8,61.6,97.2,70,97,80.4c-0.1,3.9,1.1,7.6,3.1,10.6l34.3-14.7
					C132.5,68.1,125.2,61.9,116.3,61.8z M104.9,81.9c0-0.4-0.1-0.9-0.1-1.4c0.1-6.2,5.2-11.1,11.3-11c3.4,0.1,6.3,1.6,8.3,4
					L104.9,81.9z"/>
			</g>
			<g>
				<g>
					<path class="st0" d="M145.2,53.2v36.6l6.3,2.6l-3,7.2l-6.3-2.6c-1.4-0.6-2.4-1.5-3.1-2.6l0,0c-0.7-1.1-1.2-2.6-1.2-4.5V53.2
						H145.2z"/>
				</g>
			</g>
			<g>
				<g>
					<path class="st0" d="M90,53.2v36.6l6.3,2.6l-3,7.2L87,97.1c-1.4-0.6-2.4-1.5-3.1-2.6l0,0c-0.7-1.1-1.2-2.6-1.2-4.5V53.2H90z"/>
				</g>
			</g>
			<path class="st2" d="M176.5,70.7c5.6,2.7,7.9,9.3,5.2,14.9l0,0l7,3.4l0,0c4.5-9.4,0.6-20.8-8.9-25.3c-7.2-3.4-15.4-2-21,3.1
				l5.3,5.8C167.4,69.5,172.3,68.6,176.5,70.7z"/>
			<path class="st0" d="M166.8,90.8c-5.6-2.7-7.9-9.3-5.2-14.9v0l-7-3.4l0,0c-4.5,9.4-0.6,20.8,8.9,25.3c7.2,3.4,15.4,2,21-3.1
				l-5.3-5.8C175.9,91.9,171,92.8,166.8,90.8z"/>
			<path class="st0" d="M75.6,91.3V80.8c0,0,0,0,0-0.1c0-8.5-5.5-15.6-13.2-18c-1.8-0.6-3.7-0.9-5.7-0.9c-2,0-3.9,0.3-5.6,0.9
				c-3,0.9-5.6,2.6-7.8,4.7c-3.4,3.4-5.5,8.2-5.5,13.4c0,10.5,8.5,18.9,18.9,18.9l0,0h0c3,0,5.9-0.7,8.4-2L62,90.5
				c-1.6,0.9-3.4,1.4-5.4,1.4c-6.2,0-11.2-5-11.2-11.2l0,0h0c0-1.9,0.5-3.7,1.3-5.2c1.5-2.8,4.2-4.9,7.3-5.6
				c0.8-0.2,1.7-0.3,2.5-0.3c1.7,0,3.2,0.4,4.6,1c3.9,1.8,6.5,5.6,6.6,10.2h0c0,0.3,0,10.5,0,10.5c0,2,0.5,3.5,1.2,4.5
				c0.7,1.1,1.7,2,3.1,2.6l3.5,1.4l3-7.2L75.6,91.3z"/>
		</g>
	</g>
</g>
<g>
	<desc>Created with Sketch.</desc>
</g>
</svg>
