<?xml version="1.0" encoding="utf-8"?>
<!-- Generator: Adobe Illustrator 25.0.1, SVG Export Plug-In . SVG Version: 6.00 Build 0)  -->
<svg version="1.1" id="Camada_1" xmlns="http://www.w3.org/2000/svg" xmlns:xlink="http://www.w3.org/1999/xlink" x="0px" y="0px"
	 width="230px" height="158px" viewBox="0 0 230 158" style="enable-background:new 0 0 230 158;" xml:space="preserve">
<style type="text/css">
	.st0{fill:#FFFFFF;}
	.st1{fill:#FEDA12;}
	.st2{fill:#FAFA1F;}
	.st3{fill:#050587;}
</style>
<path class="st0" d="M210.2,0H19.7C8.9,0,0,8.9,0,19.8v118.5C0,149.1,8.9,158,19.7,158h190.7c10.8,0,19.7-8.9,19.7-19.7V19.8
	C230,8.9,221.1,0,210.2,0z"/>
<ellipse class="st1" cx="115" cy="77.1" rx="94.8" ry="48.4"/>
<ellipse class="st2" cx="115" cy="74.9" rx="94.8" ry="46.2"/>
<ellipse class="st3" cx="114.1" cy="74.8" rx="82.9" ry="40.3"/>
<g>
	<desc>Created with Sketch.</desc>
</g>
<g>
	<rect x="74.4" y="59" class="st0" width="4.4" height="24.7"/>
	<rect x="151" y="59" class="st0" width="4.4" height="24.7"/>
	<path class="st0" d="M103.3,67.2l-4.1-0.1v16.2h4.3v-10c0,0,0.6-4.1,5.5-2.9c0,0,1.4,0.6,1.6,2.6c0.2,2,0,10.3,0,10.3h4.5V71.6
		c0-0.8-0.2-1.6-0.6-2.3c-0.7-1.3-2.2-2.9-5.5-2.9c0,0-4.1,0-5.6,3.5"/>
	<polygon class="st0" points="116.2,66.5 120.5,66.5 124.5,79.3 128.6,66.8 133.1,66.8 126.9,83.6 122.2,83.6 	"/>
	<g>
		<path class="st0" d="M67,60.7h-9.9v22.7h4.2v-8.6h5.2c0.6,0,1.2-0.2,1.8-0.5c1.8-1.1,5.5-3.9,3.5-9.1C71.9,65.1,70.5,61.5,67,60.7
			z M67.8,66.9c0.1,3.5-2.3,4.5-2.3,4.5h-0.4h-3.7v-7.7h3.3C68,64.2,67.8,66.9,67.8,66.9z"/>
		<path class="st0" d="M89.9,66.5c0,0-3.6-0.5-7.1,1.2v3c0,0,3.2-1.6,6-1.1c2.9,0.5,2.9,3.4,2.9,3.4h-3.1c-1.7,0-3.5,0.4-5,1.2
			c-1.3,0.7-2.1,1.7-2.6,2.9c-0.6,1.5-0.4,6.4,4.4,6.6c4.8,0.2,6.7-2.8,6.7-2.8v2.8h3.6V72C95.7,72,96,67.9,89.9,66.5z M91.8,76.7
			c0,1.5-0.8,3-2.2,3.7c-0.7,0.3-1.5,0.5-2.5,0.4c-1.7-0.2-2.1-1.3-2.1-2.2c0-1.2,0.9-2.3,2-2.8c0.4-0.2,0.8-0.3,1.2-0.3l3.5-0.5
			V76.7z"/>
		<path class="st0" d="M142,66.5c0,0-3.6-0.5-7.1,1.2v3c0,0,3.2-1.6,6-1.1c2.9,0.5,2.9,3.4,2.9,3.4h-3.1c-1.7,0-3.5,0.4-5,1.2
			c-1.3,0.7-2.1,1.7-2.6,2.9c-0.6,1.5-0.4,6.4,4.4,6.6c4.8,0.2,6.7-2.8,6.7-2.8v2.8h3.6V72C147.7,72,148,67.9,142,66.5z M143.8,76.7
			c0,1.5-0.8,3-2.2,3.7c-0.7,0.3-1.5,0.5-2.5,0.4c-1.7-0.2-2.1-1.3-2.1-2.2c0-1.2,0.9-2.3,2-2.8c0.4-0.2,0.8-0.3,1.2-0.3l3.5-0.5
			V76.7z"/>
	</g>
	<g>
		<path class="st0" d="M170.8,68.1c-2.1-1.6-4.9-2.2-7.4-1.3c0,0-5.6,2.1-5.5,8.9c0.1,2.8,1.2,4.7,2.6,5.9c1.6,1.4,3.7,2.1,5.8,2
			l5.9-0.3v-3.7c0,0-2.5,1.4-6,1c-3.5-0.4-4.3-4.1-4.3-4.1h11.8C174,73.3,173.4,70.1,170.8,68.1z M161.8,73.6
			c-0.6-0.7,1.1-5.2,4.5-4.5c3.4,0.7,3.4,4.5,3.4,4.5H161.8z"/>
	</g>
</g>
</svg>
