<?xml version="1.0" encoding="utf-8"?>
<!-- Generator: Adobe Illustrator 25.1.0, SVG Export Plug-In . SVG Version: 6.00 Build 0)  -->
<svg version="1.1" id="Camada_1" xmlns="http://www.w3.org/2000/svg" xmlns:xlink="http://www.w3.org/1999/xlink" x="0px" y="0px"
	 width="230px" height="158px" viewBox="0 0 230 158" style="enable-background:new 0 0 230 158;" xml:space="preserve">
<style type="text/css">
	.st0{fill:#FFFFFF;}
</style>
<path class="st0" d="M210.1,0H19.7C8.9,0,0,8.9,0,19.8v118.5C0,149.1,8.9,158,19.7,158h190.7c10.8,0,19.7-8.9,19.7-19.7V19.8
	C230,8.9,221.1,0,210.1,0z"/>
<g>
	<g>
		<desc>Created with Sketch.</desc>
	</g>
	<rect id="Retângulo_36" x="50.5" y="26.5" width="9.2" height="104.9"/>
	<rect id="Retângulo_37" x="129.5" y="26.5" width="9.2" height="104.9"/>
	<rect id="Retângulo_38" x="166.6" y="26.5" width="9.2" height="104.9"/>
	<rect id="Retângulo_39" x="70.9" y="26.5" width="9.2" height="104.9"/>
	<rect id="Retângulo_40" x="185.6" y="26.5" width="9.2" height="104.9"/>
	<rect id="Retângulo_41" x="150.4" y="26.5" width="7.3" height="104.9"/>
	<rect id="Retângulo_42" x="85.7" y="26.5" width="9.2" height="104.9"/>
	<rect id="Retângulo_43" x="108.5" y="26.5" width="9.2" height="104.9"/>
	<rect id="Retângulo_44" x="28.3" y="26.5" width="9.2" height="104.9"/>
</g>
</svg>
