<?xml version="1.0" encoding="utf-8"?>
<!-- Generator: Adobe Illustrator 25.0.1, SVG Export Plug-In . SVG Version: 6.00 Build 0)  -->
<svg version="1.1" id="Camada_1" xmlns="http://www.w3.org/2000/svg" xmlns:xlink="http://www.w3.org/1999/xlink" x="0px" y="0px"
	 width="230px" height="158px" viewBox="0 0 230 158" style="enable-background:new 0 0 230 158;" xml:space="preserve">
<style type="text/css">
	.st0{fill:#FFFFFF;}
	.st1{fill:#221E51;}
	.st2{fill:#292456;}
	.st3{clip-path:url(#SVGID_2_);}
	.st4{fill-rule:evenodd;clip-rule:evenodd;fill:#FFFFFF;}
	.st5{fill-rule:evenodd;clip-rule:evenodd;fill:#FBFCFE;}
	.st6{fill-rule:evenodd;clip-rule:evenodd;fill:#F8FAFD;}
	.st7{fill-rule:evenodd;clip-rule:evenodd;fill:#F7F8FD;}
	.st8{fill-rule:evenodd;clip-rule:evenodd;fill:#F2F5FB;}
	.st9{fill-rule:evenodd;clip-rule:evenodd;fill:#F0F3FB;}
	.st10{fill-rule:evenodd;clip-rule:evenodd;fill:#EEF1FA;}
	.st11{fill-rule:evenodd;clip-rule:evenodd;fill:#E9EDF8;}
	.st12{fill-rule:evenodd;clip-rule:evenodd;fill:#E7ECF8;}
	.st13{fill-rule:evenodd;clip-rule:evenodd;fill:#E4E9F7;}
	.st14{fill-rule:evenodd;clip-rule:evenodd;fill:#E0E6F5;}
	.st15{fill-rule:evenodd;clip-rule:evenodd;fill:#DEE5F5;}
	.st16{fill-rule:evenodd;clip-rule:evenodd;fill:#DCE2F4;}
	.st17{fill-rule:evenodd;clip-rule:evenodd;fill:#D7DFF2;}
	.st18{fill-rule:evenodd;clip-rule:evenodd;fill:#D5DDF2;}
	.st19{fill-rule:evenodd;clip-rule:evenodd;fill:#D3DBF1;}
	.st20{fill-rule:evenodd;clip-rule:evenodd;fill:#D0D9F0;}
	.st21{fill-rule:evenodd;clip-rule:evenodd;fill:#CCD6EF;}
	.st22{fill-rule:evenodd;clip-rule:evenodd;fill:#CAD5EE;}
	.st23{fill-rule:evenodd;clip-rule:evenodd;fill:#C8D3ED;}
	.st24{fill-rule:evenodd;clip-rule:evenodd;fill:#C3CFEC;}
	.st25{fill-rule:evenodd;clip-rule:evenodd;fill:#C2CEEB;}
	.st26{fill-rule:evenodd;clip-rule:evenodd;fill:#BFCCEA;}
	.st27{fill-rule:evenodd;clip-rule:evenodd;fill:#BAC9E8;}
	.st28{fill-rule:evenodd;clip-rule:evenodd;fill:#B7C7E7;}
	.st29{fill-rule:evenodd;clip-rule:evenodd;fill:#B5C5E7;}
	.st30{fill-rule:evenodd;clip-rule:evenodd;fill:#B1C2E5;}
	.st31{fill-rule:evenodd;clip-rule:evenodd;fill:#AEC0E4;}
	.st32{fill-rule:evenodd;clip-rule:evenodd;fill:#ACBFE3;}
	.st33{fill-rule:evenodd;clip-rule:evenodd;fill:#A7BBE2;}
	.st34{fill-rule:evenodd;clip-rule:evenodd;fill:#A5B9E1;}
	.st35{fill-rule:evenodd;clip-rule:evenodd;fill:#A2B7E0;}
	.st36{fill-rule:evenodd;clip-rule:evenodd;fill:#A0B6DF;}
	.st37{fill-rule:evenodd;clip-rule:evenodd;fill:#9BB3DE;}
	.st38{fill-rule:evenodd;clip-rule:evenodd;fill:#98B1DD;}
	.st39{fill-rule:evenodd;clip-rule:evenodd;fill:#96AFDC;}
	.st40{fill-rule:evenodd;clip-rule:evenodd;fill:#91ACDA;}
	.st41{fill-rule:evenodd;clip-rule:evenodd;fill:#8EAAD9;}
	.st42{fill-rule:evenodd;clip-rule:evenodd;fill:#8CA8D8;}
	.st43{fill-rule:evenodd;clip-rule:evenodd;fill:#87A5D7;}
	.st44{fill-rule:evenodd;clip-rule:evenodd;fill:#84A4D6;}
	.st45{fill-rule:evenodd;clip-rule:evenodd;fill:#81A2D5;}
	.st46{fill-rule:evenodd;clip-rule:evenodd;fill:#7C9FD3;}
	.st47{fill-rule:evenodd;clip-rule:evenodd;fill:#7A9ED3;}
	.st48{fill-rule:evenodd;clip-rule:evenodd;fill:#769CD2;}
	.st49{fill-rule:evenodd;clip-rule:evenodd;fill:#7199D0;}
	.st50{fill-rule:evenodd;clip-rule:evenodd;fill:#6D97CF;}
	.st51{fill-rule:evenodd;clip-rule:evenodd;fill:#6B95CE;}
	.st52{fill-rule:evenodd;clip-rule:evenodd;fill:#6894CD;}
	.st53{fill-rule:evenodd;clip-rule:evenodd;fill:#6291CC;}
	.st54{fill-rule:evenodd;clip-rule:evenodd;fill:#608FCB;}
	.st55{fill-rule:evenodd;clip-rule:evenodd;fill:#5C8ECA;}
	.st56{fill-rule:evenodd;clip-rule:evenodd;fill:#568BC8;}
	.st57{fill-rule:evenodd;clip-rule:evenodd;fill:#5489C8;}
	.st58{fill-rule:evenodd;clip-rule:evenodd;fill:#5088C7;}
	.st59{fill-rule:evenodd;clip-rule:evenodd;fill:#4A85C5;}
	.st60{fill-rule:evenodd;clip-rule:evenodd;fill:#4683C4;}
	.st61{fill-rule:evenodd;clip-rule:evenodd;fill:#4382C3;}
	.st62{fill-rule:evenodd;clip-rule:evenodd;fill:#3C7FC2;}
	.st63{fill-rule:evenodd;clip-rule:evenodd;fill:#387DC1;}
	.st64{fill-rule:evenodd;clip-rule:evenodd;fill:#357CC0;}
	.st65{fill-rule:evenodd;clip-rule:evenodd;fill:#307BBF;}
</style>
<path class="st0" d="M210.2,0H19.7C8.9,0,0,8.9,0,19.8v118.5C0,149.1,8.9,158,19.7,158h190.7c10.8,0,19.7-8.9,19.7-19.7V19.8
	C230,8.9,221.1,0,210.2,0z"/>
<g>
	<desc>Created with Sketch.</desc>
</g>
<g>
	<path class="st1" d="M147.6,78.1c0.6,0.8,1.3,1.5,2,2.3c0.6,0.8,1.3,1.5,1.9,2.3c0.6,0.8,1.2,1.6,1.9,2.4c0.6,0.8,1.2,1.6,1.8,2.4
		c0.6,0.8,1.2,1.7,1.8,2.4c0,0.2-0.2,0.2-0.3,0.2c-2.5,0-5,0-7.6,0c-0.4,0-0.6-0.2-0.7-0.4c-1.2-1.7-2.4-3.4-3.7-5.1
		c-1-1.3-2-2.5-3.1-3.7c-0.1-0.2-0.3-0.3-0.5-0.5c-0.2,0.1-0.2,0.3-0.3,0.5c-0.6,2.9-1.3,5.7-1.9,8.6c0,0.1-0.1,0.3-0.1,0.4
		c0,0.2-0.1,0.2-0.3,0.2c-0.1,0-0.3,0-0.4,0c-1.8,0-3.7,0-5.5,0c-0.2,0-0.4,0-0.6-0.1c0.2-0.8,0.4-1.6,0.6-2.5
		c1.8-7.9,3.6-15.9,5.5-23.8c0.2-0.9,0.4-1.8,0.6-2.7c0.2-0.8,0.5-1,1.3-1.1c0.6-0.1,1.2-0.1,1.8-0.1c1.2-0.1,2.4-0.2,3.6-0.2
		c0.3,0,0.4,0.1,0.3,0.3c-0.2,1.1-0.5,2.2-0.8,3.3c-0.9,3.7-1.7,7.5-2.6,11.2c0,0.1-0.1,0.2-0.1,0.3c0,0.2,0.1,0.3,0.2,0.2
		c3.6-1,6.8-2.9,8.9-6.1c0.3-0.4,0.5-0.8,0.7-1.2c0.1-0.2,0.2-0.2,0.4-0.2c0.1,0,0.1,0,0.2,0c2.3,0,4.5,0,6.8,0
		c0.3,0,0.4,0.1,0.2,0.4c-1.6,3.1-3.8,5.6-6.7,7.5c-1.4,0.9-3,1.7-4.6,2.3c-0.2,0.1-0.4,0.2-0.6,0.2C147.6,78,147.6,78,147.6,78.1z"
		/>
	<path class="st1" d="M170.8,90.2c-1.2,0-2.4,0-3.7,0c-1.3,0-2.6-0.1-3.8-0.5c-0.2-0.1-0.5-0.1-0.7-0.2c-2.5-0.9-4-2.7-4.6-5.3
		c-0.4-1.7-0.4-3.4-0.1-5.1c0.2-1.5,0.7-3,1.2-4.4c1.2-3.1,3.4-5.2,6.4-6.4c1.4-0.6,2.9-0.9,4.4-1c1.9-0.1,3.8-0.1,5.7,0.2
		c1,0.1,1.9,0.4,2.8,0.8c0.6,0.3,1.2,0.6,1.7,1.1c1.1,1,1.6,2.1,1.7,3.6c0,1.3-0.1,2.6-0.5,3.8c-0.7,2.4-2.3,3.8-4.7,4.3
		c-0.9,0.2-1.8,0.3-2.8,0.3c-1.6,0-3.2,0-4.8,0c-1.3,0-2.5,0-3.8,0c-0.7,0-0.7-0.1-0.7,0.7c0,0.4,0,0.9,0.1,1.3
		c0.2,0.8,0.7,1.4,1.5,1.8c0.5,0.2,1,0.4,1.6,0.4c0.6,0,1.2,0.1,1.7,0.1c2.5,0,5,0,7.6,0c0.2,0,0.4,0,0.7,0c0.2,0,0.3,0.1,0.2,0.3
		c-0.3,1.1-0.5,2.2-0.8,3.3c-0.1,0.5-0.5,0.8-1,0.8c-0.2,0-0.4,0-0.6,0C173.8,90.2,172.3,90.2,170.8,90.2z M165.3,77
		c0.2,0,0.3,0,0.5,0c2,0,4.1,0,6.1,0c0.2,0,0.4,0,0.7,0c1.2-0.2,2-0.8,2.3-1.9c0.2-0.6,0.2-1.1,0.2-1.7c0-0.7-0.3-1.2-1-1.5
		c-0.3-0.1-0.6-0.2-0.9-0.3c-1.3-0.2-2.6-0.2-3.9,0.1c-1.1,0.2-2,0.8-2.7,1.7c-0.8,1-1.2,2.2-1.4,3.5C165.3,76.9,165.3,77,165.3,77z
		"/>
	<path class="st1" d="M80,90.2c1.9-8.5,3.9-17,5.8-25.4c-0.3-0.2-0.5-0.1-0.8-0.1c-2.7,0-5.4,0-8.1,0c-0.3,0-0.5,0-0.8,0
		c-0.2-0.1-0.1-0.3-0.1-0.3c0.3-1.3,0.6-2.5,0.9-3.8c0.1-0.6,0.1-0.6,0.8-0.6c0.1,0,0.2,0,0.3,0c8.1,0,16.1,0,24.2,0
		c1.1,0,1.1-0.1,0.8,1c-0.2,0.8-0.4,1.6-0.5,2.4c-0.1,0.2-0.1,0.5-0.3,0.7c-0.2,0.4-0.6,0.5-1,0.6c-0.2,0-0.5,0-0.7,0
		c-2.2,0-4.5,0-6.7,0c-0.2,0-0.4,0-0.6,0c-0.2,0-0.3,0.1-0.4,0.3c-0.2,1-0.4,1.9-0.7,2.9c-1.5,6.4-2.9,12.9-4.4,19.3
		c-0.2,0.9-0.4,1.8-0.6,2.7c-0.1,0.3-0.1,0.4-0.4,0.4c-0.9,0-1.8,0-2.7,0c-1.2,0-2.4,0-3.6,0C80.4,90.2,80.3,90.2,80,90.2z"/>
	<path class="st1" d="M193.4,62.4c-0.1,0.9-0.4,1.7-0.6,2.6c-0.2,0.8-0.5,1.6-0.5,2.5c0.8,0,1.6,0,2.4,0c0.8,0,1.6,0,2.4,0
		c0.8,0,1.6,0,2.4,0c0,0.1,0.1,0.2,0.1,0.2c-0.2,1-0.4,2-0.6,3c-0.2,0.8-0.6,1.2-1.5,1.2c-0.4,0-0.7,0-1.1,0c-1.6,0-3.1,0-4.7,0
		c-0.4,0-0.5,0-0.6,0.5c-0.5,2.4-1.1,4.9-1.6,7.3c-0.2,0.9-0.4,1.7-0.6,2.6c-0.1,0.5-0.1,1,0,1.6c0.3,1.1,1,1.7,2,1.9
		c0.4,0.1,0.8,0.1,1.2,0.1c1.1,0,2.1,0,3.2,0c0.1,0,0.2,0,0.3,0c0.2,0,0.3,0.1,0.3,0.3c-0.2,0.8-0.3,1.6-0.5,2.3
		c-0.1,0.4-0.2,0.8-0.3,1.2c-0.1,0.5-0.1,0.5-0.7,0.5c-1,0-1.9,0-2.9,0c-0.9,0-1.8,0-2.7,0c-1,0-1.9-0.2-2.8-0.5
		c-2.1-0.7-3.8-2.3-4-5.4c-0.1-1.1,0.1-2.2,0.3-3.2c1.3-5.7,2.6-11.4,3.9-17c0.2-1,0.7-1.3,1.6-1.3c1.7-0.1,3.3-0.2,5-0.3
		C193.1,62.4,193.2,62.4,193.4,62.4z"/>
	<path class="st1" d="M128.5,67.5c1.7,0,3.1,0,4.5,0c0.2,0,0.4,0,0.6,0c0.2,0,0.3,0.1,0.2,0.2c-0.2,0.9-0.4,1.8-0.8,2.6
		c-0.5,1-1.4,1.4-2.5,1.6c-0.3,0-0.6,0-0.9,0c-1.2,0-2.3,0-3.5,0c-0.8,0-1.7,0.1-2.5,0.3c-1.7,0.4-2.9,1.4-3.5,3
		c-0.9,2-1.4,4-1.5,6.2c-0.1,0.6,0,1.2,0.1,1.7c0.2,1,0.8,1.7,1.8,2.1c0.6,0.2,1.2,0.4,1.8,0.4c0.6,0,1.3,0.1,1.9,0.1
		c1.4,0,2.9,0,4.3,0c0.2,0,0.4,0,0.7,0c0.1,0,0.2,0.1,0.2,0.2c0,0.1,0,0.2,0,0.2c-0.3,1.2-0.5,2.4-0.8,3.6c-0.1,0.4-0.1,0.4-0.5,0.4
		c-2.6,0-5.1,0-7.7,0c-1.5,0-3-0.3-4.4-1c-2.7-1.2-4.1-3.3-4.3-6.2c-0.1-2.4,0.3-4.7,1.1-7c0.1-0.4,0.3-0.7,0.4-1.1
		c1.2-3.1,3.4-5.2,6.5-6.3c1.6-0.6,3.2-0.9,4.9-1C125.8,67.5,127.3,67.4,128.5,67.5z"/>
	<path class="st1" d="M98.8,90.1c0.2-0.7,0.3-1.4,0.5-2.2c1.4-6.2,2.8-12.3,4.3-18.5c0.1-0.2,0.1-0.5,0.2-0.7
		c0.2-0.7,0.7-1.1,1.4-1.2c0.2,0,0.4-0.1,0.6-0.1c1.5,0,3.1,0,4.6,0c0.1,0,0.2,0,0.2,0c0.1,0,0.1,0.1,0.1,0.2c0,0.1,0,0.3-0.1,0.4
		c-1.3,5.6-2.6,11.1-3.9,16.7c-0.4,1.5-0.7,3.1-1.1,4.6c0,0.2-0.1,0.3-0.1,0.5c0,0.2-0.1,0.3-0.4,0.3c-2.1,0-4.1,0-6.2,0
		C98.9,90.2,98.9,90.1,98.8,90.1z"/>
	<path class="st2" d="M208.6,59.6c0.7,0,1.3,0,1.9,0.2c2.3,0.6,3.7,2.2,3.8,4.6c0,1.7-0.4,3.3-1.3,4.7c-0.8,1.2-1.9,2-3.3,2.5
		c-1.4,0.4-2.8,0.5-4.3,0.2c-2.8-0.6-4.1-2.9-4-5c0-1.4,0.4-2.8,1.1-4c1.1-1.9,2.9-2.8,5-3.1C207.9,59.6,208.3,59.6,208.6,59.6z
		 M207.2,70.6c0.2,0,0.5,0,0.8,0c2-0.2,3.4-1.2,4.1-3c0.4-0.9,0.6-1.8,0.7-2.8c0.1-2.2-1.1-3.5-3-3.8c-1-0.2-1.9-0.2-2.9,0.1
		c-1.5,0.3-2.6,1.2-3.3,2.6c-0.6,1.2-0.8,2.4-0.7,3.7c0.2,1.9,1.4,2.8,2.6,3.1C206,70.6,206.5,70.6,207.2,70.6z"/>
	<path class="st1" d="M104.6,64.5c0-0.2,0-0.4,0.1-0.5c0.2-0.9,0.4-1.8,0.6-2.7c0.1-0.2,0.1-0.4,0.2-0.6c0.2-0.4,0.5-0.6,0.9-0.7
		c0.2,0,0.4-0.1,0.6-0.1c1.6,0,3.3,0,4.9,0c0.1,0,0.2,0,0.2,0c0.1,0,0.1,0.1,0.1,0.2c0,0.1,0,0.3-0.1,0.4c-0.2,0.8-0.4,1.7-0.6,2.5
		c-0.1,0.2-0.1,0.5-0.2,0.7c-0.2,0.5-0.7,0.8-1.2,0.9c-0.2,0-0.4,0-0.6,0c-1.5,0-3.1,0-4.6,0C104.9,64.6,104.8,64.7,104.6,64.5z"/>
	<path class="st2" d="M208,62.1c0.4,0,0.7,0,1.1,0c0.4,0,0.7,0.1,1,0.2c0.5,0.2,0.8,0.7,0.8,1.2c0,0.5-0.1,1-0.4,1.5
		c-0.2,0.4-0.6,0.7-1,0.9c-0.2,0.1-0.2,0.2-0.1,0.4c0.4,0.7,0.7,1.4,1.1,2.2c0.1,0.2,0,0.4-0.2,0.4c-0.3,0-0.6,0-0.9,0
		c-0.3,0-0.6-0.1-0.7-0.5c-0.2-0.5-0.4-0.9-0.6-1.4c-0.1-0.2-0.2-0.4-0.3-0.6c-0.1-0.1-0.1-0.2-0.3-0.2c0,0-0.1,0-0.1,0
		c-0.9-0.1-1-0.1-1.2,0.9c-0.1,0.4-0.2,0.9-0.3,1.3c-0.1,0.4-0.1,0.4-0.6,0.4c-1.3,0-1.1,0.2-0.9-1.1c0.3-1.5,0.7-3,1-4.4
		c0-0.1,0-0.2,0-0.2c0.2-0.7,0.5-0.9,1.2-1c0.1,0,0.1,0,0.2,0C207.3,62.1,207.6,62.1,208,62.1C208,62.1,208,62.1,208,62.1z
		 M207.4,65.2C207.4,65.2,207.4,65.2,207.4,65.2c0.3,0,0.6,0,0.9-0.1c0.5-0.1,0.7-0.3,0.9-0.8c0-0.1,0.1-0.3,0.1-0.4
		c0.1-0.4-0.1-0.6-0.5-0.7c-0.5-0.1-1-0.1-1.5,0c-0.1,0-0.2,0.1-0.2,0.2c-0.1,0.5-0.2,1-0.3,1.5c0,0.2,0.1,0.3,0.2,0.3
		C207.1,65.2,207.2,65.2,207.4,65.2z"/>
</g>
<g>
	<g>
		<defs>
			<path id="SVGID_1_" d="M65.9,61.1c4.6,12.5-1.9,26.4-14.4,31s-26.4-1.9-31-14.4c-4.6-12.5,1.9-26.4,14.4-31S61.3,48.6,65.9,61.1
				L65.9,61.1z"/>
		</defs>
		<clipPath id="SVGID_2_">
			<use xlink:href="#SVGID_1_"  style="overflow:visible;"/>
		</clipPath>
		<g class="st3">
			<defs>
				
					<rect id="SVGID_3_" x="19" y="45.3" transform="matrix(0.9392 -0.3434 0.3434 0.9392 -21.2196 19.0456)" width="48.4" height="48.4"/>
			</defs>
			<clipPath id="SVGID_4_">
				<use xlink:href="#SVGID_3_"  style="overflow:visible;"/>
			</clipPath>
			<g transform="matrix(1 0 0 1 9.536743e-07 0)" style="clip-path:url(#SVGID_4_);">
				
					<image style="overflow:visible;" width="188" height="187" xlink:href="15088D20.png"  transform="matrix(9.069803e-02 0.2481 0.2481 -9.069803e-02 11.309 54.757)">
				</image>
			</g>
		</g>
		<g class="st3">
			<defs>
				
					<rect id="SVGID_5_" x="19" y="45.3" transform="matrix(0.9392 -0.3434 0.3434 0.9392 -21.2196 19.0456)" width="48.4" height="48.4"/>
			</defs>
			<clipPath id="SVGID_6_">
				<use xlink:href="#SVGID_5_"  style="overflow:visible;"/>
			</clipPath>
			<g transform="matrix(1 0 0 1 9.536743e-07 0)" style="clip-path:url(#SVGID_6_);">
				
					<image style="overflow:visible;" width="188" height="187" xlink:href="15088D21.png"  transform="matrix(9.069803e-02 0.2481 0.2481 -9.069803e-02 11.309 54.757)">
				</image>
			</g>
		</g>
	</g>
	<path class="st4" d="M43.2,97.8c10.3,0,18.8,2.1,18.8,4.7c0,2.6-8.4,4.7-18.8,4.7c-10.3,0-18.8-2.1-18.8-4.7
		C24.4,99.9,32.8,97.8,43.2,97.8L43.2,97.8z"/>
	<path class="st5" d="M43.2,97.8c10.2,0,18.5,2.1,18.5,4.6c0,2.5-8.3,4.6-18.5,4.6c-10.2,0-18.5-2.1-18.5-4.6
		C24.6,99.9,33,97.8,43.2,97.8L43.2,97.8z"/>
	<path class="st6" d="M43.2,97.9c10.1,0,18.3,2,18.3,4.5c0,2.5-8.2,4.5-18.3,4.5c-10.1,0-18.3-2-18.3-4.5
		C24.9,99.9,33.1,97.9,43.2,97.9L43.2,97.9z"/>
	<path class="st7" d="M43.2,98c9.9,0,18,2,18,4.5c0,2.5-8.1,4.5-18,4.5c-9.9,0-18-2-18-4.5C25.1,100,33.2,98,43.2,98L43.2,98z"/>
	<path class="st8" d="M43.2,98c9.8,0,17.8,2,17.8,4.4c0,2.4-8,4.4-17.8,4.4c-9.8,0-17.8-2-17.8-4.4C25.4,100,33.4,98,43.2,98
		L43.2,98z"/>
	<path class="st9" d="M43.2,98.1c9.7,0,17.6,2,17.6,4.4c0,2.4-7.9,4.4-17.6,4.4c-9.7,0-17.6-2-17.6-4.4
		C25.6,100,33.5,98.1,43.2,98.1L43.2,98.1z"/>
	<path class="st10" d="M43.2,98.1c9.5,0,17.3,1.9,17.3,4.3c0,2.4-7.8,4.3-17.3,4.3c-9.5,0-17.3-1.9-17.3-4.3
		C25.8,100.1,33.6,98.1,43.2,98.1L43.2,98.1z"/>
	<path class="st11" d="M43.2,98.2c9.4,0,17.1,1.9,17.1,4.2c0,2.3-7.7,4.2-17.1,4.2c-9.4,0-17.1-1.9-17.1-4.2
		C26.1,100.1,33.8,98.2,43.2,98.2L43.2,98.2z"/>
	<path class="st12" d="M43.2,98.3c9.3,0,16.8,1.9,16.8,4.2c0,2.3-7.6,4.2-16.8,4.2c-9.3,0-16.8-1.9-16.8-4.2
		C26.3,100.1,33.9,98.3,43.2,98.3L43.2,98.3z"/>
	<path class="st13" d="M43.2,98.3c9.1,0,16.6,1.9,16.6,4.1c0,2.3-7.5,4.1-16.6,4.1c-9.1,0-16.6-1.9-16.6-4.1
		C26.6,100.2,34,98.3,43.2,98.3L43.2,98.3z"/>
	<path class="st14" d="M43.2,98.4c9,0,16.4,1.8,16.4,4.1c0,2.2-7.4,4.1-16.4,4.1c-9,0-16.4-1.8-16.4-4.1
		C26.8,100.2,34.2,98.4,43.2,98.4L43.2,98.4z"/>
	<path class="st15" d="M43.2,98.4c8.9,0,16.1,1.8,16.1,4c0,2.2-7.2,4-16.1,4c-8.9,0-16.1-1.8-16.1-4C27,100.2,34.3,98.4,43.2,98.4
		L43.2,98.4z"/>
	<path class="st16" d="M43.2,98.5c8.8,0,15.9,1.8,15.9,3.9c0,2.2-7.1,3.9-15.9,3.9c-8.8,0-15.9-1.8-15.9-3.9
		C27.3,100.3,34.4,98.5,43.2,98.5L43.2,98.5z"/>
	<path class="st17" d="M43.2,98.5c8.6,0,15.6,1.7,15.6,3.9c0,2.1-7,3.9-15.6,3.9c-8.6,0-15.7-1.7-15.7-3.9
		C27.5,100.3,34.6,98.5,43.2,98.5L43.2,98.5z"/>
	<path class="st18" d="M43.2,98.6c8.5,0,15.4,1.7,15.4,3.8c0,2.1-6.9,3.8-15.4,3.8c-8.5,0-15.4-1.7-15.4-3.8
		C27.8,100.3,34.7,98.6,43.2,98.6L43.2,98.6z"/>
	<path class="st19" d="M43.2,98.7c8.4,0,15.2,1.7,15.2,3.8c0,2.1-6.8,3.8-15.2,3.8c-8.4,0-15.2-1.7-15.2-3.8
		C28,100.4,34.8,98.7,43.2,98.7L43.2,98.7z"/>
	<path class="st20" d="M43.2,98.7c8.2,0,14.9,1.7,14.9,3.7c0,2-6.7,3.7-14.9,3.7c-8.2,0-14.9-1.7-14.9-3.7
		C28.2,100.4,34.9,98.7,43.2,98.7L43.2,98.7z"/>
	<path class="st21" d="M43.2,98.8c8.1,0,14.7,1.6,14.7,3.7c0,2-6.6,3.7-14.7,3.7c-8.1,0-14.7-1.6-14.7-3.7
		C28.5,100.4,35.1,98.8,43.2,98.8L43.2,98.8z"/>
	<path class="st22" d="M43.2,98.8c8,0,14.5,1.6,14.5,3.6c0,2-6.5,3.6-14.5,3.6c-8,0-14.5-1.6-14.5-3.6
		C28.7,100.5,35.2,98.8,43.2,98.8L43.2,98.8z"/>
	<path class="st23" d="M43.2,98.9c7.8,0,14.2,1.6,14.2,3.5c0,1.9-6.4,3.5-14.2,3.5c-7.8,0-14.2-1.6-14.2-3.5
		C29,100.5,35.3,98.9,43.2,98.9L43.2,98.9z"/>
	<path class="st24" d="M43.2,99c7.7,0,14,1.6,14,3.5c0,1.9-6.3,3.5-14,3.5c-7.7,0-14-1.6-14-3.5C29.2,100.5,35.5,99,43.2,99L43.2,99
		z"/>
	<path class="st25" d="M43.2,99c7.6,0,13.7,1.5,13.7,3.4c0,1.9-6.2,3.4-13.7,3.4c-7.6,0-13.7-1.5-13.7-3.4
		C29.4,100.6,35.6,99,43.2,99L43.2,99z"/>
	<path class="st26" d="M43.2,99.1c7.4,0,13.5,1.5,13.5,3.4c0,1.8-6.1,3.4-13.5,3.4c-7.4,0-13.5-1.5-13.5-3.4
		C29.7,100.6,35.7,99.1,43.2,99.1L43.2,99.1z"/>
	<path class="st27" d="M43.2,99.1c7.3,0,13.3,1.5,13.3,3.3c0,1.8-6,3.3-13.3,3.3c-7.3,0-13.3-1.5-13.3-3.3
		C29.9,100.6,35.9,99.1,43.2,99.1L43.2,99.1z"/>
	<path class="st28" d="M43.2,99.2c7.2,0,13,1.5,13,3.2c0,1.8-5.8,3.2-13,3.2c-7.2,0-13-1.5-13-3.2C30.2,100.7,36,99.2,43.2,99.2
		L43.2,99.2z"/>
	<path class="st29" d="M43.2,99.3c7,0,12.8,1.4,12.8,3.2c0,1.7-5.7,3.2-12.8,3.2c-7,0-12.8-1.4-12.8-3.2
		C30.4,100.7,36.1,99.3,43.2,99.3L43.2,99.3z"/>
	<path class="st30" d="M43.2,99.3c6.9,0,12.5,1.4,12.5,3.1c0,1.7-5.6,3.1-12.5,3.1c-6.9,0-12.5-1.4-12.5-3.1
		C30.6,100.7,36.3,99.3,43.2,99.3L43.2,99.3z"/>
	<path class="st31" d="M43.2,99.4c6.8,0,12.3,1.4,12.3,3.1c0,1.7-5.5,3.1-12.3,3.1c-6.8,0-12.3-1.4-12.3-3.1
		C30.9,100.8,36.4,99.4,43.2,99.4L43.2,99.4z"/>
	<path class="st32" d="M43.2,99.4c6.6,0,12.1,1.3,12.1,3c0,1.6-5.4,3-12.1,3s-12.1-1.3-12.1-3C31.1,100.8,36.5,99.4,43.2,99.4
		L43.2,99.4z"/>
	<path class="st33" d="M43.2,99.5c6.5,0,11.8,1.3,11.8,2.9c0,1.6-5.3,2.9-11.8,2.9c-6.5,0-11.8-1.3-11.8-2.9
		C31.4,100.8,36.7,99.5,43.2,99.5L43.2,99.5z"/>
	<path class="st34" d="M43.2,99.6c6.4,0,11.6,1.3,11.6,2.9c0,1.6-5.2,2.9-11.6,2.9c-6.4,0-11.6-1.3-11.6-2.9
		C31.6,100.9,36.8,99.6,43.2,99.6L43.2,99.6z"/>
	<path class="st35" d="M43.2,99.6c6.2,0,11.3,1.3,11.3,2.8c0,1.6-5.1,2.8-11.3,2.8c-6.2,0-11.3-1.3-11.3-2.8
		C31.8,100.9,36.9,99.6,43.2,99.6L43.2,99.6z"/>
	<path class="st36" d="M43.2,99.7c6.1,0,11.1,1.2,11.1,2.8c0,1.5-5,2.8-11.1,2.8c-6.1,0-11.1-1.2-11.1-2.8
		C32.1,100.9,37.1,99.7,43.2,99.7L43.2,99.7z"/>
	<path class="st37" d="M43.2,99.7c6,0,10.9,1.2,10.9,2.7c0,1.5-4.9,2.7-10.9,2.7c-6,0-10.9-1.2-10.9-2.7
		C32.3,101,37.2,99.7,43.2,99.7L43.2,99.7z"/>
	<path class="st38" d="M43.2,99.8c5.8,0,10.6,1.2,10.6,2.6c0,1.5-4.8,2.6-10.6,2.6c-5.8,0-10.6-1.2-10.6-2.6
		C32.6,101,37.3,99.8,43.2,99.8L43.2,99.8z"/>
	<path class="st39" d="M43.2,99.9c5.7,0,10.4,1.2,10.4,2.6c0,1.4-4.7,2.6-10.4,2.6c-5.7,0-10.4-1.2-10.4-2.6
		C32.8,101,37.5,99.9,43.2,99.9L43.2,99.9z"/>
	<path class="st40" d="M43.2,99.9c5.6,0,10.1,1.1,10.1,2.5c0,1.4-4.6,2.5-10.1,2.5c-5.6,0-10.1-1.1-10.1-2.5
		C33,101.1,37.6,99.9,43.2,99.9L43.2,99.9z"/>
	<path class="st41" d="M43.2,100c5.4,0,9.9,1.1,9.9,2.5c0,1.4-4.4,2.5-9.9,2.5c-5.5,0-9.9-1.1-9.9-2.5C33.3,101.1,37.7,100,43.2,100
		L43.2,100z"/>
	<path class="st42" d="M43.2,100c5.3,0,9.7,1.1,9.7,2.4c0,1.3-4.3,2.4-9.7,2.4c-5.3,0-9.7-1.1-9.7-2.4C33.5,101.1,37.9,100,43.2,100
		L43.2,100z"/>
	<path class="st43" d="M43.2,100.1c5.2,0,9.4,1.1,9.4,2.3c0,1.3-4.2,2.3-9.4,2.3c-5.2,0-9.4-1.1-9.4-2.3
		C33.8,101.1,38,100.1,43.2,100.1L43.2,100.1z"/>
	<path class="st44" d="M43.2,100.2c5.1,0,9.2,1,9.2,2.3c0,1.3-4.1,2.3-9.2,2.3c-5.1,0-9.2-1-9.2-2.3C34,101.2,38.1,100.2,43.2,100.2
		L43.2,100.2z"/>
	<path class="st45" d="M43.2,100.2c4.9,0,8.9,1,8.9,2.2c0,1.2-4,2.2-8.9,2.2c-4.9,0-8.9-1-8.9-2.2C34.2,101.2,38.2,100.2,43.2,100.2
		L43.2,100.2z"/>
	<path class="st46" d="M43.2,100.3c4.8,0,8.7,1,8.7,2.2c0,1.2-3.9,2.2-8.7,2.2c-4.8,0-8.7-1-8.7-2.2
		C34.5,101.2,38.4,100.3,43.2,100.3L43.2,100.3z"/>
	<path class="st47" d="M43.2,100.3c4.7,0,8.5,0.9,8.5,2.1c0,1.2-3.8,2.1-8.5,2.1c-4.7,0-8.5-0.9-8.5-2.1
		C34.7,101.3,38.5,100.3,43.2,100.3L43.2,100.3z"/>
	<path class="st48" d="M43.2,100.4c4.5,0,8.2,0.9,8.2,2c0,1.1-3.7,2-8.2,2c-4.5,0-8.2-0.9-8.2-2C35,101.3,38.6,100.4,43.2,100.4
		L43.2,100.4z"/>
	<path class="st49" d="M43.2,100.5c4.4,0,8,0.9,8,2c0,1.1-3.6,2-8,2c-4.4,0-8-0.9-8-2C35.2,101.3,38.8,100.5,43.2,100.5L43.2,100.5z
		"/>
	<path class="st50" d="M43.2,100.5c4.3,0,7.7,0.9,7.7,1.9c0,1.1-3.5,1.9-7.7,1.9c-4.3,0-7.7-0.9-7.7-1.9
		C35.4,101.4,38.9,100.5,43.2,100.5L43.2,100.5z"/>
	<path class="st51" d="M43.2,100.6c4.1,0,7.5,0.8,7.5,1.9c0,1-3.4,1.9-7.5,1.9c-4.1,0-7.5-0.8-7.5-1.9
		C35.7,101.4,39,100.6,43.2,100.6L43.2,100.6z"/>
	<path class="st52" d="M43.2,100.6c4,0,7.3,0.8,7.3,1.8c0,1-3.3,1.8-7.3,1.8c-4,0-7.3-0.8-7.3-1.8C35.9,101.4,39.2,100.6,43.2,100.6
		L43.2,100.6z"/>
	<path class="st53" d="M43.2,100.7c3.9,0,7,0.8,7,1.7c0,1-3.2,1.7-7,1.7c-3.9,0-7-0.8-7-1.7C36.2,101.5,39.3,100.7,43.2,100.7
		L43.2,100.7z"/>
	<path class="st54" d="M43.2,100.8c3.7,0,6.8,0.8,6.8,1.7c0,0.9-3,1.7-6.8,1.7c-3.7,0-6.8-0.8-6.8-1.7
		C36.4,101.5,39.4,100.8,43.2,100.8L43.2,100.8z"/>
	<path class="st55" d="M43.2,100.8c3.6,0,6.5,0.7,6.5,1.6c0,0.9-2.9,1.6-6.5,1.6c-3.6,0-6.5-0.7-6.5-1.6
		C36.6,101.5,39.6,100.8,43.2,100.8L43.2,100.8z"/>
	<path class="st56" d="M43.2,100.9c3.5,0,6.3,0.7,6.3,1.6c0,0.9-2.8,1.6-6.3,1.6c-3.5,0-6.3-0.7-6.3-1.6
		C36.9,101.6,39.7,100.9,43.2,100.9L43.2,100.9z"/>
	<path class="st57" d="M43.2,100.9c3.3,0,6.1,0.7,6.1,1.5c0,0.8-2.7,1.5-6.1,1.5c-3.3,0-6.1-0.7-6.1-1.5
		C37.1,101.6,39.8,100.9,43.2,100.9L43.2,100.9z"/>
	<path class="st58" d="M43.2,101c3.2,0,5.8,0.6,5.8,1.4c0,0.8-2.6,1.4-5.8,1.4c-3.2,0-5.8-0.6-5.8-1.4C37.4,101.6,40,101,43.2,101
		L43.2,101z"/>
	<path class="st59" d="M43.2,101.1c3.1,0,5.6,0.6,5.6,1.4c0,0.8-2.5,1.4-5.6,1.4c-3.1,0-5.6-0.6-5.6-1.4
		C37.6,101.7,40.1,101.1,43.2,101.1L43.2,101.1z"/>
	<path class="st60" d="M43.2,101.1c2.9,0,5.3,0.6,5.3,1.3c0,0.7-2.4,1.3-5.3,1.3c-2.9,0-5.3-0.6-5.3-1.3
		C37.8,101.7,40.2,101.1,43.2,101.1L43.2,101.1z"/>
	<path class="st61" d="M43.2,101.2c2.8,0,5.1,0.6,5.1,1.3c0,0.7-2.3,1.3-5.1,1.3c-2.8,0-5.1-0.6-5.1-1.3
		C38.1,101.7,40.4,101.2,43.2,101.2L43.2,101.2z"/>
	<path class="st62" d="M43.2,101.2c2.7,0,4.9,0.5,4.9,1.2c0,0.7-2.2,1.2-4.9,1.2c-2.7,0-4.9-0.5-4.9-1.2
		C38.3,101.8,40.5,101.2,43.2,101.2L43.2,101.2z"/>
	<path class="st63" d="M43.2,101.3c2.5,0,4.6,0.5,4.6,1.1c0,0.6-2.1,1.1-4.6,1.1c-2.5,0-4.6-0.5-4.6-1.1
		C38.6,101.8,40.6,101.3,43.2,101.3L43.2,101.3z"/>
	<path class="st64" d="M43.2,101.3c2.4,0,4.4,0.5,4.4,1.1c0,0.6-2,1.1-4.4,1.1c-2.4,0-4.4-0.5-4.4-1.1
		C38.8,101.8,40.8,101.3,43.2,101.3L43.2,101.3z"/>
	<path class="st65" d="M43.2,101.4c2.3,0,4.1,0.5,4.1,1c0,0.6-1.9,1-4.1,1c-2.3,0-4.1-0.5-4.1-1C39,101.9,40.9,101.4,43.2,101.4
		L43.2,101.4z"/>
</g>
</svg>
