<?xml version="1.0" encoding="utf-8"?>
<!-- Generator: Adobe Illustrator 25.2.0, SVG Export Plug-In . SVG Version: 6.00 Build 0)  -->
<svg version="1.1" id="Camada_1" xmlns="http://www.w3.org/2000/svg" xmlns:xlink="http://www.w3.org/1999/xlink" x="0px" y="0px"
	 width="230px" height="158px" viewBox="0 0 230 158" style="enable-background:new 0 0 230 158;" xml:space="preserve">
<style type="text/css">
	.st0{fill:#5FC7D0;}
	.st1{fill:#FAFAFA;}
	.st2{fill:#FF504A;}
	.st3{fill:#ED4A45;}
	.st4{fill:#D9443F;}
	.st5{fill:#BF3C38;}
</style>
<path class="st0" d="M210.2,0H19.7C8.9,0,0,8.9,0,19.8v118.5C0,149.1,8.9,158,19.7,158h190.7c10.8,0,19.7-8.9,19.7-19.7V19.8
	C230,8.9,221.1,0,210.2,0z"/>
<g>
	<desc>Created with Sketch.</desc>
</g>
<g>
	<path class="st1" d="M96.8,25.5c-0.1,1,0,2,0,3c0,1,0,1.9-0.1,2.9c0,0.7-0.1,1.4-0.2,2.2l2.4,0.2c0.5-6.1-0.2-7.6,0.7-9.9
		C98.6,24.3,97.6,24.9,96.8,25.5z"/>
	<path class="st1" d="M115.7,18.2c-2.1-0.9-4.6-1.3-7.1-1.2c-4.4,0.2-9.1,1.9-11,5.8c1.2-0.6,2.5-1.1,3.9-1.5
		c1.9-1.7,4.6-2.4,7.2-2.5c1.9-0.1,3.9,0.2,5.6,0.9c6.2,2.4,7.9,9.1,8.2,15.8l2.4,0.2C124.4,24.6,120.3,20.1,115.7,18.2z"/>
	<path class="st2" d="M157.1,38c0,0-11.9,2.1-11.9,2.1l0.4,79.9l0,0l15.4,9.8L157.1,38L157.1,38z"/>
	<path class="st3" d="M137.6,42.9l-3.1,94.3l-76.6-14.1l3.7-86.4C61.6,36.8,137.6,42.9,137.6,42.9z"/>
	<polygon class="st3" points="145.6,120 134.5,137.2 134.5,137.2 161,129.8 145.6,120 	"/>
	<polygon class="st4" points="137.6,42.9 134.5,137.2 145.6,120 145.6,120 145.1,40.1 	"/>
	<path class="st5" d="M137.6,42.9l7.6-2.8c0,0,11.9-2.1,11.9-2.1l-77.7-5.8l0,0l-5,2.2l-12.8,2.3L137.6,42.9z"/>
	<path class="st5" d="M88.8,38.8l2.7,0.2c-0.7,0.7-1.4,1.8-2.1,3.1c-0.7,1.2-1.7,2-3.2,3.8c0.1,0.2,0.3,0.3,0.4,0.5
		c0.3,0.7-0.4,1.3-1.4,1.1c-0.8-0.2-1.4-0.9-1.4-2v0c0,0,0,0,0-0.1c2.7-3.4,2.7-3.1,4.5-6.1c0,0,0,0,0,0
		C88.5,39.1,88.7,39,88.8,38.8z"/>
	<path class="st5" d="M114.8,49.2c0.5-1.1,1-2.1,1.6-3.1c1-1.6,1.9-3.1,3.1-4.7l-2.6-0.2c-0.5,0.7-1,1.4-1.4,2.1
		c-0.7,1-1.3,2-1.8,3.1c-0.4,0.8-0.8,1.5-1.2,2.3c0,0,0,0.1-0.1,0.1C113.3,48.9,114.1,49.1,114.8,49.2z"/>
	<path class="st1" d="M91.2,27.9c-2.7,3.1-5.1,6.9-6.7,10.9l0,0c-0.1,0.2-0.2,0.5-0.2,0.7c0,0,0,0,0,0c-0.1,0.7-1.3,4.1-0.8,6.6
		c0,0.1,0,0.1,0,0.1c0,0.2,0.1,0.3,0.2,0.5c0,0,0,0,0,0c0.5,1.1,1.8,1.3,2.4,0.8c0.5-0.3,0.6-0.8,0.3-1.2c-0.1-0.2-0.4-0.2-0.5-0.3
		c-0.5-1.1,0.2-4.8,1-7.1c0.1-0.4,1.5-3.6,3.8-6.9c2.4-3.4,5.1-6.4,8.9-8.1c0.6-0.3,1.2-0.5,1.9-0.7c4.4-1.4,12.4-1.1,13.7,3.2
		c0.6,1.9-0.6,3.9-1.2,5.7c-0.3,0.9-0.6,1.8-0.8,2.7c-0.3,1.2-0.6,2.3-0.8,3.5c-0.2,0.9-0.3,1.7-0.4,2.6c-0.1,1-0.2,2.1-0.2,3.1l0,0
		c0,0.1,0,0.2,0,0.4c0,0.6,0,1.2,0,1.8c0,0.6,0,1.2,0.1,1.8c0,0.2,0.1,0.4,0.2,0.7c0,0,0,0,0,0l0,0c0.1,0.3,0.3,0.6,0.5,0.9v0
		c0.3,0.4,0.8,0.7,1.5,0.8c0.1,0,0.2,0,0.3,0c0.6,0,1.2-0.5,1.2-1c0-0.3-0.2-0.5-0.5-0.7c-0.3-0.1-0.4-0.1-0.6-0.3
		c-0.3-0.6-0.3-1.3-0.3-1.9c0-0.7,0-1.5,0-2.2c0-1.1,0.1-2.1,0.2-3.2c0.3-2,0.7-4.1,1.3-6.1c0.3-1.2,0.7-2.4,1.1-3.6
		c0.3-0.9,0.8-1.9,0.9-2.8c0.2-1.1,0.1-2.2-0.3-3.2C114.8,19.8,100.5,17.2,91.2,27.9z"/>
</g>
</svg>
