<?xml version="1.0" encoding="utf-8"?>
<!-- Generator: Adobe Illustrator 25.0.1, SVG Export Plug-In . SVG Version: 6.00 Build 0)  -->
<svg version="1.1" id="Camada_1" xmlns="http://www.w3.org/2000/svg" xmlns:xlink="http://www.w3.org/1999/xlink" x="0px" y="0px"
	 width="230px" height="158px" viewBox="0 0 230 158" style="enable-background:new 0 0 230 158;" xml:space="preserve">
<style type="text/css">
	.st0{fill:#FFFFFF;}
	.st1{fill-rule:evenodd;clip-rule:evenodd;fill:#FBD879;}
	.st2{fill-rule:evenodd;clip-rule:evenodd;fill:#4D4D4D;}
	.st3{fill-rule:evenodd;clip-rule:evenodd;fill:#801517;}
	.st4{fill-rule:evenodd;clip-rule:evenodd;fill:#E6B147;}
	.st5{fill-rule:evenodd;clip-rule:evenodd;fill:#600C10;}
</style>
<path class="st0" d="M210.2,0H19.7C8.9,0,0,8.9,0,19.8v118.5C0,149.1,8.9,158,19.7,158h190.7c10.8,0,19.7-8.9,19.7-19.7V19.8
	C230,8.9,221.1,0,210.2,0z"/>
<g>
	<desc>Created with Sketch.</desc>
</g>
<path class="st1" d="M50.9,37.2l121.6-20.4c4.6-0.8,9,2.4,9.7,6.9l12.3,73.3c0.8,4.6-2.4,9-6.9,9.7L66,127.2c-4.6,0.8-9-2.4-9.7-6.9
	L44,46.9C43.2,42.4,46.4,38,50.9,37.2L50.9,37.2z"/>
<polygon class="st2" points="45,52.7 183.3,29.6 186.9,50.9 48.5,74 45,52.7 "/>
<path class="st3" d="M47.4,45.4h123.3c4.6,0,8.4,3.8,8.4,8.4v74.3c0,4.6-3.8,8.4-8.4,8.4H47.4c-4.6,0-8.4-3.8-8.4-8.4V53.8
	C38.9,49.2,42.8,45.4,47.4,45.4L47.4,45.4z"/>
<path class="st4" d="M49.1,79.8h7.2V74h-6c-0.3,0-0.6,0.1-0.9,0.4c-0.2,0.2-0.4,0.5-0.4,0.9V79.8L49.1,79.8z M57.7,79.8h17.4v-4.6
	c0-0.3-0.1-0.6-0.4-0.9c-0.2-0.2-0.5-0.4-0.9-0.4h-6v3.3h-1.4V74h-8.9V79.8L57.7,79.8z M75.1,88.5h-7.2V93h6c0.3,0,0.6-0.1,0.9-0.4
	c0.2-0.2,0.4-0.5,0.4-0.9V88.5L75.1,88.5z M66.5,88.5h-8.9V93h8.9V88.5L66.5,88.5z M56.3,88.5h-7.2v3.3c0,0.3,0.1,0.6,0.4,0.9
	c0.2,0.2,0.5,0.4,0.9,0.4h6V88.5L56.3,88.5z M49.1,87.1h7.2v-6h-7.2V87.1L49.1,87.1z M57.7,87.1h8.9v-6h-8.9V87.1L57.7,87.1z
	 M67.9,87.1h7.2v-6h-7.2V87.1L67.9,87.1z"/>
<path class="st5" d="M50.8,55.1h57.9c0.9,0,1.7,0.8,1.7,1.7v10.3c0,0.9-0.8,1.7-1.7,1.7H50.8c-0.9,0-1.7-0.8-1.7-1.7V56.8
	C49.1,55.9,49.8,55.1,50.8,55.1L50.8,55.1z"/>
<path class="st5" d="M49.9,104.7h25.4c0.4,0,0.7,0.3,0.7,0.7v4.3c0,0.4-0.3,0.7-0.7,0.7H49.9c-0.4,0-0.7-0.3-0.7-0.7v-4.3
	C49.2,105,49.6,104.7,49.9,104.7L49.9,104.7z"/>
<path class="st5" d="M82.1,104.7h25.4c0.4,0,0.7,0.3,0.7,0.7v4.3c0,0.4-0.3,0.7-0.7,0.7H82.1c-0.4,0-0.7-0.3-0.7-0.7v-4.3
	C81.4,105,81.7,104.7,82.1,104.7L82.1,104.7z"/>
<path class="st5" d="M114.2,104.7h25.4c0.4,0,0.7,0.3,0.7,0.7v4.3c0,0.4-0.3,0.7-0.7,0.7h-25.4c-0.4,0-0.7-0.3-0.7-0.7v-4.3
	C113.5,105,113.8,104.7,114.2,104.7L114.2,104.7z"/>
<path class="st5" d="M146.3,104.7h25.4c0.4,0,0.7,0.3,0.7,0.7v4.3c0,0.4-0.3,0.7-0.7,0.7h-25.4c-0.4,0-0.7-0.3-0.7-0.7v-4.3
	C145.6,105,145.9,104.7,146.3,104.7L146.3,104.7z"/>
<path class="st5" d="M146.3,116.7h9c0.4,0,0.7,0.3,0.7,0.7v4.3c0,0.4-0.3,0.7-0.7,0.7h-9c-0.4,0-0.7-0.3-0.7-0.7v-4.3
	C145.6,117,145.9,116.7,146.3,116.7L146.3,116.7z"/>
<path class="st5" d="M162.7,116.6h9c0.4,0,0.7,0.3,0.7,0.7v4.3c0,0.4-0.3,0.7-0.7,0.7h-9c-0.4,0-0.7-0.3-0.7-0.7v-4.3
	C162,116.9,162.3,116.6,162.7,116.6L162.7,116.6z"/>
<path class="st5" d="M49.4,117.9h52.4c0.2,0,0.4,0.2,0.4,0.4v2.4c0,0.2-0.2,0.4-0.4,0.4H49.4c-0.2,0-0.4-0.2-0.4-0.4v-2.4
	C49,118.1,49.2,117.9,49.4,117.9L49.4,117.9z"/>
<path class="st5" d="M105.7,117.9h20.5c0.2,0,0.4,0.2,0.4,0.4v2.4c0,0.2-0.2,0.4-0.4,0.4h-20.5c-0.2,0-0.4-0.2-0.4-0.4v-2.4
	C105.3,118.1,105.5,117.9,105.7,117.9L105.7,117.9z"/>
</svg>
