<?xml version="1.0" encoding="utf-8"?>
<!-- Generator: Adobe Illustrator 25.0.1, SVG Export Plug-In . SVG Version: 6.00 Build 0)  -->
<svg version="1.1" id="Camada_1" xmlns="http://www.w3.org/2000/svg" xmlns:xlink="http://www.w3.org/1999/xlink" x="0px" y="0px"
	 width="230px" height="158px" viewBox="0 0 230 158" style="enable-background:new 0 0 230 158;" xml:space="preserve">
<style type="text/css">
	.st0{fill:#FFFFFF;}
	.st1{fill:#2656A0;}
</style>
<path class="st0" d="M210.2,0H19.7C8.9,0,0,8.9,0,19.8v118.5C0,149.1,8.9,158,19.7,158h190.7c10.8,0,19.7-8.9,19.7-19.7V19.8
	C230,8.9,221.1,0,210.2,0z"/>
<g>
	<desc>Created with Sketch.</desc>
</g>
<g>
	<g>
		<path class="st1" d="M147.3,130.1c28.2,0,51.1-22.9,51.1-51.1c0-28.2-22.9-51.1-51.1-51.1H82.7c-28.2,0-51.1,22.9-51.1,51.1
			c0,28.2,22.9,51.1,51.1,51.1H147.3z"/>
		<g>
			<ellipse transform="matrix(0.9929 -0.1193 0.1193 0.9929 -8.8373 10.4348)" class="st0" cx="82.7" cy="79" rx="50" ry="50"/>
		</g>
	</g>
	<path class="st1" d="M72.6,50.2C60.7,54.3,52.2,65.7,52.2,79c0,13.4,8.6,24.7,20.5,28.9L72.6,50.2z"/>
	<path class="st1" d="M113.2,79c0,13.4-8.6,24.7-20.5,28.9l0.1-57.7C104.7,54.3,113.2,65.7,113.2,79"/>
</g>
</svg>
