<?xml version="1.0" encoding="utf-8"?>
<!-- Generator: Adobe Illustrator 25.0.1, SVG Export Plug-In . SVG Version: 6.00 Build 0)  -->
<svg version="1.1" id="Camada_1" xmlns="http://www.w3.org/2000/svg" xmlns:xlink="http://www.w3.org/1999/xlink" x="0px" y="0px"
	 width="230px" height="158px" viewBox="0 0 230 158" style="enable-background:new 0 0 230 158;" xml:space="preserve">
<style type="text/css">
	.st0{fill:#FFFFFF;}
	.st1{fill:#FF5F00;}
	.st2{fill:#EB001B;}
	.st3{fill:#F79E1B;}
</style>
<path class="st0" d="M210.2,0H19.7C8.9,0,0,8.9,0,19.8v118.5C0,149.1,8.9,158,19.7,158h190.7c10.8,0,19.7-8.9,19.7-19.7V19.8
	C229.9,8.9,221.1,0,210.2,0z"/>
<g>
	<desc>Created with Sketch.</desc>
</g>
<g>
	<path d="M67.2,133.1v-7.7c0-3-1.8-4.9-4.9-4.9c-1.5,0-3.2,0.5-4.4,2.2c-0.9-1.4-2.2-2.2-4.1-2.2c-1.3,0-2.6,0.4-3.6,1.8v-1.5h-2.7
		v12.4h2.7v-6.8c0-2.2,1.2-3.2,3-3.2s2.7,1.2,2.7,3.2v6.8h2.7v-6.8c0-2.2,1.3-3.2,3-3.2c1.8,0,2.7,1.2,2.7,3.2v6.8H67.2L67.2,133.1z
		 M107.3,120.7h-4.4v-3.7h-2.7v3.7h-2.5v2.5h2.5v5.7c0,2.8,1.2,4.5,4.3,4.5c1.2,0,2.5-0.4,3.4-0.9l-0.8-2.3
		c-0.8,0.5-1.7,0.6-2.3,0.6c-1.3,0-1.8-0.8-1.8-2.1v-5.6h4.4V120.7L107.3,120.7z M130.3,120.4c-1.5,0-2.6,0.8-3.2,1.8v-1.5h-2.7
		v12.4h2.7v-7c0-2.1,0.9-3.2,2.6-3.2c0.5,0,1.2,0.1,1.7,0.3l0.8-2.6C131.6,120.4,130.8,120.4,130.3,120.4L130.3,120.4L130.3,120.4z
		 M95.6,121.7c-1.3-0.9-3.1-1.3-5-1.3c-3.1,0-5.2,1.5-5.2,4c0,2.1,1.5,3.2,4.3,3.6l1.3,0.1c1.4,0.3,2.2,0.6,2.2,1.3
		c0,0.9-1,1.5-2.8,1.5s-3.2-0.6-4.1-1.3l-1.3,2.1c1.4,1,3.4,1.5,5.3,1.5c3.6,0,5.7-1.7,5.7-4c0-2.2-1.7-3.4-4.3-3.7l-1.3-0.1
		c-1.2-0.1-2.1-0.4-2.1-1.2c0-0.9,0.9-1.4,2.3-1.4c1.5,0,3.1,0.6,3.9,1L95.6,121.7L95.6,121.7z M167.6,120.4c-1.5,0-2.6,0.8-3.2,1.8
		v-1.5h-2.7v12.4h2.7v-7c0-2.1,0.9-3.2,2.6-3.2c0.5,0,1.2,0.1,1.7,0.3l0.8-2.6C168.9,120.4,168.1,120.4,167.6,120.4L167.6,120.4
		L167.6,120.4z M133,126.9c0,3.7,2.6,6.5,6.6,6.5c1.8,0,3.1-0.4,4.4-1.4l-1.3-2.2c-1,0.8-2.1,1.2-3.2,1.2c-2.2,0-3.7-1.5-3.7-4
		c0-2.3,1.5-3.9,3.7-4c1.2,0,2.2,0.4,3.2,1.2l1.3-2.2c-1.3-1-2.6-1.4-4.4-1.4C135.6,120.4,133,123.1,133,126.9L133,126.9L133,126.9z
		 M158,126.9v-6.2h-2.7v1.5c-0.9-1.2-2.2-1.8-3.9-1.8c-3.5,0-6.2,2.7-6.2,6.5c0,3.7,2.7,6.5,6.2,6.5c1.8,0,3.1-0.6,3.9-1.8v1.5h2.7
		V126.9z M148.1,126.9c0-2.2,1.4-4,3.7-4c2.2,0,3.7,1.7,3.7,4c0,2.2-1.5,4-3.7,4C149.5,130.8,148.1,129.1,148.1,126.9L148.1,126.9z
		 M115.7,120.4c-3.6,0-6.2,2.6-6.2,6.5c0,3.9,2.6,6.5,6.3,6.5c1.8,0,3.6-0.5,5-1.7l-1.3-1.9c-1,0.8-2.3,1.3-3.6,1.3
		c-1.7,0-3.4-0.8-3.7-3h9.2v-1C121.5,123,119.2,120.4,115.7,120.4L115.7,120.4L115.7,120.4z M115.7,122.8c1.7,0,2.8,1,3.1,3h-6.5
		C112.6,124,113.8,122.8,115.7,122.8L115.7,122.8z M183,126.9v-11.1h-2.7v6.5c-0.9-1.2-2.2-1.8-3.9-1.8c-3.5,0-6.2,2.7-6.2,6.5
		c0,3.7,2.7,6.5,6.2,6.5c1.8,0,3.1-0.6,3.9-1.8v1.5h2.7V126.9z M173,126.9c0-2.2,1.4-4,3.7-4c2.2,0,3.7,1.7,3.7,4c0,2.2-1.5,4-3.7,4
		C174.4,130.8,173,129.1,173,126.9L173,126.9z M82.4,126.9v-6.2h-2.7v1.5c-0.9-1.2-2.2-1.8-3.9-1.8c-3.5,0-6.2,2.7-6.2,6.5
		c0,3.7,2.7,6.5,6.2,6.5c1.8,0,3.1-0.6,3.9-1.8v1.5h2.7V126.9z M72.3,126.9c0-2.2,1.4-4,3.7-4c2.2,0,3.7,1.7,3.7,4
		c0,2.2-1.5,4-3.7,4C73.8,130.8,72.3,129.1,72.3,126.9z"/>
	<rect x="94.7" y="26.6" class="st1" width="40.7" height="73.1"/>
	<path class="st2" d="M97.3,63.1c0-14.8,7-28,17.7-36.5c-7.9-6.2-17.8-9.9-28.7-9.9c-25.7,0-46.5,20.8-46.5,46.5
		s20.8,46.5,46.5,46.5c10.8,0,20.8-3.7,28.7-9.9C104.2,91.3,97.3,78,97.3,63.1z"/>
	<path class="st3" d="M190.2,63.1c0,25.7-20.8,46.5-46.5,46.5c-10.8,0-20.8-3.7-28.7-9.9c10.8-8.5,17.7-21.7,17.7-36.5
		s-7-28-17.7-36.5c7.9-6.2,17.8-9.9,28.7-9.9C169.4,16.7,190.2,37.6,190.2,63.1z"/>
</g>
</svg>
