<?xml version="1.0" encoding="utf-8"?>
<!-- Generator: Adobe Illustrator 25.2.0, SVG Export Plug-In . SVG Version: 6.00 Build 0)  -->
<svg version="1.1" id="Camada_1" xmlns="http://www.w3.org/2000/svg" xmlns:xlink="http://www.w3.org/1999/xlink" x="0px" y="0px"
	 width="230px" height="158px" viewBox="0 0 230 158" style="enable-background:new 0 0 230 158;" xml:space="preserve">
<style type="text/css">
	.st0{fill:#004185;}
	.st1{clip-path:url(#SVGID_2_);}
	.st2{fill-rule:evenodd;clip-rule:evenodd;fill:#FFDC00;}
</style>
<path class="st0" d="M210.2,0H19.7C8.9,0,0,8.9,0,19.8v118.5C0,149.1,8.9,158,19.7,158h190.7c10.8,0,19.7-8.9,19.7-19.7V19.8
	C230,8.9,221.1,0,210.2,0z"/>
<g>
	<desc>Created with Sketch.</desc>
</g>
<g>
	<defs>
		<rect id="SVGID_1_" x="17.1" y="57.7" width="40.2" height="37.3"/>
	</defs>
	<clipPath id="SVGID_2_">
		<use xlink:href="#SVGID_1_"  style="overflow:visible;"/>
	</clipPath>
	<g class="st1">
		<path class="st2" d="M45.2,73.5c-1-0.4-2.4-0.9-4.1-1.4c-4.3-1.5-6.4-2.7-6.4-3.7c0-0.7,0.4-1.2,1.1-1.8c0.7-0.4,1.7-0.6,2.8-0.6
			c1.7,0,2.9,0.3,3.9,0.9c0.9,0.6,1.5,1.4,1.7,2.7h12.7c-0.1-1.1-0.4-2.2-0.7-3.2c-0.8-2.1-2.3-3.9-4.5-5.2
			c-3.1-1.9-7.4-2.9-12.8-2.9c-5.4,0-9.6,1-12.6,2.8c-3,1.9-4.5,4.4-4.5,7.8c0,2.4,0.9,4.3,2.7,6c1.8,1.6,5.2,3.3,10.1,5.1
			c0.5,0.2,1.2,0.4,2.1,0.7c3.5,1.2,5.3,2.4,5.3,3.5c0,0.9-0.4,1.7-1.2,2.1c-0.8,0.5-1.9,0.8-3.4,0.8c-2,0-3.6-0.4-4.7-1.1
			C31.5,85.2,31,84.3,31,83v-0.1H17.7c0,3.8,1.7,6.7,5,8.8c3.4,2.1,8.1,3.2,14.1,3.2c5.8,0,10.3-1,13.5-2.9c3.2-2,4.8-4.8,4.8-8.3
			c0-2.2-0.8-4.2-2.4-5.8C51.2,76.2,48.6,74.7,45.2,73.5z"/>
	</g>
</g>
<path class="st2" d="M71.3,80h17.4l1.6-7.8H72.7l0.9-4.8h19.7l1.6-8.4h-33l-5.8,31.1L55.4,94h34.3l1.5-8.5H70.3L71.3,80z"/>
<path class="st2" d="M215.2,59h-15.3l-5.9,7.9c-0.3,0.4-0.5,0.9-0.6,1.2c-0.2,0.4-0.2,0.9-0.2,1.3c0-0.5-0.1-1-0.1-1.4
	c-0.1-0.4-0.2-0.9-0.4-1.2l-4-7.8h-14.1l10.4,16.7l-14.3,16.6l-1.6,1.8h15.8l6.4-8.8c0.2-0.3,0.4-0.6,0.5-1.1
	c0.2-0.4,0.3-0.9,0.3-1.4c0,0.6,0.1,1.1,0.2,1.5c0.1,0.4,0.3,0.8,0.4,1.1l4.9,8.7h14.8L200,76L215.2,59z"/>
<path class="st2" d="M134.4,74.7c0-2-0.3-3.9-0.9-5.6c0-0.1-0.1-0.2-0.1-0.3c-0.7-1.8-1.6-3.3-2.7-4.6c-1.8-1.9-3.9-3.3-6.2-4.1
	c-2.4-0.7-5.7-1.2-9.9-1.2h-17l-4.6,25.2L91.3,94H111c0.9,0,1.8,0,2.6-0.1c6.3-0.4,11.2-2,14.7-4.9c2.5-2,4.2-4.7,5.1-7.8
	C134.1,79.3,134.4,77.1,134.4,74.7z M119.8,79.9c-0.6,1.7-1.5,2.8-2.5,3.6c-0.9,0.6-1.8,1.1-2.9,1.3c-0.2,0.1-0.5,0.1-0.8,0.2
	c-1.1,0.2-2.4,0.3-4.1,0.3h-3.1l3.1-17.8h3.1c0.4,0,0.7,0,1,0.1c2.5,0.1,4.2,0.6,5.4,1.6c1.2,1.1,1.8,3,1.8,5.6
	C120.8,76.6,120.5,78.4,119.8,79.9z"/>
<path class="st2" d="M148.5,80h17.4l1.6-7.8H150l1-4.8h19.6l0.1-0.2l1.6-8.2h-33l-5.7,30.3l-0.9,4.7H167l1.5-8.5h-20.9L148.5,80z"/>
</svg>
