<?xml version="1.0" encoding="utf-8"?>
<!-- Generator: Adobe Illustrator 25.0.1, SVG Export Plug-In . SVG Version: 6.00 Build 0)  -->
<svg version="1.1" id="Camada_1" xmlns="http://www.w3.org/2000/svg" xmlns:xlink="http://www.w3.org/1999/xlink" x="0px" y="0px"
	 width="230px" height="158px" viewBox="0 0 230 158" style="enable-background:new 0 0 230 158;" xml:space="preserve">
<style type="text/css">
	.st0{fill:#FFFFFF;}
	.st1{fill:#005CA8;}
	.st2{fill:#F6A723;}
</style>
<path class="st0" d="M210.2,0H19.7C8.9,0,0,8.9,0,19.8v118.5C0,149.1,8.9,158,19.7,158h190.7c10.8,0,19.7-8.9,19.7-19.7V19.8
	C230,8.9,221.1,0,210.2,0z"/>
<g>
	<desc>Created with Sketch.</desc>
</g>
<g>
	<g>
		<polygon class="st1" points="101.6,110.5 85.2,110.5 95.5,47.5 111.9,47.5 		"/>
		<path class="st1" d="M71.4,47.5L55.8,90.8L54,81.5l0,0l-5.5-28.3c0,0-0.7-5.7-7.8-5.7H14.8l-0.3,1.1c0,0,7.9,1.6,17.2,7.2
			l14.2,54.7H63l26.1-63H71.4z"/>
		<path class="st1" d="M200.4,110.5h15.1l-13.1-63h-13.2c-6.1,0-7.6,4.7-7.6,4.7l-24.5,58.3h17.1l3.4-9.4h20.8L200.4,110.5z
			 M182.4,88.2l8.6-23.6l4.8,23.6H182.4z"/>
		<path class="st1" d="M158.4,62.7l2.3-13.5c0,0-7.2-2.7-14.7-2.7c-8.1,0-27.5,3.6-27.5,20.8c0,16.3,22.7,16.5,22.7,25
			s-20.3,7-27.1,1.6l-2.4,14.1c0,0,7.3,3.6,18.5,3.6c11.2,0,28.1-5.8,28.1-21.6c0-16.4-22.9-17.9-22.9-25
			C135.4,57.9,151.4,58.8,158.4,62.7z"/>
	</g>
	<path class="st2" d="M54,81.5l-5.5-28.3c0,0-0.7-5.7-7.8-5.7H14.8l-0.3,1.1c0,0,12.4,2.6,24.3,12.2C50.3,70,54,81.5,54,81.5z"/>
</g>
</svg>
