<?xml version="1.0" encoding="utf-8"?>
<!-- Generator: Adobe Illustrator 25.0.1, SVG Export Plug-In . SVG Version: 6.00 Build 0)  -->
<svg version="1.1" id="Camada_1" xmlns="http://www.w3.org/2000/svg" xmlns:xlink="http://www.w3.org/1999/xlink" x="0px" y="0px"
	 width="230px" height="158px" viewBox="0 0 230 158" style="enable-background:new 0 0 230 158;" xml:space="preserve">
<style type="text/css">
	.st0{fill:#FFFFFF;}
	.st1{fill:#273896;}
	.st2{fill:#EC1C25;}
</style>
<g>
	<desc>Created with Sketch.</desc>
</g>
<path class="st0" d="M210.2,0H19.7C8.9,0,0,8.9,0,19.8v118.5C0,149.1,8.9,158,19.7,158h190.7c10.8,0,19.7-8.9,19.7-19.7V19.8
	C230,8.9,221.1,0,210.2,0z"/>
<g>
	<path class="st1" d="M180.3,55.4c-0.8,2.8-1.6,5.7-2.4,8.5c2.1-2.1,4.3-4,6.5-6c1.5,2.1,2.8,4.1,4.4,6.2c0.2-2.8,0.3-5.6,0.4-8.4
		c2.6-0.2,5.2-0.3,7.9-0.6c-1.9-1.5-3.9-3-5.8-4.6c1.8-2.3,3.6-4.7,5.5-7c-2.7,0.8-5.2,1.8-7.8,2.7c-0.4-2.7-0.8-5.4-1.1-8.1
		c-1.3,2.7-2.6,5.3-3.9,8c-2.2-1.1-4.6-2.1-6.8-3.2c1,2.4,2,4.8,3,7.3c-2.5,1.4-5,2.8-7.4,4.2C175.2,54.8,177.8,55.1,180.3,55.4z"/>
	<path class="st1" d="M109.6,61.8c-0.7,3.4-1.4,6.9-2,10.4c-5.4-0.2-11.2-0.5-16.2,1.8c-4.3,1.8-7.7,5.5-8.9,10
		c-1.1,3.7-1,8,1.4,11.1c2.4,3,6.2,4.2,9.9,4.4c4.1,0.2,8.6-0.4,12-3c3.2-2.3,5-6.2,5.7-10c1.6-8.4,3.2-16.8,4.8-25.2
		C114,61.5,111.8,61.7,109.6,61.8z M104.4,86.8c-0.4,2.1-1.2,4.3-2.8,5.8c-2,1.9-5,2.3-7.6,2c-1.8-0.2-3.8-1-4.6-2.8
		c-1-2-0.7-4.4-0.2-6.4c0.7-2.9,2.6-5.7,5.3-7.1c3.7-1.9,7.9-1.9,11.9-1.4C105.8,80.1,105.1,83.5,104.4,86.8z"/>
	<path class="st2" d="M177.9,63.9c-5.7,6.7-11.7,13.1-18.3,18.8c-1.4,1.4-2.9,2.5-4.4,3.8c-5,4-10.3,7.6-15.8,10.8l-0.2,0.1
		c7-0.1,13.8-2.6,19.6-6.5c1.8-1.1,3.2-2.6,4.8-3.8C170.3,80.8,175.3,72.7,177.9,63.9z"/>
	<path class="st1" d="M74.3,74.4c-3.3-1.9-7.3-2.2-11-1.8c-5,0.5-9.9,2.8-13.1,6.7c-2.6,3.2-4,7.4-3.6,11.5c0.3,2.9,2.1,5.6,4.6,7
		c3.2,1.9,7.1,2.2,10.7,1.9c5.5-0.5,11-3.2,14.2-7.8c2.1-3.1,3.3-7,2.8-10.8C78.5,78.3,76.7,75.8,74.3,74.4z M71.6,84.3
		c-0.3,2.3-1.1,4.7-2.6,6.5c-2.1,2.7-5.4,4.3-8.8,4.1c-1.8,0-3.8-0.4-5.1-1.8c-0.9-0.9-1.4-2.2-1.4-3.5c-0.2-5.4,3.4-11.1,8.9-12.4
		c2.4-0.6,5.2-0.3,7.1,1.3C71.3,80,71.9,82.3,71.6,84.3z"/>
	<path class="st1" d="M125.1,95.6c-2.7-1.5-4.1-4.8-3.8-7.8c5.5,1,11.3,1.2,16.6-0.8c2.2-0.9,4.4-2.3,5.5-4.5
		c1.2-2.5,0.9-5.9-1.3-7.8c-2.2-1.9-5.2-2.3-8-2.4c-5.3-0.1-10.8,1.4-14.7,5.2c-3,2.8-4.8,6.8-5,10.9c-0.2,2.6,0.4,5.2,2.1,7.2
		c2,2.6,5.2,4.1,8.4,4.6c4.9,0.8,10.1,0,14.2-2.8l0.2-0.1C134.6,97.8,129.5,97.9,125.1,95.6z M128.1,77.6c2.2-1,4.9-1.4,7.3-0.8
		c1.1,0.3,2.2,1.2,2.2,2.5c0.3,2-1.5,3.5-3.2,4.1c-3.9,1.3-8.2,1-12.1,0.3C123.5,81.1,125.5,78.8,128.1,77.6z"/>
	<path class="st1" d="M207.5,80.8c-0.5-3.1-2.7-5.7-5.5-7c-3.5-1.7-7.6-1.8-11.4-1.2c-5.6,0.8-10.9,4-13.7,8.9
		c-1.8,3.1-2.7,6.9-2,10.4c0.6,2.9,2.7,5.4,5.4,6.6c3.5,1.6,7.5,1.8,11.2,1.3c5.3-0.8,10.6-3.6,13.5-8.2
		C207.1,88.5,208.2,84.5,207.5,80.8z M193.2,94.4c-2.5,1-5.4,1.2-7.9,0.2c-1.7-0.7-3-2.4-3.1-4.3c-0.5-5.7,3.3-11.8,9.1-13.1
		c2.3-0.5,4.9-0.4,6.8,1c1.5,1.1,2.3,3,2.3,4.8C200.4,87.8,197.7,92.6,193.2,94.4z"/>
	<path class="st1" d="M31.5,77.6c4.7-1.1,9.5-0.8,14.3-0.4c0.4-1.3,0.9-2.5,1.4-3.8c-3.3-0.6-6.6-0.8-9.9-0.8c-3,0-6,0.3-8.9,1.1
		c-2.1,0.6-4,1.5-5.7,2.9c-1.9,1.7-2.8,4.6-1.8,7c0.5,1.4,1.8,2.3,3.2,2.8c3.1,1.2,6.5,0.9,9.7,1.9c1.2,0.3,2.4,1.5,2.1,2.8
		c-0.3,2.1-2.5,3.1-4.4,3.5c-5,1-10.2,0.3-15.2-0.4c-0.3,1.3-0.7,2.7-1,4c5.8,1.5,12,2,18,1c2.9-0.5,5.9-1.5,8-3.7
		c1.8-1.9,2.5-4.7,2.1-7.3c-0.3-1.6-1.5-2.9-3-3.6c-3.2-1.5-6.8-1.4-10.1-2.3c-1.1-0.3-2.2-1-2.2-2.3C28.2,78.6,30,78,31.5,77.6z"/>
	<path class="st1" d="M159.7,82.5c-2.8-3.1-5.6-6.4-8.1-9.8c-2.1,0-4.1,0-6.2,0c3,4.8,6.2,9.4,9.8,13.7c1.5-1.2,3-2.4,4.4-3.8
		L159.7,82.5z"/>
	<path class="st1" d="M158.8,90.9c2,2.5,4.2,4.8,6.5,7.1c0.6,0.6,1.1,1.2,1.8,1.7c2.7,0.1,5.5,0,8.3,0c-4-4.2-7.9-8.4-11.8-12.7
		C162.1,88.3,160.6,89.8,158.8,90.9z"/>
</g>
</svg>
