<?xml version="1.0" encoding="utf-8"?>
<!-- Generator: Adobe Illustrator 25.0.1, SVG Export Plug-In . SVG Version: 6.00 Build 0)  -->
<svg version="1.1" id="Camada_1" xmlns="http://www.w3.org/2000/svg" xmlns:xlink="http://www.w3.org/1999/xlink" x="0px" y="0px"
	 width="230px" height="158px" viewBox="0 0 230 158" style="enable-background:new 0 0 230 158;" xml:space="preserve">
<style type="text/css">
	.st0{fill:#FFFFFF;}
	.st1{fill:#939598;}
	.st2{fill:#32BCAD;}
</style>
<path class="st0" d="M210.1,0H19.7C8.9,0,0,8.9,0,19.8v118.5C0,149.1,8.9,158,19.7,158h190.7c10.8,0,19.7-8.9,19.7-19.7V19.8
	C230,8.9,221.1,0,210.1,0z"/>
<g>
	<desc>Created with Sketch.</desc>
</g>
<g>
	<g>
		<path class="st1" d="M98.7,103.7c-0.6,0-1.1-0.5-1.1-1.1V66.9c0-7.2,5.8-13,13-13l10.5,0c7.1,0,13,5.8,13,13v7.6
			c0,7.2-5.8,13-13,13h-14.9c-0.6,0-1.1-0.5-1.1-1.1s0.5-1.1,1.1-1.1h14.9c6,0,10.8-4.8,10.8-10.8v-7.6c0-5.9-4.8-10.8-10.8-10.8
			l-10.5,0c-6,0-10.8,4.8-10.8,10.8v35.7C99.8,103.2,99.3,103.7,98.7,103.7z M145.4,87.6c-0.6,0-1.1-0.5-1.1-1.1V59.9
			c0-2.1-1.7-3.8-3.8-3.8H136c-0.6,0-1.1-0.5-1.1-1.1c0-0.6,0.5-1.1,1.1-1.1h4.6c3.3,0,6,2.7,6,6v26.7
			C146.5,87.2,146,87.6,145.4,87.6z"/>
	</g>
	<g>
		<path class="st2" d="M144.4,50.9l-2.1-2.1c-0.5-0.5-0.5-1.3,0-1.9l2.1-2.1c0.5-0.5,1.4-0.5,1.9,0l2.1,2.1c0.5,0.5,0.5,1.3,0,1.9
			l-2.1,2.1C145.8,51.4,145,51.4,144.4,50.9L144.4,50.9z"/>
	</g>
	<g>
		<path class="st1" d="M158.7,87.4h-4.5c-0.6,0-1.1-0.5-1.1-1.1s0.5-1.1,1.1-1.1h4.5c2.1,0,4-0.8,5.4-2.3l10.6-10.6
			c1.8-1.8,4.7-1.8,6.5,0l10.6,10.6c1.5,1.5,3.4,2.3,5.4,2.3h3.7c0.6,0,1.1,0.5,1.1,1.1c0,0.6-0.5,1.1-1.1,1.1h-3.7
			c-2.6,0-5.1-1-7-2.9l-10.6-10.6c-0.9-0.9-2.5-0.9-3.4,0l-10.6,10.6C163.9,86.4,161.4,87.4,158.7,87.4z M178,70.3
			c-1.2,0-2.4-0.5-3.3-1.4l-10.6-10.6c-1.5-1.5-3.4-2.3-5.4-2.3h-4.5c-0.6,0-1.1-0.5-1.1-1.1c0-0.6,0.5-1.1,1.1-1.1h4.5
			c2.6,0,5.1,1,7,2.9l10.6,10.6c0.5,0.5,1.1,0.7,1.7,0.7c0.6,0,1.3-0.3,1.7-0.7l10.6-10.6c1.9-1.9,4.4-2.9,7-2.9h3.7
			c0.6,0,1.1,0.5,1.1,1.1s-0.5,1.1-1.1,1.1h-3.7c-2.1,0-4,0.8-5.4,2.3l-10.6,10.6C180.4,69.8,179.3,70.3,178,70.3z"/>
	</g>
	<g>
		<path class="st2" d="M71.7,93.1c-2.3,0-4.4-0.9-6-2.5L57,81.9c-0.6-0.6-1.7-0.6-2.3,0l-8.7,8.7c-1.6,1.6-3.8,2.5-6,2.5h-1.7l11,11
			c3.4,3.4,9,3.4,12.5,0l11.1-11.1H71.7L71.7,93.1z"/>
	</g>
	<g>
		<path class="st2" d="M39.9,62.3c2.3,0,4.4,0.9,6,2.5l8.7,8.7c0.6,0.6,1.7,0.6,2.3,0l8.7-8.7c1.6-1.6,3.8-2.5,6-2.5h1L61.7,51.3
			c-3.4-3.4-9-3.4-12.5,0l-11,11H39.9L39.9,62.3z"/>
	</g>
	<g>
		<path class="st2" d="M81.9,71.5l-6.7-6.7c-0.1,0.1-0.3,0.1-0.5,0.1h-3c-1.6,0-3.1,0.6-4.2,1.7l-8.7,8.7c-0.8,0.8-1.9,1.2-3,1.2
			c-1.1,0-2.1-0.4-3-1.2l-8.7-8.7c-1.1-1.1-2.6-1.7-4.2-1.7h-3.7c-0.2,0-0.3,0-0.4-0.1L29,71.5c-3.4,3.4-3.4,9,0,12.5l6.7,6.7
			c0.1-0.1,0.3-0.1,0.4-0.1l3.7,0c1.6,0,3.1-0.6,4.2-1.7l8.7-8.7c1.6-1.6,4.3-1.6,5.9,0l8.7,8.7c1.1,1.1,2.6,1.7,4.2,1.7h3
			c0.2,0,0.3,0,0.5,0.1l6.7-6.7C85.3,80.5,85.3,74.9,81.9,71.5L81.9,71.5z"/>
	</g>
	<g>
		<path class="st1" d="M107.8,99.6c-0.5,0-1.1,0.1-1.6,0.2v2.2c0.4,0.1,0.8,0.2,1.3,0.2c1.1,0,1.6-0.4,1.6-1.3
			C109,100,108.6,99.6,107.8,99.6L107.8,99.6L107.8,99.6z M105.8,103.6v-4.3h0.3l0,0.2c0.5-0.1,1.2-0.3,1.7-0.3
			c0.4,0,0.8,0.1,1.1,0.3c0.4,0.3,0.5,0.8,0.5,1.3c0,0.6-0.2,1.1-0.7,1.4c-0.4,0.2-0.8,0.3-1.3,0.3c-0.4,0-0.9-0.1-1.3-0.2v1.3
			H105.8L105.8,103.6z"/>
	</g>
	<g>
		<path class="st1" d="M112.2,99.5c-1.1,0-1.6,0.3-1.6,1.3c0,0.9,0.5,1.3,1.6,1.3c1.1,0,1.6-0.3,1.6-1.3
			C113.7,100,113.3,99.5,112.2,99.5L112.2,99.5L112.2,99.5z M113.6,102.2c-0.4,0.3-0.8,0.3-1.4,0.3c-0.6,0-1.1-0.1-1.4-0.3
			c-0.4-0.3-0.6-0.7-0.6-1.3c0-0.6,0.2-1,0.6-1.3c0.4-0.3,0.8-0.3,1.4-0.3c0.6,0,1,0.1,1.4,0.3c0.4,0.3,0.6,0.8,0.6,1.3
			C114.1,101.5,114,101.9,113.6,102.2L113.6,102.2L113.6,102.2z M113.6,102.2L113.6,102.2L113.6,102.2L113.6,102.2z"/>
	</g>
	<g>
		<polygon class="st1" points="118.7,102.4 117.5,99.8 117.5,99.8 116.3,102.4 116,102.4 114.7,99.3 115.1,99.3 116.2,101.9 
			116.2,101.9 117.4,99.3 117.7,99.3 118.9,101.9 118.9,101.9 120,99.3 120.4,99.3 119.1,102.4 118.7,102.4 		"/>
	</g>
	<g>
		<path class="st1" d="M122.7,99.5c-1,0-1.4,0.4-1.4,1.1h2.8C124.1,99.9,123.7,99.5,122.7,99.5L122.7,99.5L122.7,99.5z M122.7,102.5
			c-0.6,0-1-0.1-1.3-0.3c-0.4-0.3-0.5-0.8-0.5-1.3c0-0.5,0.2-1,0.6-1.3c0.3-0.2,0.8-0.3,1.2-0.3c0.4,0,0.9,0,1.3,0.3
			c0.5,0.3,0.5,0.8,0.5,1.5h-3.2c0,0.6,0.2,1.2,1.4,1.2c0.6,0,1.1-0.1,1.6-0.2v0.3C123.8,102.4,123.3,102.5,122.7,102.5L122.7,102.5
			z"/>
	</g>
	<g>
		<path class="st1" d="M125.6,102.4v-3.1h0.3l0,0.2c0.7-0.2,1-0.3,1.6-0.3h0v0.3h-0.1c-0.5,0-0.8,0.1-1.5,0.2v2.6H125.6L125.6,102.4
			z"/>
	</g>
	<g>
		<path class="st1" d="M129.7,99.5c-1,0-1.4,0.4-1.4,1.1h2.8C131,99.9,130.7,99.5,129.7,99.5L129.7,99.5L129.7,99.5z M129.6,102.5
			c-0.6,0-1-0.1-1.3-0.3c-0.4-0.3-0.5-0.8-0.5-1.3c0-0.5,0.2-1,0.6-1.3c0.3-0.2,0.8-0.3,1.2-0.3c0.4,0,0.9,0,1.3,0.3
			c0.5,0.3,0.5,0.8,0.5,1.5h-3.2c0,0.6,0.2,1.2,1.4,1.2c0.6,0,1.1-0.1,1.6-0.2v0.3C130.8,102.4,130.2,102.5,129.6,102.5L129.6,102.5
			z"/>
	</g>
	<g>
		<path class="st1" d="M135.5,99.8c-0.4-0.1-0.8-0.2-1.3-0.2c-1.1,0-1.6,0.4-1.6,1.3c0,0.9,0.4,1.3,1.2,1.3c0.5,0,1.1-0.1,1.6-0.2
			V99.8L135.5,99.8z M135.6,102.4l0-0.2c-0.5,0.1-1.2,0.3-1.7,0.3c-0.4,0-0.8-0.1-1.1-0.3c-0.4-0.3-0.5-0.8-0.5-1.3
			c0-0.6,0.2-1.1,0.7-1.4c0.4-0.2,0.8-0.3,1.3-0.3c0.4,0,0.9,0.1,1.3,0.2V98h0.4v4.5H135.6L135.6,102.4z"/>
	</g>
	<g>
		<path class="st1" d="M141.2,99.6c-0.5,0-1.1,0.1-1.6,0.2v2.2c0.4,0.1,0.8,0.2,1.3,0.2c1.1,0,1.6-0.4,1.6-1.3
			C142.5,100,142.1,99.6,141.2,99.6L141.2,99.6L141.2,99.6z M142.2,102.3c-0.4,0.2-0.8,0.3-1.3,0.3c-0.5,0-0.9-0.1-1.4-0.2l0,0.2
			h-0.2V98h0.4v1.5c0.5-0.1,1.2-0.3,1.7-0.3c0.4,0,0.8,0.1,1.1,0.3c0.4,0.3,0.5,0.8,0.5,1.3C142.9,101.4,142.7,102,142.2,102.3
			L142.2,102.3z"/>
	</g>
	<g>
		<path class="st1" d="M143.4,103.7v-0.3c0.2,0,0.3,0,0.5,0c0.5,0,0.7-0.1,1-0.6l0.1-0.2l-1.6-3.1h0.4l1.4,2.7h0l1.3-2.7l0.4,0
			l-1.8,3.5c-0.3,0.6-0.7,0.9-1.3,0.9C143.7,103.7,143.5,103.7,143.4,103.7L143.4,103.7z"/>
	</g>
	<g>
		<path class="st1" d="M152,100.7h-1.2v1.1h1.2c0.8,0,1.2-0.1,1.2-0.6C153.2,100.7,152.7,100.7,152,100.7L152,100.7L152,100.7z
			 M151.8,98.9h-1v1.1h1c0.8,0,1.2-0.1,1.2-0.6C152.9,98.9,152.5,98.9,151.8,98.9L151.8,98.9L151.8,98.9z M153.7,102.2
			c-0.4,0.3-1,0.3-2,0.3h-1.9v-4.3h1.8c0.9,0,1.4,0,1.8,0.3c0.3,0.2,0.4,0.5,0.4,0.8c0,0.4-0.2,0.7-0.7,0.9v0c0.5,0.1,0.9,0.4,0.9,1
			C154.1,101.7,154,102,153.7,102.2L153.7,102.2z"/>
	</g>
	<g>
		<path class="st1" d="M157.8,101.1c-0.4,0-0.7,0-1.1,0c-0.6,0-0.9,0.1-0.9,0.4c0,0.3,0.2,0.4,0.7,0.4c0.4,0,0.9-0.1,1.3-0.2V101.1
			L157.8,101.1z M158,102.4l0-0.2c-0.5,0.1-1.2,0.3-1.7,0.3c-0.3,0-0.7,0-1-0.2c-0.2-0.2-0.3-0.4-0.3-0.8c0-0.4,0.2-0.7,0.5-0.9
			c0.3-0.2,0.8-0.2,1.2-0.2c0.3,0,0.8,0,1.1,0v-0.1c0-0.5-0.3-0.7-1.2-0.7c-0.3,0-0.8,0-1.2,0.1v-0.6c0.4,0,0.9-0.1,1.4-0.1
			c0.5,0,1.1,0,1.5,0.3c0.4,0.3,0.4,0.6,0.4,1.1v1.9L158,102.4L158,102.4z"/>
	</g>
	<g>
		<path class="st1" d="M162.8,102.4v-1.7c0-0.6-0.3-0.8-0.8-0.8c-0.4,0-0.9,0.1-1.3,0.2l0,2.3h-0.9v-3.1h0.7l0,0.2
			c0.6-0.1,1.2-0.3,1.7-0.3c0.4,0,0.8,0.1,1.1,0.3c0.2,0.2,0.3,0.5,0.3,1v1.9H162.8L162.8,102.4z"/>
	</g>
	<g>
		<path class="st1" d="M166.2,102.5c-0.4,0-0.8-0.1-1.2-0.3c-0.4-0.3-0.5-0.8-0.5-1.3c0-0.5,0.2-1,0.6-1.3c0.4-0.3,0.9-0.3,1.4-0.3
			c0.4,0,0.7,0,1.1,0.1v0.7c-0.3,0-0.7-0.1-1-0.1c-0.8,0-1.2,0.3-1.2,1c0,0.7,0.3,1,1,1c0.4,0,0.9-0.1,1.3-0.2v0.6
			C167.2,102.4,166.7,102.5,166.2,102.5L166.2,102.5z"/>
	</g>
	<g>
		<path class="st1" d="M170.3,99.9c-0.8,0-1.2,0.3-1.2,1c0,0.7,0.4,1,1.2,1c0.8,0,1.2-0.3,1.2-1C171.5,100.2,171.2,99.9,170.3,99.9
			L170.3,99.9L170.3,99.9z M171.8,102.2c-0.4,0.3-0.9,0.3-1.5,0.3c-0.6,0-1.1-0.1-1.5-0.3c-0.4-0.3-0.6-0.8-0.6-1.3
			c0-0.6,0.2-1,0.6-1.3c0.4-0.3,0.9-0.3,1.5-0.3c0.6,0,1.1,0.1,1.5,0.3c0.4,0.3,0.6,0.8,0.6,1.3
			C172.4,101.4,172.3,101.9,171.8,102.2L171.8,102.2L171.8,102.2z M171.8,102.2L171.8,102.2L171.8,102.2L171.8,102.2z"/>
	</g>
	<g>
		<path class="st1" d="M177.5,102.5c-0.5,0-1.1-0.1-1.5-0.4c-0.5-0.4-0.7-1.1-0.7-1.8c0-0.6,0.2-1.4,0.9-1.8
			c0.5-0.3,1.2-0.4,1.8-0.4c0.5,0,1,0,1.5,0.1v0.8c-0.5,0-1-0.1-1.5-0.1c-1.2,0-1.7,0.5-1.7,1.4c0,1,0.5,1.5,1.4,1.5
			c0.6,0,1.2-0.1,1.9-0.3l0,0.8C178.9,102.4,178.2,102.5,177.5,102.5L177.5,102.5z"/>
	</g>
	<g>
		<path class="st1" d="M182.1,99.8c-0.7,0-1,0.3-1.1,0.7h2.1C183.2,100,182.9,99.8,182.1,99.8L182.1,99.8L182.1,99.8z M182,102.5
			c-0.5,0-1-0.1-1.3-0.3c-0.4-0.3-0.5-0.8-0.5-1.3c0-0.5,0.2-1,0.6-1.3c0.4-0.3,0.9-0.3,1.4-0.3c0.4,0,1,0,1.4,0.3
			c0.5,0.4,0.5,0.9,0.6,1.6l-3,0c0,0.5,0.3,0.8,1.2,0.8c0.5,0,1.2-0.1,1.7-0.2l0,0.6C183.3,102.4,182.6,102.5,182,102.5L182,102.5z"
			/>
	</g>
	<g>
		<path class="st1" d="M188,102.4v-1.7c0-0.6-0.3-0.8-0.8-0.8c-0.4,0-0.9,0.1-1.3,0.2l0,2.3H185v-3.1h0.7l0,0.2
			c0.6-0.1,1.2-0.3,1.7-0.3c0.4,0,0.8,0.1,1.1,0.3c0.2,0.2,0.3,0.5,0.3,1v1.9H188L188,102.4z"/>
	</g>
	<g>
		<path class="st1" d="M191.3,102.5c-0.4,0-0.8-0.1-1-0.4c-0.2-0.2-0.2-0.5-0.2-1V100h-0.6v-0.7h0.6l0.1-1h0.8v1h1.2v0.7H191v1
			c0,0.2,0,0.4,0.1,0.6c0.1,0.2,0.3,0.3,0.6,0.3c0.2,0,0.5,0,0.6-0.1v0.6C192,102.5,191.6,102.5,191.3,102.5L191.3,102.5z"/>
	</g>
	<g>
		<path class="st1" d="M193.1,102.4v-3.1h0.7l0,0.2c0.6-0.2,1-0.3,1.6-0.3c0,0,0.1,0,0.1,0v0.7c-0.1,0-0.2,0-0.3,0
			c-0.4,0-0.8,0-1.2,0.2v2.3H193.1L193.1,102.4z"/>
	</g>
	<g>
		<path class="st1" d="M198.7,101.1c-0.4,0-0.7,0-1.1,0c-0.6,0-0.9,0.1-0.9,0.4c0,0.3,0.2,0.4,0.7,0.4c0.4,0,0.9-0.1,1.3-0.2V101.1
			L198.7,101.1z M198.9,102.4l0-0.2c-0.5,0.1-1.2,0.3-1.7,0.3c-0.3,0-0.7,0-1-0.2c-0.2-0.2-0.3-0.4-0.3-0.8c0-0.4,0.2-0.7,0.5-0.9
			c0.3-0.2,0.8-0.2,1.2-0.2c0.3,0,0.8,0,1.1,0v-0.1c0-0.5-0.3-0.7-1.2-0.7c-0.3,0-0.8,0-1.2,0.1v-0.6c0.4,0,0.9-0.1,1.4-0.1
			c0.5,0,1.1,0,1.5,0.3c0.4,0.3,0.4,0.6,0.4,1.1v1.9L198.9,102.4L198.9,102.4z"/>
	</g>
	<g>
		<polygon class="st1" points="200.7,98 201.6,98 201.6,102.4 200.7,102.4 200.7,98 		"/>
	</g>
</g>
</svg>
