<?xml version="1.0" encoding="utf-8"?>
<!-- Generator: Adobe Illustrator 25.2.0, SVG Export Plug-In . SVG Version: 6.00 Build 0)  -->
<svg version="1.1" id="Camada_1" xmlns="http://www.w3.org/2000/svg" xmlns:xlink="http://www.w3.org/1999/xlink" x="0px" y="0px"
	 width="230px" height="158px" viewBox="0 0 230 158" style="enable-background:new 0 0 230 158;" xml:space="preserve">
<style type="text/css">
	.st0{fill:#004185;}
	.st1{fill:#FFFFFF;}
</style>
<path class="st0" d="M210.2,0H19.7C8.9,0,0,8.9,0,19.8v118.5C0,149.1,8.9,158,19.7,158h190.7c10.8,0,19.7-8.9,19.7-19.7V19.8
	C230,8.9,221.1,0,210.2,0z"/>
<g>
	<desc>Created with Sketch.</desc>
</g>
<path class="st1" d="M135.7,103.9c-0.2,0-0.5,0-0.7,0c-4.2,0-8.4-0.1-12.7-0.1c-1,0-1.1,0-1.2-1c-0.4-3.2-0.7-6.3-1.1-9.5
	c0-0.3-0.1-0.5-0.1-0.8c-0.2,0-0.4,0-0.6,0c-6.4,0-12.8,0-19.2,0c-0.4,0-0.6,0.1-0.8,0.5c-0.8,1.5-1.7,2.9-2.5,4.4
	c-1.2,2.1-2.4,4.1-3.6,6.1c-0.1,0.2-0.4,0.3-0.6,0.3c-4.6,0-9.3,0-13.9,0c-0.1,0-0.3,0-0.5-0.1c0.1-0.2,0.2-0.4,0.3-0.5
	c10.9-18.1,21.8-36.3,32.7-54.4c0.3-0.4,0.5-0.6,1-0.6c1.8,0,3.7,0,5.5,0c3.3,0,6.6,0.1,9.9,0.1c0.3,0,0.5,0.1,0.5,0.4
	c1.2,8.4,2.3,16.8,3.5,25.1c0.6,4.5,1.3,9,1.9,13.5c0.7,5.4,1.4,10.8,2.2,16.3C135.7,103.7,135.7,103.7,135.7,103.9z M105.3,82.4
	c0.2,0,0.3,0,0.4,0c4.3,0,8.5,0,12.8,0c0.4,0,0.5-0.2,0.5-0.6c-0.2-1.3-0.3-2.6-0.4-3.9c-0.5-4.5-1-9-1.5-13.5
	c-0.1-0.6-0.2-1.3-0.2-1.9c0,0-0.1,0-0.1,0C112.9,69.2,109.1,75.8,105.3,82.4z"/>
<path class="st1" d="M27.8,103.6c0.1-0.3,0.1-0.6,0.1-0.8c4.2-18.1,8.4-36.2,12.6-54.3c0.1-0.4,0.2-0.5,0.6-0.5c1.8,0,3.6,0,5.4,0
	c5,0,10,0,15,0.1c3.7,0,7.5,0.3,11.1,1.3c1.9,0.5,3.7,1.3,5.3,2.5c2.7,2,4.4,4.6,4.9,7.9c0.7,4.3,0.3,8.5-1.7,12.4
	c-1.6,3.2-4.1,5.7-7,7.7c-3.5,2.4-7.3,3.8-11.4,4.5c-1.6,0.3-3.1,0.6-4.7,0.7c-2.3,0.2-4.5,0.2-6.8,0.2c-1.4,0-2.9,0-4.3,0
	c-0.5,0-0.6,0.2-0.7,0.6c-1.3,5.6-2.6,11.3-3.9,16.9c-0.1,0.5-0.3,0.7-0.8,0.7c-4.3,0-8.6,0-13,0C28.3,103.7,28.1,103.7,27.8,103.6z
	 M48.8,75.1c0.2,0,0.2,0,0.3,0c2.1,0,4.2,0.1,6.3,0.1c1.9,0,3.8-0.4,5.7-1c4.6-1.6,7-5.1,6.7-9.9c-0.1-2.1-1.1-3.6-3-4.6
	c-1.3-0.6-2.6-1-4-1.1c-2.5-0.1-5.1-0.1-7.6-0.1c-0.4,0-0.6,0.2-0.7,0.6c-1.1,4.6-2.1,9.2-3.2,13.8C49.1,73.6,48.9,74.3,48.8,75.1z"
	/>
<path class="st1" d="M192,87c-0.3,1.2-0.6,2.4-0.9,3.5c-0.7,3-1.5,6.1-2.2,9.1c-0.1,0.4-0.3,0.7-0.7,0.8c-2.9,1.2-5.8,2.4-8.8,3.3
	c-4.1,1.1-8.3,1.4-12.6,1.2c-3.1-0.2-6.2-0.6-9.1-1.8c-7-2.7-10.9-7.9-12-15.3c-0.1-1-0.3-2-0.3-3c-0.1-10,2.5-19.1,9.3-26.7
	c4.2-4.6,9.4-7.7,15.3-9.5c4.5-1.4,9.2-1.7,13.9-1.3c1.7,0.1,3.5,0.3,5.2,0.7c3.6,0.8,7.1,1.8,10.4,3.7c0.3,0.2,0.4,0.4,0.3,0.8
	c-1,4.2-2,8.3-3,12.5c-0.1,0.4-0.3,0.6-0.7,0.5c-0.2,0-0.3,0-0.5,0c-0.4,0-0.7-0.1-1-0.5c-2.6-2.7-5.4-5.1-9.1-6.2
	c-5.2-1.5-10.3-1.2-15,1.7c-3.1,1.9-5.4,4.7-7.1,7.9c-1.8,3.3-2.6,7-2.9,10.7c-0.1,1.7-0.2,3.3-0.1,5c0.2,2.3,0.7,4.6,2.2,6.5
	c1.5,2,3.6,3.1,6.1,3.5c4.6,0.8,8.9,0.1,13.1-1.8c2.8-1.3,5.4-2.9,7.9-4.8C190.6,86.9,191.2,86.9,192,87z"/>
<path class="st0" d="M105.3,82.4c3.8-6.6,7.6-13.2,11.4-19.8c0,0,0.1,0,0.1,0c0.1,0.6,0.2,1.3,0.2,1.9c0.5,4.5,1,9,1.5,13.5
	c0.1,1.3,0.3,2.6,0.4,3.9c0,0.4,0,0.6-0.5,0.6c-4.3,0-8.5,0-12.8,0C105.7,82.5,105.5,82.5,105.3,82.4z"/>
<path class="st0" d="M48.8,75.1c0.2-0.7,0.3-1.4,0.5-2.1c1.1-4.6,2.2-9.2,3.2-13.8c0.1-0.4,0.2-0.6,0.7-0.6c2.5,0.1,5.1,0,7.6,0.1
	c1.4,0.1,2.8,0.4,4,1.1c1.9,1,2.9,2.5,3,4.6c0.3,4.8-2.1,8.2-6.7,9.9c-1.8,0.6-3.7,1-5.7,1c-2.1,0-4.2,0-6.3-0.1
	C49,75.1,48.9,75.1,48.8,75.1z"/>
</svg>
