<?xml version="1.0" encoding="utf-8"?>
<!-- Generator: Adobe Illustrator 25.0.1, SVG Export Plug-In . SVG Version: 6.00 Build 0)  -->
<svg version="1.1" id="Camada_1" xmlns="http://www.w3.org/2000/svg" xmlns:xlink="http://www.w3.org/1999/xlink" x="0px" y="0px"
	 width="230px" height="158px" viewBox="0 0 230 158" style="enable-background:new 0 0 230 158;" xml:space="preserve">
<style type="text/css">
	.st0{fill:#FFFFFF;}
	.st1{fill:#009245;}
	.st2{fill:#39B54A;}
	.st3{fill:#CEEF95;}
</style>
<path class="st0" d="M210.2,0H19.7C8.9,0,0,8.9,0,19.8v118.5C0,149.1,8.9,158,19.7,158h190.7c10.8,0,19.7-8.9,19.7-19.7V19.8
	C230,8.9,221.1,0,210.2,0z"/>
<g>
	<desc>Created with Sketch.</desc>
</g>
<rect x="76" y="6" transform="matrix(0.304 -0.9527 0.9527 0.304 3.2579 165.7633)" class="st1" width="78.1" height="149.4"/>
<g>
	<rect x="40.4" y="41.6" class="st2" width="149.4" height="78.1"/>
	<path class="st3" d="M150.7,49.8H79.5c0,17-13.8,30.8-30.8,30.8v0c17,0,30.8,13.8,30.8,30.8h71.2c0-17,13.8-30.8,30.8-30.8v0
		C164.5,80.7,150.7,66.8,150.7,49.8z"/>
	<path class="st2" d="M138.5,75.8c-0.3-1.5-0.8-3-1.4-4.5c-0.6-1.4-1.3-2.8-2.2-4.1c-0.9-1.3-1.8-2.5-2.9-3.5
		c-1.1-1.1-2.3-2.1-3.5-2.9c-1.3-0.9-2.6-1.6-4.1-2.2c-1.4-0.6-3-1.1-4.5-1.4c-1.6-0.3-3.2-0.5-4.8-0.5s-3.2,0.2-4.8,0.5
		c-1.5,0.3-3,0.8-4.5,1.4c-1.4,0.6-2.8,1.3-4.1,2.2c-1.3,0.9-2.5,1.8-3.5,2.9c-1.1,1.1-2.1,2.3-2.9,3.5c-0.9,1.3-1.6,2.6-2.2,4.1
		c-0.6,1.4-1.1,3-1.4,4.5c-0.3,1.6-0.5,3.2-0.5,4.8c0,1.6,0.2,3.2,0.5,4.8c0.3,1.5,0.8,3,1.4,4.5c0.6,1.4,1.3,2.8,2.2,4.1
		c0.9,1.3,1.8,2.5,2.9,3.5c1.1,1.1,2.3,2.1,3.5,2.9c1.3,0.9,2.6,1.6,4.1,2.2c1.4,0.6,3,1.1,4.5,1.4c1.6,0.3,3.2,0.5,4.8,0.5
		s3.2-0.2,4.8-0.5c1.5-0.3,3-0.8,4.5-1.4c1.4-0.6,2.8-1.3,4.1-2.2c1.3-0.9,2.5-1.8,3.5-2.9s2.1-2.3,2.9-3.5c0.9-1.3,1.6-2.6,2.2-4.1
		c0.6-1.4,1.1-3,1.4-4.5c0.3-1.6,0.5-3.2,0.5-4.8C139,79,138.8,77.4,138.5,75.8z"/>
	<path class="st2" d="M77.2,79.2c-0.1-0.5-0.2-0.9-0.4-1.4c-0.2-0.4-0.4-0.8-0.7-1.2c-0.3-0.4-0.6-0.7-0.9-1.1
		c-0.3-0.3-0.7-0.6-1.1-0.9c-0.4-0.3-0.8-0.5-1.2-0.7c-0.4-0.2-0.9-0.3-1.4-0.4c-0.5-0.1-1-0.1-1.5-0.1s-1,0-1.5,0.1
		c-0.5,0.1-0.9,0.2-1.4,0.4c-0.4,0.2-0.8,0.4-1.2,0.7c-0.4,0.3-0.7,0.6-1.1,0.9c-0.3,0.3-0.6,0.7-0.9,1.1c-0.3,0.4-0.5,0.8-0.7,1.2
		c-0.2,0.4-0.3,0.9-0.4,1.4c-0.1,0.5-0.1,1-0.1,1.5c0,0.5,0,1,0.1,1.5c0.1,0.5,0.2,0.9,0.4,1.4c0.2,0.4,0.4,0.8,0.7,1.2
		c0.3,0.4,0.6,0.7,0.9,1.1c0.3,0.3,0.7,0.6,1.1,0.9c0.4,0.3,0.8,0.5,1.2,0.7c0.4,0.2,0.9,0.3,1.4,0.4c0.5,0.1,1,0.1,1.5,0.1
		s1,0,1.5-0.1c0.5-0.1,0.9-0.2,1.4-0.4c0.4-0.2,0.8-0.4,1.2-0.7c0.4-0.3,0.7-0.6,1.1-0.9c0.3-0.3,0.6-0.7,0.9-1.1
		c0.3-0.4,0.5-0.8,0.7-1.2c0.2-0.4,0.3-0.9,0.4-1.4c0.1-0.5,0.1-1,0.1-1.5C77.3,80.2,77.3,79.7,77.2,79.2z"/>
	<path class="st2" d="M167.2,79.2c-0.1-0.5-0.2-0.9-0.4-1.4c-0.2-0.4-0.4-0.8-0.7-1.2c-0.3-0.4-0.6-0.7-0.9-1.1
		c-0.3-0.3-0.7-0.6-1.1-0.9c-0.4-0.3-0.8-0.5-1.2-0.7c-0.4-0.2-0.9-0.3-1.4-0.4c-0.5-0.1-1-0.1-1.5-0.1c-0.5,0-1,0-1.5,0.1
		c-0.5,0.1-0.9,0.2-1.4,0.4c-0.4,0.2-0.8,0.4-1.2,0.7c-0.4,0.3-0.7,0.6-1.1,0.9s-0.6,0.7-0.9,1.1c-0.3,0.4-0.5,0.8-0.7,1.2
		c-0.2,0.4-0.3,0.9-0.4,1.4c-0.1,0.5-0.1,1-0.1,1.5c0,0.5,0,1,0.1,1.5c0.1,0.5,0.2,0.9,0.4,1.4c0.2,0.4,0.4,0.8,0.7,1.2
		c0.3,0.4,0.6,0.7,0.9,1.1c0.3,0.3,0.7,0.6,1.1,0.9c0.4,0.3,0.8,0.5,1.2,0.7c0.4,0.2,0.9,0.3,1.4,0.4c0.5,0.1,1,0.1,1.5,0.1
		c0.5,0,1,0,1.5-0.1c0.5-0.1,0.9-0.2,1.4-0.4c0.4-0.2,0.8-0.4,1.2-0.7c0.4-0.3,0.7-0.6,1.1-0.9c0.3-0.3,0.6-0.7,0.9-1.1
		c0.3-0.4,0.5-0.8,0.7-1.2c0.2-0.4,0.3-0.9,0.4-1.4c0.1-0.5,0.1-1,0.1-1.5C167.4,80.2,167.3,79.7,167.2,79.2z"/>
	<path class="st3" d="M125.1,82.4c-0.8-1.3-1.9-2.2-3.1-2.8s-2.8-1.1-4.6-1.5c-0.1,0-0.1,0-0.2,0c-0.1,0-0.2,0-0.2,0
		c0,0-0.1,0-0.1,0c0,0-0.1,0-0.1,0c-1.4-0.3-2.5-0.6-3.3-0.9s-1.5-0.7-2-1.3c-0.5-0.6-0.8-1.4-0.8-2.5v0c0-1.4,0.5-2.4,1.4-3.2
		c0.9-0.7,2.3-1.1,4.1-1.1c1.1,0,2.2,0.2,3.3,0.6c1.1,0.4,2.3,1,3.4,1.8l2.7-4.5c-1-0.7-2-1.3-3-1.8c-1-0.5-2.1-0.8-3.2-1.1
		c-0.4-0.1-0.8-0.2-1.2-0.2v-3.8h-5.4v3.9c-1,0.2-1.9,0.5-2.7,0.8c-1.6,0.8-2.9,1.9-3.7,3.3c-0.8,1.5-1.2,3.3-1.2,5.4v0
		c0,2.3,0.5,4.1,1.4,5.4c0.9,1.3,2,2.1,3.3,2.6c1.3,0.5,2.9,0.9,5,1.3c0.1,0,0.1,0,0.2,0c0.1,0,0.1,0,0.2,0c0,0,0.1,0,0.1,0
		s0.1,0,0.1,0c1.2,0.2,2.1,0.5,2.9,0.8c0.7,0.3,1.3,0.7,1.8,1.3s0.7,1.3,0.7,2.3v0c0,1.5-0.5,2.6-1.5,3.3c-1,0.8-2.5,1.1-4.4,1.1
		c-1.6,0-3-0.3-4.4-0.9c-1.4-0.6-2.7-1.5-3.8-2.7l-3,4.4c0.8,0.9,1.7,1.6,2.9,2.3c1.2,0.7,2.5,1.2,3.9,1.5c1.4,0.4,2.2,0.6,2.2,0.6
		s0,0,0.1,0v3.6h5.4v-3.9c1.1-0.2,2.1-0.5,3-0.9c1.7-0.7,3-1.8,3.8-3.3c0.9-1.4,1.3-3.2,1.3-5.3v0C126.4,85.4,125.9,83.7,125.1,82.4
		z"/>
</g>
</svg>
