<?xml version="1.0" encoding="utf-8"?>
<!-- Generator: Adobe Illustrator 25.0.1, SVG Export Plug-In . SVG Version: 6.00 Build 0)  -->
<svg version="1.1" id="Camada_1" xmlns="http://www.w3.org/2000/svg" xmlns:xlink="http://www.w3.org/1999/xlink" x="0px" y="0px"
	 width="230px" height="158px" viewBox="0 0 230 158" style="enable-background:new 0 0 230 158;" xml:space="preserve">
<style type="text/css">
	.st0{fill:#FFFFFF;}
	.st1{fill:#B3EBF2;}
	.st2{fill:#80DEEA;}
	.st3{fill:#607D8B;}
	.st4{fill:#00BCD4;}
	.st5{fill:#455A64;}
	.st6{fill:#FBD879;}
</style>
<path class="st0" d="M210.2,0H19.7C8.9,0,0,8.9,0,19.8v118.5C0,149.1,8.9,158,19.7,158h190.7c10.8,0,19.7-8.9,19.7-19.7V19.8
	C230,8.9,221.1,0,210.2,0z"/>
<g>
	<desc>Created with Sketch.</desc>
</g>
<g>
	<path class="st1" d="M52.8,123c-5.4,0-9.7-4.4-9.7-9.7V44h144V123c0,0,0,0,0,0H52.8z"/>
	<path class="st2" d="M41.7,42.7v70.6c0,2.1,0.6,4.1,1.6,5.7c1.9,3.2,5.4,5.3,9.4,5.3h135.6V42.7H41.7z M185.7,121.7H52.8
		c-2.2,0-4.3-0.9-5.9-2.5c-0.8-0.8-1.4-1.7-1.8-2.7c-0.4-1-0.7-2.1-0.7-3.3V45.4h141.3V121.7z"/>
	<rect x="60.7" y="54" class="st3" width="43.4" height="2"/>
	<rect x="109.9" y="54" class="st3" width="21.7" height="2"/>
	<polygon class="st3" points="85.4,112.9 44.6,112.9 44.6,101.7 46.5,101.7 46.5,111 85.4,111 	"/>
	<rect x="91" y="111" class="st3" width="29.6" height="2"/>
	<rect x="96.4" y="100.3" class="st3" width="73" height="2"/>
	<path class="st3" d="M169.1,86.1H96.6V67.8h72.5V86.1z M98.6,84.1h68.6V69.8H98.6V84.1z"/>
	<path class="st3" d="M82,76.2c-2.2-1.2-4.1-2.2-4.1-4.5c0-2.1,1.3-3.4,3.3-3.4c1.8,0,2.8,0.7,4.2,2.1l0.2,0.2l2-2.4l-0.2-0.2
		c-1.2-1.3-2.6-2.6-5-3v-2.9h-2.8v3c-3.2,0.6-5.3,3.2-5.3,6.7c0,1.9,0.6,3.4,1.8,4.6c1.1,1.1,2.4,1.8,3.8,2.6
		c2.3,1.3,4.5,2.5,4.5,5.3c0,2.3-1.3,3.6-3.7,3.6c-1.8,0-3.5-0.8-5.4-2.5L75,85.3L73.3,88l0.2,0.2c1.6,1.6,3.9,2.7,6.1,3v2.9h2.8v-3
		c1.4-0.3,2.6-0.9,3.6-1.8c1.3-1.3,2-3.1,2-5.2C88,79.4,84.8,77.7,82,76.2z"/>
	<path class="st4" d="M52.6,24c-6,0-10.9,4.9-10.9,10.9v78.6c0-6,4.9-10.9,10.9-10.9h10.8V24H52.6z"/>
	<path class="st5" d="M158.7,15.8v6.4h2.3v41.9l2.3,2.3V22.1C163.3,22.1,163.1,17.4,158.7,15.8z"/>
	<polygon class="st6" points="158.7,15.8 146.6,12.8 146.6,124.6 158.7,124.6 	"/>
	<polygon class="st5" points="146.6,124.6 152.6,145.2 158.7,124.6 	"/>
	<rect x="146.6" y="62.1" class="st5" width="12.1" height="1.7"/>
</g>
</svg>
