<?xml version="1.0" encoding="utf-8"?>
<!-- Generator: Adobe Illustrator 17.0.0, SVG Export Plug-In . SVG Version: 6.00 Build 0)  -->
<!DOCTYPE svg PUBLIC "-//W3C//DTD SVG 1.1//EN" "http://www.w3.org/Graphics/SVG/1.1/DTD/svg11.dtd">
<svg version="1.1" id="Camada_1" xmlns="http://www.w3.org/2000/svg" xmlns:xlink="http://www.w3.org/1999/xlink" x="0px" y="0px"
	 width="230px" height="158px" viewBox="0 0 230 158" enable-background="new 0 0 230 158" xml:space="preserve">
<g>
	<desc>Created with Sketch.</desc>
</g>
<path fill="#FFFFFF" d="M210.15,0H19.65C8.85,0-0.05,8.9-0.05,19.8v118.5c0,10.8,8.9,19.7,19.7,19.7h190.7
	c10.8,0,19.7-8.9,19.7-19.7V19.8C229.95,8.9,221.05,0,210.15,0z"/>
<g>
	<path fill="none" stroke="#CC2E5E" stroke-width="0.3136" stroke-miterlimit="10" d="M89.032,83.061"/>
	<path fill="#2F2E77" d="M115.488,62.746c-8.943,0-12.37,2.207-14.542,8.606c-0.078,0.228,0.055,0.478,0.287,0.542l6.446,1.793
		c0.223,0.062,0.453-0.068,0.518-0.29c0.272-0.929,1.166-3.126,3.528-3.126c2.534,0,5.606,0,6.911,0s2.477,0.921,2.477,2.073
		c0,1.152-0.012,4.223-0.012,4.223s-5.767,0-10.835,0c-5.452,0-10.674,4.377-10.674,11.058c0,6.22,3.456,10.981,15.204,10.981
		c10.52,0,14.36-4.07,14.36-9.676s0-12.056,0-15.435C129.156,70.118,127.467,62.746,115.488,62.746z M121.017,89.085
		c0,0.768-0.461,2.15-2.764,2.15c-2.304,0-6.066,0-7.679,0s-3.148-1.689-3.148-3.724c0-2.035,0.998-3.724,3.456-3.724
		s10.136,0,10.136,0S121.017,88.317,121.017,89.085z"/>
	<path fill="#2F2E77" d="M194.399,98.438c8.943,0,12.37-2.207,14.542-8.606c0.078-0.228-0.055-0.478-0.288-0.542l-6.446-1.793
		c-0.223-0.062-0.453,0.068-0.518,0.29c-0.272,0.929-1.166,3.126-3.528,3.126c-2.534,0-5.606,0-6.911,0
		c-1.305,0-2.477-0.921-2.477-2.073c0-1.152,0.012-4.223,0.012-4.223s5.767,0,10.835,0c5.452,0,10.674-4.377,10.674-11.058
		c0-6.22-3.456-10.981-15.204-10.981c-10.52,0-14.36,4.07-14.36,9.676s0,12.056,0,15.435
		C180.731,91.066,182.42,98.438,194.399,98.438z M188.323,72.346c0-0.732,0.439-2.05,2.635-2.05c2.196,0,6.163,0,7.7,0
		c2.091,0,3.002,1.316,3.002,3.256c0,1.94-0.379,3.551-3.294,3.551c-2.343,0-10.043,0-10.043,0S188.323,73.078,188.323,72.346z"/>
	<path fill="#2F2E77" d="M155.045,82.615c5.643,0,10.369-7.94,11.29-9.589c0.102-0.183,0.295-0.298,0.506-0.298l0,0
		c0.319,0,0.578,0.259,0.578,0.578v24.668c0,0.349,0.283,0.632,0.632,0.632h6.876c0.349,0,0.632-0.283,0.632-0.632V69.213v-0.094
		c0-3.52-2.854-6.374-6.374-6.374h0c-3.456,0-5.299,1.459-7.372,4.07c-2.073,2.611-5.549,8.37-6.768,8.37
		c-1.218,0-4.694-5.759-6.768-8.37c-2.073-2.611-3.916-4.07-7.372-4.07l0,0c-3.52,0-6.374,2.854-6.374,6.374v0.094v28.761
		c0,0.349,0.283,0.632,0.632,0.632h6.876c0.349,0,0.632-0.283,0.632-0.632V73.307c0-0.319,0.259-0.578,0.578-0.578h0
		c0.21,0,0.403,0.114,0.506,0.298C144.676,74.675,149.402,82.615,155.045,82.615z"/>
	<g>
		<path fill="#CC305F" d="M54.318,104.503L54.318,104.503c1.738,0,3.405-0.69,4.634-1.92l28.19-28.19
			c1.145-1.145,1.788-2.698,1.788-4.318v-0.341c0-1.637-0.658-3.206-1.825-4.354L76.279,54.737c-0.808-0.795-1.897-1.24-3.03-1.24
			H54.318H35.387c-1.134,0-2.222,0.445-3.03,1.24L21.53,65.381c-1.168,1.148-1.825,2.717-1.825,4.354v0.341
			c0,1.619,0.643,3.173,1.788,4.318l28.19,28.19C50.913,103.813,52.58,104.503,54.318,104.503L54.318,104.503z"/>
		<path fill="#2F2E77" d="M34.965,53.517l-0.01,0.085c1.231,0,2.419,0.456,3.334,1.281l12.736,11.48
			c0.693,0.625,1.594,0.971,2.527,0.971h0.766h0.766c0.933,0,1.834-0.346,2.527-0.971l12.736-11.48
			c0.915-0.824,2.103-1.281,3.334-1.281c0,0-0.005-0.033-0.013-0.085c-0.139-0.014-0.279-0.021-0.42-0.021H54.318H35.387
			C35.246,53.497,35.105,53.504,34.965,53.517z"/>
	</g>
</g>
</svg>
