<?xml version="1.0" encoding="utf-8"?>
<!-- Generator: Adobe Illustrator 25.0.1, SVG Export Plug-In . SVG Version: 6.00 Build 0)  -->
<svg version="1.1" id="Camada_1" xmlns="http://www.w3.org/2000/svg" xmlns:xlink="http://www.w3.org/1999/xlink" x="0px" y="0px"
	 width="230px" height="158px" viewBox="0 0 230 158" style="enable-background:new 0 0 230 158;" xml:space="preserve">
<style type="text/css">
	.st0{fill:#53913C;}
	.st1{fill:#FFFFFF;}
</style>
<g>
	<desc>Created with Sketch.</desc>
</g>
<path class="st0" d="M210.3,0H19.7C8.9,0,0,8.9,0,19.8v118.5C0,149.1,8.9,158,19.7,158h190.7c10.8,0,19.7-8.9,19.7-19.7V19.8
	C230,8.9,221.1,0,210.3,0z"/>
<path class="st1" d="M192.5,130.3h-43.4l-15-56.4c0,0,9.3,0,10.7,0c2.1,0.2,10.4-3,10.4-11.2c0-7.4-6.8-7.2-9.1-7.3
	c-3.3,0-13.4,0-13.4,0l-29,74.9h-43l-29-79.1h35.5l14,42l16.6-65.5h63.6c17.2,0,31.1,14.7,31.1,32.8c0,12.3-6.4,23-15.9,28.6
	L192.5,130.3z"/>
</svg>
