<?xml version="1.0" encoding="utf-8"?>
<!-- Generator: Adobe Illustrator 25.0.1, SVG Export Plug-In . SVG Version: 6.00 Build 0)  -->
<svg version="1.1" id="Camada_1" xmlns="http://www.w3.org/2000/svg" xmlns:xlink="http://www.w3.org/1999/xlink" x="0px" y="0px"
	 width="230px" height="158px" viewBox="0 0 230 158" style="enable-background:new 0 0 230 158;" xml:space="preserve">
<style type="text/css">
	.st0{fill:#009DDC;}
	.st1{fill:#FFFFFF;}
</style>
<g>
	<desc>Created with Sketch.</desc>
</g>
<g>
	<path class="st0" d="M229.9,89.8v5.8h0v7.6c0.1,0.1,0.1,0.2,0.2,0.3V19.8c0-0.8-0.1-1.7-0.2-2.5L229.9,89.8L229.9,89.8z"/>
	<path class="st0" d="M0.2,55.9V16.7c-0.2,1-0.3,2.1-0.3,3.1v118.5c0,1.1,0.1,2.1,0.3,3.1V75.7V55.9z"/>
	<path class="st0" d="M230,113.2c-0.1,0.1-0.1,0.2-0.2,0.3v27.4c0.1-0.9,0.2-1.7,0.2-2.6V113.2z"/>
	<path class="st1" d="M229.8,189.5L229.8,189.5l0-48.6c0,0,0,0,0,0V189.5z"/>
	<path class="st1" d="M229.9,17.3V-41h0L229.9,17.3C229.9,17.3,229.9,17.3,229.9,17.3z"/>
	<path class="st1" d="M11.2,75.7l2.5-6h5.6l2.5,6h21.7v-4.6l1.9,4.6h11.2l1.9-4.7v4.7h53.9v-9.9l1,0c0.8,0,1,0.1,1,1.3v8.6h27.9
		l0-2.3c2.2,1.2,5.7,2.3,10.3,2.3h11.7l2.5-6h5.6l2.5,6h22.5V70l3.5,5.7h18.1V38.1h-17.9v4.4l-2.6-4.4h-18.4v4.4l-2.3-4.4h-24.8
		c-4.2,0-7.9,0.5-10.8,2.2v-2.2h-17.1v2.2c-1.9-1.6-4.5-2.2-7.3-2.2H55.3l-4.2,9.7l-4.3-9.7H27.1v4.4l-2.2-4.4H8L0.2,55.9v19.8H11.2
		z M143.7,46.5c2.1-2.1,5.4-3.2,9.8-3.2h6.2v5.8h-6c-2.4,0-3.7,0.4-5,1.6c-1.1,1.1-1.9,3.3-1.9,6.1c0,2.9,0.6,5,1.8,6.3
		c1,1.1,2.7,1.4,4.5,1.4h2.9l9.1-21.2h9.6l10.9,25.6V43.4h9.9l11.4,18.8l0-18.8h6.6v27h-9.2L192,50.2l0,20.3h-13.1l-2.5-6H163
		l-2.5,6H153c-3.2,0-7.1-0.7-9.4-3c-2.3-2.3-3.4-5.4-3.4-10.3C140.2,53.1,140.9,49.4,143.7,46.5z M130.4,43.4h6.6v27h-6.6V43.4z
		 M100.7,43.4h14.9c3.3,0,5.7,0.1,7.8,1.3c2.1,1.2,3.3,2.9,3.3,6c0,4.3-2.9,6.5-4.6,7.2c1.4,0.5,2.6,1.5,3.2,2.3
		c0.9,1.3,1.1,2.6,1.1,4.9l0,5.4h-6.5V67c0-1.6,0.1-4-1.1-5.2c-0.9-1-2.3-1.2-4.7-1.2l-6.9,0v9.8h-6.5V43.4z M74.7,43.4h21.6V49
		H81.2v4.9h14.7v5.6H81.2v5.4l15.1,0v5.6H74.7V43.4z M11.8,43.4h9.6L32.4,69V43.4H43l8.4,18.3l7.8-18.3h10.7v27h-6.6V49.3l-9.4,21.2
		h-5.7l-9.4-21.2l0,21.2H25.7l-2.5-6H9.8l-2.5,6h-7L11.8,43.4z"/>
	<polygon class="st1" points="16.5,48 12.1,58.7 20.9,58.7 	"/>
	<polygon class="st1" points="169.7,48 165.3,58.7 174.1,58.7 	"/>
	<path class="st1" d="M118.2,54.5c0.8-0.5,1.3-1.4,1.3-2.6c0-1.2-0.5-2-1.3-2.4c-0.8-0.4-1.9-0.5-3.1-0.5h-8v6h7.9
		C116.3,55,117.3,55,118.2,54.5z"/>
	<path class="st1" d="M215.5,96.1c-0.7,0.4-0.9,1.1-0.9,1.9c0,1,0.6,1.7,1.4,2c0.7,0.2,1.4,0.3,2.5,0.3l3.5,0.1
		c3.6,0.1,5.9,0.7,7.4,2.2c0.2,0.2,0.4,0.4,0.5,0.6v-7.6h-11.7C217,95.6,216.2,95.7,215.5,96.1z"/>
	<path class="st1" d="M145.8,95.9c-0.8-0.4-1.9-0.5-3.1-0.5h-8v6l7.9,0c1.3,0,2.3,0,3.2-0.5c0.8-0.5,1.3-1.4,1.3-2.6
		C147.2,97.2,146.7,96.4,145.8,95.9z"/>
	<path class="st1" d="M114.5,95.5H106v6.8h8.4c2.4,0,4-1.2,4-3.5C118.4,96.4,116.8,95.5,114.5,95.5z"/>
	<polygon class="st1" points="58.1,95.5 58.1,100.3 72.3,100.3 72.3,105.9 58.1,105.9 58.1,111.2 74,111.2 81.4,103.3 74.3,95.5 	
		"/>
	<path class="st1" d="M221.1,116.9l-12.5,0v-5.8h12.4c1.2,0,2.1-0.2,2.6-0.7c0.4-0.4,0.8-1,0.8-1.8c0-0.8-0.3-1.4-0.8-1.8
		c-0.5-0.4-1.1-0.6-2.2-0.6c-6-0.2-13.6,0.2-13.6-8.4c0-3.9,2.5-8,9.2-8h12.8V17.3c0,0,0,0,0,0v67.2h-12c-3.6,0-6.3,0.8-8.1,2.2
		v-2.2h-17.6c-2.8,0-6.2,0.7-7.7,2.2l0-2.2h-31.5v2.2c-2.5-1.8-6.7-2.2-8.7-2.2h-20.8v2.2c-2-1.9-6.4-2.2-9-2.2H91l-5.3,5.8l-5-5.8
		H45.9v37.7H80l5.5-5.9l5.2,5.9l21,0v-8.9h2.1c2.8,0,6.1-0.1,8.9-1.3v10.2h17.4v-9.9h0.9c1.1,0,1.1,0.1,1.1,1.1v8.8h52.7
		c3.3,0,6.9-0.8,8.8-2.4v2.4h16.7c3.5,0,6.9-0.5,9.5-1.7v20.5c0,0,0,0,0,0v-27.4C228.2,115.8,225.3,116.9,221.1,116.9z M114.1,107.8
		h-8v9H93.5l-7.9-8.9l-8.2,8.9H51.7v-27h26l7.9,8.9l8.2-8.9h20.6c5.1,0,10.8,1.4,10.8,8.9C125.3,106.3,119.7,107.8,114.1,107.8z
		 M152.9,106.6c0.9,1.3,1.1,2.6,1.1,4.9v5.4h-6.5l0-3.4c0-1.6,0.1-4-1-5.2c-0.9-1-2.3-1.2-4.7-1.2h-6.9l0,9.8h-6.5v-27h14.9
		c3.3,0,5.7,0.1,7.8,1.3c2.1,1.2,3.3,3,3.3,6c0,4.3-2.9,6.5-4.6,7.2C151.2,104.8,152.4,105.8,152.9,106.6z M179.5,95.5h-15.1v4.9
		l14.7,0v5.6l-14.7,0v5.3l15.1,0v5.6h-21.6v-27h21.6V95.5z M195.9,116.9l-12.6,0v-5.8h12.5c1.2,0,2.1-0.2,2.6-0.7
		c0.4-0.4,0.8-1,0.8-1.8c0-0.8-0.3-1.4-0.8-1.8c-0.5-0.4-1.1-0.6-2.2-0.6c-6-0.2-13.6,0.2-13.6-8.4c0-3.9,2.5-8,9.2-8h12.9v5.8
		h-11.8c-1.2,0-1.9,0-2.6,0.5c-0.7,0.4-1,1.1-1,1.9c0,1,0.6,1.7,1.4,2c0.7,0.2,1.4,0.3,2.5,0.3l3.5,0.1c3.6,0.1,5.9,0.7,7.4,2.2
		c1.3,1.3,1.9,2.9,1.9,5.7C206,114.1,202.4,116.9,195.9,116.9z"/>
	<polygon class="st1" points="99.6,114.4 99.6,92.8 89.7,103.4 	"/>
	<path class="st0" d="M229.9,113.5c0.1-0.1,0.1-0.2,0.2-0.3v-9.6c-0.1-0.1-0.1-0.2-0.2-0.3V113.5z"/>
	<rect x="229.9" y="89.8" class="st0" width="0" height="5.8"/>
	<path class="st0" d="M154.3,97.1c0-3-1.3-4.8-3.3-6c-2.1-1.2-4.5-1.3-7.8-1.3h-14.9v27h6.5l0-9.8h6.9c2.3,0,3.8,0.2,4.7,1.2
		c1.2,1.3,1,3.6,1,5.2l0,3.4h6.5v-5.4c0-2.3-0.2-3.6-1.1-4.9c-0.5-0.8-1.8-1.8-3.2-2.3C151.4,103.6,154.3,101.4,154.3,97.1z
		 M145.8,100.9c-0.9,0.5-1.9,0.5-3.2,0.5l-7.9,0v-6h8c1.1,0,2.3,0,3.1,0.5c0.8,0.5,1.3,1.3,1.3,2.4
		C147.2,99.5,146.7,100.5,145.8,100.9z"/>
	<path class="st0" d="M196.7,100.5l-3.5-0.1c-1.1,0-1.8-0.1-2.5-0.3c-0.8-0.3-1.4-1-1.4-2c0-0.9,0.3-1.5,1-1.9
		c0.6-0.4,1.4-0.5,2.6-0.5h11.8v-5.8h-12.9c-6.8,0-9.2,4.2-9.2,8c0,8.6,7.6,8.2,13.6,8.4c1.1,0,1.8,0.2,2.2,0.6
		c0.5,0.4,0.8,1,0.8,1.8c0,0.8-0.3,1.4-0.8,1.8c-0.5,0.5-1.4,0.7-2.6,0.7h-12.5v5.8l12.6,0c6.5,0,10.1-2.8,10.1-8.5
		c0-2.8-0.7-4.4-1.9-5.7C202.6,101.1,200.3,100.5,196.7,100.5z"/>
	<polygon class="st0" points="157.9,116.9 179.5,116.9 179.5,111.3 164.4,111.2 164.4,105.9 179.1,105.9 179.1,100.3 164.4,100.3 
		164.4,95.5 179.5,95.5 179.5,89.8 157.9,89.8 	"/>
	<path class="st0" d="M229.3,102.6c-1.4-1.5-3.8-2.1-7.4-2.2l-3.5-0.1c-1.1,0-1.8-0.1-2.5-0.3c-0.8-0.3-1.4-1-1.4-2
		c0-0.9,0.3-1.5,0.9-1.9c0.6-0.4,1.4-0.5,2.6-0.5h11.7v-5.8H217c-6.8,0-9.2,4.2-9.2,8c0,8.6,7.6,8.2,13.6,8.4c1.1,0,1.8,0.2,2.2,0.6
		c0.5,0.4,0.8,1,0.8,1.8c0,0.8-0.3,1.4-0.8,1.8c-0.5,0.5-1.4,0.7-2.6,0.7h-12.4v5.8l12.5,0c4.2,0,7.1-1.1,8.7-3.4v-10.2
		C229.7,103.1,229.5,102.8,229.3,102.6z"/>
	<path class="st0" d="M114.5,89.8H93.8l-8.2,8.9l-7.9-8.9h-26v27h25.6l8.2-8.9l7.9,8.9H106v-9h8c5.6,0,11.2-1.6,11.2-9.1
		C125.3,91.3,119.6,89.8,114.5,89.8z M74,111.2H58.1v-5.3l14.1,0v-5.6l-14.1,0v-4.9h16.2l7.1,7.9L74,111.2z M99.6,114.4l-9.9-11
		l9.9-10.6V114.4z M114.4,102.3H106v-6.8h8.4c2.3,0,3.9,1,3.9,3.3C118.4,101.1,116.9,102.3,114.4,102.3z"/>
	<polygon class="st0" points="96.3,64.8 81.2,64.8 81.2,59.4 95.9,59.4 95.9,53.9 81.2,53.9 81.2,49 96.3,49 96.3,43.4 74.7,43.4 
		74.7,70.4 96.3,70.4 	"/>
	<rect x="130.4" y="43.4" class="st0" width="6.6" height="27"/>
	<path class="st0" d="M9.8,64.4h13.4l2.5,6h13.1l0-21.2l9.4,21.2h5.7l9.4-21.2v21.2h6.6v-27H59.1l-7.8,18.3L43,43.4H32.4V69
		L21.5,43.4h-9.6l-11.6,27h7L9.8,64.4z M16.5,48l4.4,10.7h-8.8L16.5,48z"/>
	<path class="st0" d="M107.2,60.6l6.9,0c2.4,0,3.8,0.2,4.7,1.2c1.2,1.3,1.1,3.6,1.1,5.2v3.4h6.5l0-5.4c0-2.3-0.2-3.6-1.1-4.9
		c-0.5-0.8-1.8-1.7-3.2-2.3c1.7-0.7,4.6-2.9,4.6-7.2c0-3-1.3-4.8-3.3-6c-2.1-1.2-4.5-1.3-7.8-1.3h-14.9v27h6.5V60.6z M107.2,49h8
		c1.1,0,2.3,0,3.1,0.5c0.8,0.4,1.3,1.3,1.3,2.4c0,1.2-0.5,2.1-1.3,2.6c-0.9,0.5-1.9,0.5-3.2,0.5h-7.9V49z"/>
	<path class="st0" d="M153,70.4h7.5l2.5-6h13.4l2.5,6H192l0-20.3l12.2,20.3h9.2v-27h-6.6l0,18.8l-11.4-18.8h-9.9v25.6l-10.9-25.6
		H165l-9.1,21.2H153c-1.7,0-3.5-0.3-4.5-1.4c-1.3-1.4-1.8-3.5-1.8-6.3c0-2.8,0.8-5,1.9-6.1c1.3-1.3,2.6-1.6,5-1.6h6v-5.8h-6.2
		c-4.5,0-7.8,1-9.8,3.2c-2.8,2.9-3.5,6.5-3.5,10.5c0,4.9,1.2,8,3.4,10.3C145.8,69.7,149.8,70.4,153,70.4z M169.7,48l4.4,10.7h-8.8
		L169.7,48z"/>
	<path class="st0" d="M19.7,158h190.7c9.9,0,18.2-7.5,19.5-17.1v-20.5c-2.6,1.2-6,1.7-9.5,1.7h-16.7v-2.4c-1.9,1.5-5.5,2.4-8.8,2.4
		h-52.7v-8.8c0-1-0.1-1.1-1.1-1.1h-0.9v9.9h-17.4V112c-2.9,1.2-6.2,1.3-8.9,1.3h-2.1v8.9l-21,0l-5.2-5.9l-5.5,5.9H45.9V84.5h34.8
		l5,5.8l5.3-5.8h23.3c2.7,0,7,0.3,9,2.2v-2.2h20.8c2,0,6.2,0.4,8.7,2.2v-2.2h31.5l0,2.2c1.6-1.5,5-2.2,7.7-2.2h17.6v2.2
		c1.9-1.3,4.5-2.2,8.1-2.2h12V17.3C228.5,7.6,220.2,0,210.2,0H19.7C9.9,0,1.7,7.2,0.2,16.7v39.3L8,38.1h16.8l2.2,4.4v-4.4h19.7
		l4.3,9.7l4.2-9.7h62.7c2.8,0,5.4,0.5,7.3,2.2v-2.2h17.1v2.2c2.9-1.6,6.6-2.2,10.8-2.2H178l2.3,4.4v-4.4h18.4l2.6,4.4v-4.4h17.9
		v37.7h-18.1l-3.5-5.7v5.7H175l-2.5-6H167l-2.5,6h-11.7c-4.6,0-8.1-1.1-10.3-2.3l0,2.3h-27.9v-8.6c0-1.2-0.2-1.3-1-1.3l-1,0v9.9
		H58.6v-4.7l-1.9,4.7H45.4l-1.9-4.6v4.6H21.8l-2.5-6h-5.6l-2.5,6h-11v65.7C1.7,150.8,9.9,158,19.7,158z"/>
</g>
</svg>
