<?xml version="1.0" encoding="utf-8"?>
<!-- Generator: Adobe Illustrator 25.0.1, SVG Export Plug-In . SVG Version: 6.00 Build 0)  -->
<svg version="1.1" id="Camada_1" xmlns="http://www.w3.org/2000/svg" xmlns:xlink="http://www.w3.org/1999/xlink" x="0px" y="0px"
	 width="230px" height="158px" viewBox="0 0 230 158" style="enable-background:new 0 0 230 158;" xml:space="preserve">
<style type="text/css">
	.st0{fill:#FFFFFF;}
	.st1{fill-rule:evenodd;clip-rule:evenodd;fill:#DE0A14;}
	.st2{fill-rule:evenodd;clip-rule:evenodd;fill:#585450;}
</style>
<path class="st0" d="M210.2,0H19.7C8.9,0,0,8.9,0,19.8v118.5C0,149.1,8.9,158,19.7,158h190.7c10.8,0,19.7-8.9,19.7-19.7V19.8
	C230,8.9,221.1,0,210.2,0z"/>
<g>
	<desc>Created with Sketch.</desc>
</g>
<g>
	<path class="st1" d="M110.7,16.5c11.4,0,21.6,5.4,28,13.9c-1.3,8.4-4.4,16.1-13.5,22.9c0.6-22.5-7.8-29.4-24.3-35.4
		C104.1,17,107.3,16.5,110.7,16.5L110.7,16.5z M140.4,32.7c-3.3,16.5-7.7,23.8-23.5,34.2c1.7-16.3,1.1-28.3-3.5-36
		c-3.6-6.1-7.7-10.5-17.4-11.2c-12.1,5.6-20.6,17.9-20.6,32.1c0,19.5,15.8,35.3,35.3,35.3c19.5,0,35.3-15.8,35.3-35.3
		C146,44.8,144,38.2,140.4,32.7z"/>
	<path class="st2" d="M25,95.9c0.4,0,5.1,0,5.1,0l6.6,20.4l6.6-20.4h4.5l-8.5,28.1h-5.6L25,95.9L25,95.9z M180.8,96.1h9.4
		c3.4,0,6.2,1.7,8,4.5c1.9,3,2,14,0.5,17.2c-2.1,4.3-5.1,5.9-9.8,5.9c-2.4,0-4.8,0-7.3,0h-0.8V96.1L180.8,96.1z M182.5,97.8v24.3
		c2.1,0,4.3,0,6.4,0c4.1,0,6.5-1.3,8.3-5c1.3-2.6,1.2-13.1-0.4-15.6c-1.5-2.4-3.8-3.7-6.6-3.7H182.5L182.5,97.8z M161.4,97.9V111
		h7.1c0.3,0,0.7,0,1-0.1c2.3-0.3,4.3-1.4,5.5-3.5c1.1-1.9,1.5-4.4,0.5-6.4c-1.1-2.3-3.4-3.2-5.8-3.2C167,97.9,164.2,97.9,161.4,97.9
		L161.4,97.9z M176.9,124l-8.2-11.4c-0.1,0-0.1,0-0.2,0h-7.1V124h-1.7V96.2h0.8c3.1,0,6.1,0,9.2,0c11,0,10.1,14.3,0.9,16.2L179,124
		l0,0H176.9L176.9,124z M146.7,98.3l-5.4,14.8h10.9L146.7,98.3L146.7,98.3z M140.7,114.8l-3.3,9.2h-1.8l10.1-28.1l1.8,0l10.5,28.1
		h-1.8l-3.4-9.2H140.7L140.7,114.8z M134.1,103.6l0.1,0.5h1.7l-0.2-0.8c-2.1-11-19.4-9.4-19.4,1.6c0,3.1,0,6.2,0,9.3
		c0,3.1,1.1,6.1,3.6,8.1c2.1,1.7,4.8,2.5,7.5,2.2c4.4-0.5,7.4-3.7,8.3-7.9l0.1-0.6h-1.7l-0.1,0.2c-0.8,3.5-3.2,6.2-6.9,6.6
		c-2.2,0.3-4.5-0.4-6.3-1.8c-2.1-1.7-3-4.2-3-6.8c0-3.1,0-6.2,0-9.3C118.1,95.9,132.4,94.6,134.1,103.6L134.1,103.6z M102.7,95.9
		L102.7,95.9c5.8,0,10.6,4.8,10.6,10.6v7c0,5.8-4.8,10.6-10.6,10.6h0c-5.8,0-10.6-4.8-10.6-10.6v-7C92.1,100.7,96.9,95.9,102.7,95.9
		L102.7,95.9z M102.7,100c-3.6,0-6.5,2.9-6.5,6.5v7c0,3.6,2.9,6.5,6.5,6.5h0c3.6,0,6.5-2.9,6.5-6.5v-7
		C109.2,102.9,106.2,100,102.7,100L102.7,100L102.7,100z M69.8,124.1h4.8v-10.5h4.6l7.1,10.5h5.6c-2.3-3.9-4.6-7.7-7-11.6
		c6.8-1,8.3-16.4-3.5-16.4H69.9L69.8,124.1L69.8,124.1z M74.6,99.8H80c7.1,0,7.6,9.3,0.3,9.3c-1.8,0-3.8,0-5.6,0V99.8L74.6,99.8z
		 M49.9,95.9V124h18.7v-4.6h-14V112h12.7v-4.4H54.6v-6.9h14v-4.8H49.9z"/>
</g>
</svg>
