<?xml version="1.0" encoding="utf-8"?>
<!-- Generator: Adobe Illustrator 25.0.1, SVG Export Plug-In . SVG Version: 6.00 Build 0)  -->
<svg version="1.1" id="Camada_1" xmlns="http://www.w3.org/2000/svg" xmlns:xlink="http://www.w3.org/1999/xlink" x="0px" y="0px"
	 width="230px" height="158px" viewBox="0 0 230 158" style="enable-background:new 0 0 230 158;" xml:space="preserve">
<style type="text/css">
	.st0{fill:#FFFFFF;}
	.st1{fill:#68A779;}
	.st2{fill:#69A779;}
	.st3{fill:#FDFDFD;}
	.st4{fill:#337850;}
	.st5{fill:#347951;}
	.st6{fill:#3A3838;}
	.st7{fill:#3A3939;}
	.st8{fill:#444140;}
	.st9{fill:#3C3B3B;}
	.st10{fill:#3A3738;}
	.st11{fill:#FEFEFE;}
</style>
<path class="st0" d="M210.2,0H19.7C8.9,0,0,8.9,0,19.8v118.5C0,149.1,8.9,158,19.7,158h190.7c10.8,0,19.7-8.9,19.7-19.7V19.8
	C230,8.9,221.1,0,210.2,0z"/>
<g>
	<desc>Created with Sketch.</desc>
</g>
<g>
	<path class="st1" d="M125,20.2c2.2-0.2,4.5-0.4,6.7-0.5c0.8,0,1.6,0,2.4-0.1c1.5,0,3,0,4.5,0c2.4,0.1,4.8,0.2,7.1,0.5
		c1.8,0.2,3.6,0.4,5.4,0.8c0.9,0.2,1.8,0.3,2.8,0.5c0.1,0.1,0.1,0.1,0.2,0.1c0.1,0.1,0.2,0.1,0.3,0c0,0-0.1,0.1-0.1,0.1
		c-0.9,0-1.7,0-2.6-0.2c-0.1,0.1-0.3,0-0.4,0c-0.8,0.1-1.7-0.1-2.5-0.1c-1.8,0-3.5,0-5.3,0.1c-0.3,0-0.6,0-0.8,0
		c-1.3,0.1-2.6,0.2-3.9,0.3c-0.7,0-1.3,0.1-1.9,0.3c0.2,0.1,0.5,0,0.7,0.2c0.2,0,0.4,0,0.6,0c2.9,0.5,5.9,1.2,8.7,2.1
		c4,1.3,7.8,3,11.3,5.5c2.3,1.6,4.3,3.5,5.8,5.9c2.7,4,3.6,8.4,2.6,13.2c-0.6,2.9-1.8,5.5-3.4,7.9c-2.4,3.7-5.4,6.8-8.7,9.6
		c-3.7,3.1-7.7,5.7-11.9,7.9c-4.1,2.2-8.3,4-12.6,5.6c-5.3,1.9-10.8,3.4-16.4,4.5c-0.2,0-0.4,0.1-0.6,0.2c1.3-0.1,2.4-0.2,3.5-0.4
		c1.6-0.2,3.2-0.4,4.8-0.6c0.8-0.1,1.5-0.4,2.3-0.4c0.2,0,0.4,0,0.6,0c1.3-0.3,2.6-0.5,3.9-0.8c0.7-0.2,1.5-0.3,2.2-0.5
		c0.6-0.1,1.2-0.3,1.8-0.4c4.8-1.2,9.5-2.8,14.2-4.6c3.4-1.4,6.7-2.9,9.9-4.7c3.2-1.7,6.3-3.7,9.2-5.9c1.6-1.2,3.2-2.5,4.6-4
		c1.3-1.3,2.5-2.6,3.7-4c1.7-2.1,3.2-4.4,4.3-7c1.3-3,2-6.2,1.6-9.5c-0.2-1.9-0.7-3.8-1.6-5.5c-1.4-2.9-3.5-5.2-5.9-7.2
		c-2.6-2.1-5.5-3.7-8.6-5c-1.8-0.7-3.5-1.4-5.4-1.8c-0.3-0.2-0.6-0.2-0.9-0.3c-0.6-0.2-1.3-0.3-1.9-0.5c-0.2-0.1,0-0.1,0-0.1
		c1.1,0.1,2.1,0.2,3.2,0.3c2.6,0.3,5.1,0.7,7.6,1.2c4.3,0.9,8.5,2.3,12.5,4.3c3.4,1.7,6.5,3.9,9,6.9c2.3,2.8,3.8,5.9,4.1,9.5
		c0,0.3,0,0.6,0.1,0.9c0,0.5,0,1,0,1.5c-0.1,0.3-0.1,0.6-0.1,0.9c-0.3,3.5-1.6,6.6-3.4,9.5c-2.3,3.7-5.2,6.8-8.5,9.6
		c-5.3,4.5-11.2,8-17.5,10.8c-6.4,2.9-13,5.1-19.9,6.8c-3.2,0.8-6.5,1.4-9.8,1.9c-0.8,0.1-1.6,0.3-2.5,0.3c-0.2,0.1-0.5-0.1-0.7,0.1
		l0,0c0,0,0,0,0,0c-0.8,0-1.6,0.1-2.4,0.2c-1.1,0.1-2.2,0.2-3.4,0.3c-1.4,0.1-2.8,0.2-4.2,0.2c-2.3,0-4.6,0-6.8-0.1
		c-0.8,0-1.5-0.2-2.3-0.1c-0.1,0-0.1,0-0.2,0c-0.7-0.2-1.4,0-2,0.4c-2.6,1-5.2,1.9-7.8,2.7c-4.6,1.4-9.3,2.5-14,3.4
		c-3,0.6-6,1-9,1.5c-0.2,0-0.4,0-0.6,0c-0.8,0-1.6,0.2-2.4,0.3c-0.8,0.1-1.6,0.2-2.4,0.3c-1,0.1-2,0.2-3.1,0.3c-0.4,0-0.7,0.1-1,0.2
		c-1.3,0.1-2.6,0.1-3.9,0.2c0-0.1,0.1-0.1,0.1-0.1c3.1-0.9,6.2-1.8,9.3-2.7c3.4-1,6.8-1.9,10.1-2.9c2.9-0.9,5.8-1.8,8.7-2.8
		c0.5-0.2,1-0.3,1.5-0.6c-0.4,0-0.8,0-1.1,0c-1.3,0-2.6,0-4,0c-1.5-0.1-3-0.2-4.6-0.3c-0.8-0.1-1.7-0.2-2.5-0.3
		c-1.1-0.1-2.2-0.4-3.3-0.4c-0.2,0-0.4,0.1-0.5-0.1c-0.5-0.1-1.1-0.2-1.6-0.4c0.1-0.1,0.3-0.1,0.4-0.1c0.5,0,1.1,0.1,1.6,0.1
		C82,85,86.1,85,90.1,84.7c0.2,0,0.3,0,0.4-0.2c0.3-0.1,0.5,0.1,0.8,0.1c0.6-0.1,1.3-0.1,1.9-0.2c0.2,0,0.4,0,0.7,0
		c-0.4-0.2-0.8-0.2-1.1-0.2c-0.1,0-0.3-0.1-0.4-0.1c-1.3-0.2-2.6-0.4-3.9-0.7c-4-0.8-7.9-1.9-11.6-3.6c-2.8-1.3-5.5-2.8-7.9-4.9
		c-2.3-2-4.2-4.2-5.5-7c-1.5-3.1-1.8-6.4-1.3-9.8c0.4-2.9,1.5-5.5,3-8c1.6-2.6,3.5-5,5.6-7.2c0.8-0.9,1.7-1.6,2.6-2.4
		c1.7-1.5,3.5-2.9,5.4-4.2c3.6-2.5,7.4-4.6,11.3-6.5c1.5-0.7,3-1.4,4.5-2c3-1.2,6.1-2.4,9.2-3.3c1.2-0.3,2.3-0.7,3.5-1
		c0.5,0,0.9-0.2,1.4-0.3c2.4-0.7,4.8-1.1,7.2-1.8c-1.2,0.1-2.5,0.2-3.7,0.4c-0.1,0-0.3,0-0.3,0.1c-0.3,0-0.6,0-0.9,0
		c-0.1,0,0.1,0.1,0.1,0.1c-0.1,0.1-0.3,0.1-0.4,0.1c-1.1,0.1-2.1,0.2-3.2,0.4c-2.6,0.4-5.2,0.9-7.8,1.5c-7.3,1.7-14.4,4-21.2,7.1
		c-4.4,2-8.6,4.4-12.6,7.1c-3.4,2.4-6.5,5-9.2,8.1c-2,2.2-3.8,4.7-5.1,7.4c-1.5,3.2-2.4,6.5-2.1,10.1c0.1,1.7,0.5,3.4,1.2,5
		c1.3,3,3.3,5.5,5.8,7.6c3.1,2.6,6.6,4.5,10.4,5.9c2.6,1,5.2,1.7,7.8,2.3c-0.1,0.1-0.2,0.1-0.3,0.1c-1.3-0.1-2.5-0.2-3.8-0.4
		c-0.6-0.1-1.2-0.2-1.8-0.3c-0.1,0-0.2,0-0.3,0.1c-0.4-0.1-0.7-0.2-1.1-0.3c-1.9-0.4-3.8-0.7-5.7-1.3c-4.1-1.1-8.1-2.6-11.8-4.8
		c-2.9-1.8-5.5-3.9-7.5-6.6c-2.7-3.7-3.8-7.7-3.3-12.3c0.3-2.2,0.9-4.2,1.8-6.1c1.5-3.4,3.7-6.3,6.3-8.9c1.8-1.9,3.7-3.6,5.8-5.2
		c3.4-2.7,7.1-4.9,10.9-6.9c3.3-1.8,6.8-3.3,10.3-4.6c2.7-1,5.5-2,8.3-2.8c1.2-0.3,2.3-0.7,3.5-1c0,0,0.1,0,0.1,0
		c2.2-0.6,4.5-1.1,6.8-1.6c0.6-0.2,1.2-0.2,1.8-0.3c2-0.3,4.1-0.6,6.1-0.9c1.7-0.2,3.4-0.4,5.1-0.5c2.1-0.2,4.3-0.2,6.4-0.3
		c2.2-0.1,4.4,0,6.7,0.2c1.5,0.1,3,0.2,4.6,0.4c0.1,0.2,0.1,0.2,0,0.2c-0.2,0-0.5-0.1-0.7,0.1c-0.2,0.2-0.6,0-0.8,0.2
		c-0.1,0-0.3-0.1-0.4,0c-0.5,0.1-1.1,0.1-1.6,0.2c-0.6,0.1-1.3,0.1-1.9,0.4c0.4,0,0.7-0.1,1-0.1c1.5,0,3-0.1,4.5-0.1
		c0.2,0,0.4,0,0.6-0.1c0.8,0.1,1.6,0.2,2.4,0.2c0.8,0,1.6,0,2.4,0.1c0.3,0.1,0.7,0,1,0c-0.8-0.2-1.5-0.4-2.3-0.5
		c-1.1-0.2-2.1-0.4-3.2-0.4C124.6,20.2,124.9,20.3,125,20.2z M134.3,22.3c-0.1,0-0.2,0-0.3,0c-0.2,0.1-0.5,0.1-0.7,0.1
		c-0.4,0.1-0.8,0-1.2,0.2c-0.1,0-0.2,0-0.3,0c-2.6,0.4-5.2,0.9-7.8,1.5c-5.7,1.3-11.3,3-16.7,5.2c-5.8,2.4-11.4,5.2-16.6,8.8
		c-3.8,2.6-7.3,5.6-10.2,9.2c-2,2.4-3.7,4.9-4.8,7.8c-1.3,3-1.8,6.2-1.4,9.4c0.3,2.4,1.1,4.5,2.3,6.6c1.6,2.7,3.8,4.9,6.3,6.7
		c3.2,2.3,6.8,4,10.5,5.2c0.9,0.3,1.8,0.6,2.7,0.9c-0.4,0.2-0.9,0.1-1.3,0.3c1.2,0.2,2.3,0.2,3.5,0.3c-0.6-0.3-1.3-0.3-1.9-0.6
		c0.2-0.1,0.4-0.1,0.5-0.1c1-0.1,1.9-0.3,2.9-0.5c0.3,0.2,0.5,0,0.8,0c0.6-0.1,1.2-0.1,1.8-0.4c2.9-1.4,5.7-2.9,8.2-4.9
		c1.5-1.2,2.8-2.5,3.9-4.2c1.2-1.9,1.8-3.9,1.8-6.2c0-1.9-0.5-3.6-1.1-5.3c-1-2.4-2.3-4.6-3.9-6.7c-1.4-1.9-2.9-3.6-4.6-5.3
		c-0.4-0.4-0.7-0.9-1.2-1.2c0-0.2-0.1-0.3-0.3-0.4c-0.9-0.8-1.8-1.7-2.7-2.5c-0.6-0.6-1.3-1.2-1.9-1.7c0.1,0,0.3,0,0.4,0.1
		c4,2.2,8,4.6,11.7,7.3c3,2.2,5.8,4.5,8.3,7.3c1.5,1.7,2.8,3.5,3.7,5.6c0.7,1.6,1.1,3.3,1,5.1c-0.1,1.9-0.7,3.7-1.7,5.3
		c-0.1,0.2-0.2,0.3-0.2,0.5c-0.3,0.2-0.5,0.5-0.7,0.9c0.1,0,0.1,0,0.2,0c1.9-0.7,3.7-1.5,5.5-2.4c3.9-1.9,7.6-3.9,11.1-6.4
		c2.6-1.8,5.2-3.9,7.5-6.1c1.1-1.1,2.1-2.2,3.1-3.4c2.2-2.6,3.9-5.5,5.1-8.7c0.7-1.9,1.1-3.9,1.1-5.9c0-1-0.1-2.1-0.2-3.1
		c-0.3-1.7-0.8-3.2-1.5-4.7c-1.2-2.4-2.9-4.4-4.9-6.2c-1.9-1.6-3.9-3-6.1-4.2c-2.5-1.3-5.1-2.3-7.7-3.2c-0.2-0.1-0.5-0.1-0.7-0.1
		c-0.2-0.3-0.6-0.2-1-0.3c0.5-0.1,1.1-0.2,1.6-0.2c-0.5-0.2-4-0.6-4.8-0.6C132.3,21.8,133.4,21.9,134.3,22.3z"/>
	<path class="st2" d="M48.5,132c-0.5,0-1.1,0-1.6,0c0,0,0-0.1,0-0.1C47.5,131.9,48,131.9,48.5,132C48.5,131.9,48.5,132,48.5,132z"/>
	<path class="st3" d="M48.5,132C48.5,132,48.5,131.9,48.5,132c0.2-0.1,0.5-0.1,0.7-0.1c0,0,0,0.1,0,0.1C49,132,48.7,132,48.5,132z"
		/>
	<path class="st3" d="M46.9,131.9C46.9,131.9,46.9,132,46.9,131.9c-0.2,0.1-0.4,0.1-0.7,0.1c0,0,0-0.1,0-0.1
		C46.5,131.9,46.7,131.9,46.9,131.9z"/>
	<path class="st4" d="M43.2,108.5c2.3-1.7,4.9-3,7.8-3.4c2.2-0.2,4.4-0.3,6.6,0.3c0.8,0.2,1.5,0.5,2.2,0.8c0.2,0.1,0.3,0.2,0.2,0.4
		c-0.7,1.7-1.4,3.4-2.1,5c0,0,0,0.1-0.1,0.1c-0.2,0-0.4-0.3-0.7-0.2c-0.2-0.2-0.4-0.3-0.7-0.4c-1-0.3-1.9-0.6-2.9-0.7
		c-0.9-0.1-1.8-0.1-2.6,0c-0.9,0.2-1.7,0.5-2.4,1.1c-1.6,1-2.6,2.5-3.3,4.2c-0.5,1.3-0.8,2.6-0.9,3.9c-0.1,1.3,0.2,2.5,0.7,3.6
		c0.7,1.5,2,2.3,3.5,2.6c1.3,0.3,2.5,0.1,3.7-0.3c0.3-0.1,0.6-0.3,0.9-0.5c0,0,0.1-0.1,0.1-0.1c0,0,0,0,0,0c1.3-0.6,1.9-1.6,2.2-3
		c0-0.2,0-0.3-0.2-0.3c-0.1,0-0.3,0-0.4,0c-1.3,0.1-2.6-0.1-3.8-0.1c-0.3,0-0.4-0.1-0.4-0.4c0-0.5,0.1-0.9,0.2-1.4
		c0.1-0.8,0.3-1.5,0.3-2.3c0.1-0.7,0.1-0.7,0.8-0.7c3.2-0.1,6.4-0.1,9.5-0.1c0.2,0,0.4,0,0.7,0.1c-0.1,0.6-0.1,1.2-0.2,1.9
		c-0.2,1.7-0.5,3.3-1.1,4.9c-0.3,0.9-0.7,1.7-1.2,2.5c-0.7,1-1.5,2-2.5,2.6c-0.5,0.4-1.1,0.8-1.7,1.1c-0.2,0-0.4,0-0.5,0.3
		c0,0,0,0,0,0c-0.3-0.1-0.5,0.1-0.7,0.1c-0.3,0.1-0.5,0.2-0.8,0.3c-1.1,0.3-2.2,0.5-3.3,0.6c-1.1,0.1-2.1,0-3.2-0.1
		c-1.2-0.1-2.3-0.4-3.4-0.9c-1.1-0.5-2.1-1.1-2.9-1.9c-0.9-0.9-1.5-2-2-3.2c-0.6-1.6-0.8-3.2-0.8-4.9c0-0.9,0.1-1.8,0.3-2.7
		c0.3-1.4,0.7-2.7,1.3-4c0.8-1.5,1.8-2.9,3-4.1c0.1-0.1,0.3-0.2,0.3-0.5c0,0,0,0,0,0c0.1,0,0.1-0.1,0.1-0.1c0,0,0,0,0,0
		C43,108.8,43.2,108.7,43.2,108.5z"/>
	<path class="st1" d="M128.4,130.3c-1.2-0.8-2.5-1.5-3.5-2.5c-0.1-0.1-0.2-0.4-0.4-0.3c0.2-0.9,0.3-1.8,0.4-2.7
		c0.2-1.1,0.4-2.2,0.5-3.3c0.1-1,0.3-1.9,0.3-2.9c0-1.2-1-2.8-2.4-3c-0.1,0-0.2-0.1-0.3-0.1c0.7-2,1.8-3.7,3.2-5.2
		c2.3-2.5,5.1-4.1,8.4-4.8c1.5-0.3,3-0.3,4.4-0.1c1.2,0.1,2.4,0.4,3.6,0.8c0.5,0.2,0.5,0.2,0.5,0.7c0,0.1,0,0.2,0,0.2
		c0,0-0.1,0.1-0.1,0.1c-0.2,1-0.3,2-0.5,3.1c-0.1,0.7-0.2,1.5-0.4,2.2c-0.2,0.1-0.3,0-0.4-0.1c-1.7-0.9-3.5-1.2-5.5-1.1
		c-0.6,0-1.1,0.1-1.6,0.3c-1.8,0.5-3.2,1.6-4.3,3.1c-1.3,1.8-1.9,3.8-1.5,6.1c0.2,1,0.6,1.9,1.3,2.6c0.1,0.1,0.1,0.2,0.3,0.1
		c0.7,0.9,1.7,1.3,2.7,1.6c0.8,0.2,1.7,0.2,2.5,0.1c0.7-0.1,1.3-0.2,2-0.3c1-0.2,1.9-0.6,2.8-1.2c0,0.4-0.1,0.8-0.1,1.2
		c-0.1,0.5-0.2,1-0.2,1.4c-0.1,1.1-0.2,2.3-0.3,3.4c0,0.4-0.2,0.5-0.5,0.6c-0.1,0-0.2,0.1-0.3,0.1c-2.1,0.7-4.3,1-6.5,0.8
		c-1.4-0.1-2.8-0.4-4.1-0.9C128.6,130.2,128.5,130.2,128.4,130.3z"/>
	<path class="st1" d="M183.1,129.7c-0.2,0-0.4,0-0.6,0c-0.1-0.4,0.1-0.7-0.1-1.1c-0.2,0-0.3,0.2-0.4,0.3c-0.4,0.4-0.9,0.7-1.4,0.9
		c-1.4,0.6-2.8,0.7-4.2,0.4c-0.7-0.1-1.3-0.4-1.8-0.7c-0.1-0.1-0.2-0.2-0.3-0.1c-1.8-1.7-2.5-3.7-2.2-6.1c0.2-2.1,1.1-3.9,2.6-5.4
		c1.7-1.7,3.7-2.5,6-2.3c1.1,0.1,2.1,0.3,3,1.1c0.1,0.1,0.1,0.1,0.2,0.1c0.3,0.2,0.5,0.2,0.5-0.2c0.2-1.4,0.4-2.7,0.7-4.1
		c0.2-1.5,0.5-3.1,0.7-4.6c0.1-0.5,0.1-0.5,0.6-0.5c1.3,0,2.6,0,3.8-0.1c0.3,0,0.4,0.1,0.3,0.4c0,0.1,0,0.3,0,0.4
		c-0.1,0.1-0.1,0.2-0.1,0.3c-0.2,1.2-0.4,2.5-0.6,3.7c-0.2,1.4-0.4,2.8-0.6,4.2c-0.2,1.5-0.4,2.9-0.6,4.4c-0.2,1.4-0.4,2.8-0.6,4.2
		c-0.2,1.5-0.4,2.9-0.6,4.4c-0.1,0.5-0.1,0.5-0.6,0.5C185.6,129.7,184.4,129.7,183.1,129.7z M183.1,120.7L183.1,120.7
		c0-0.2-0.1-0.3-0.2-0.4c-0.3-0.3-0.7-0.5-1.1-0.6c-1.3-0.3-2.4,0-3.4,0.9c-0.9,0.7-1.4,1.7-1.3,2.9c0,0.7,0.2,1.5,0.9,1.9
		c0.4,0.5,1,0.7,1.6,0.8c2.1,0.2,4-1.3,4.2-3.4c0.1-0.7,0-1.4-0.5-2C183.3,120.7,183.2,120.7,183.1,120.7z"/>
	<path class="st2" d="M153.6,129.7c-0.2,0-0.5,0-0.7,0c0-0.4,0.2-0.8,0-1.2c-0.1,0-0.1,0-0.2,0.1c-0.9,0.8-1.9,1.3-3.1,1.5
		c-1.6,0.4-3.1,0.2-4.5-0.7c-0.1-0.1-0.3-0.3-0.5-0.2c-1.4-1.3-2.3-2.9-2.3-4.9c0-2.4,0.7-4.5,2.3-6.3c1.9-2.1,4.3-3,7.1-2.6
		c0.8,0.1,1.4,0.4,2,0.9c0.2,0.1,0.4,0.3,0.6,0.5c0.2-0.2,0.2-0.5,0.3-0.7c0.1-0.3,0.2-0.4,0.6-0.4c1.2,0,2.4,0,3.7,0
		c0.4,0,0.6-0.1,0.5,0.5c0,0.1,0,0.2,0,0.2c0,0-0.1,0.1-0.1,0.1c-0.2,1.4-0.4,2.9-0.6,4.3c-0.2,1.2-0.3,2.5-0.5,3.7
		c-0.2,1.5-0.4,3-0.6,4.5c-0.1,0.5-0.1,0.5-0.5,0.5c-1,0-2,0-3,0C154,129.6,153.8,129.6,153.6,129.7z M148.3,125.2
		c0,0,0.1,0.1,0.1,0.1c0.3,0.4,0.7,0.6,1.1,0.7c2.1,0.5,4.4-1.1,4.7-3.2c0.1-0.8,0-1.5-0.7-2.1c0.1-0.2,0-0.2-0.1-0.3
		c-0.5-0.5-1-0.7-1.7-0.8c-2-0.2-3.7,1.2-4.1,2.8c-0.3,0.9-0.2,1.7,0.3,2.4C148,125,148,125.2,148.3,125.2L148.3,125.2z"/>
	<path class="st5" d="M107.3,124c-0.2,0.2-0.4,0.1-0.6,0.1c-2.8,0-5.7,0-8.5,0c-0.7,0-0.7,0.1-0.6,0.7c0.2,0.9,0.9,1.6,1.8,1.7
		c1.2,0.1,2.4-0.1,3.2-1.1c0.1-0.1,0.2-0.2,0.3-0.2c1.4,0,2.8,0,4.3,0c-0.3,1.2-1.1,2.1-1.9,2.9c-0.1,0-0.1,0.1-0.1,0.1c0,0,0,0,0,0
		c-0.1,0-0.1,0.1-0.1,0.1c0,0,0,0,0,0c-0.2,0-0.3,0-0.5,0.1c-1.5,1-3.2,1.3-5,1.4c-1.3,0.1-2.6-0.2-3.8-0.7c-1.3-0.6-2.3-1.6-2.8-3
		c-0.6-1.7-0.6-3.5,0-5.2c0.2-0.7,0.5-1.3,0.8-1.9c0,0,0,0,0,0c0,0,0.1-0.1,0.1-0.1c1.4-2,3.2-3.4,5.6-3.9c1.5-0.3,2.9-0.4,4.4,0
		c2.5,0.7,4,2.5,4.2,5.1c0.1,0.9,0,1.8-0.1,2.7c-0.1,0.4-0.1,0.4-0.6,0.4c-0.1,0-0.2,0-0.3,0c-3,0-6.1,0-9.1,0c-0.1,0-0.1,0-0.2,0
		c-0.2,0-0.3,0.1-0.3,0.4c0,0.3,0.1,0.3,0.3,0.3c0.2,0,0.3,0,0.5,0C101.4,124,104.4,124,107.3,124z M98.9,119.2
		c-0.1,0-0.1,0.1-0.1,0.1c-0.2,0.2-0.4,0.4-0.5,0.7c-0.1,0.3,0,0.4,0.3,0.4c0.1,0,0.2,0,0.3,0c1.4,0,2.8-0.1,4.2-0.1
		c0.2,0,0.4,0,0.6,0c0.2,0,0.2-0.1,0.2-0.3c-0.2-1.2-0.9-1.8-1.7-2c-1.2-0.3-2.2,0.1-3.2,0.8C98.9,119,98.8,119.1,98.9,119.2
		L98.9,119.2L98.9,119.2z"/>
	<path class="st5" d="M89.6,124c-0.2,0.2-0.4,0.1-0.6,0.1c-2.8,0-5.6,0-8.4,0c-0.7,0-0.7,0-0.6,0.7c0.2,0.9,0.9,1.6,1.8,1.7
		c1.3,0.2,2.4,0,3.4-1c0.1-0.1,0.2-0.2,0.3-0.2c1.4,0,2.8,0,4.2,0c0,0,0,0,0.1,0.1c-0.4,1.3-1.3,2.2-2.3,3.1c0,0-0.1,0.1-0.1,0.1
		c0,0,0,0,0,0c-0.1,0-0.2,0-0.2,0.2c0,0,0,0,0,0c-0.1-0.1-0.2,0-0.3,0c-1.5,0.9-3.1,1.1-4.8,1.2c-0.8,0-1.5-0.1-2.2-0.2
		c-1.1-0.3-2.1-0.7-3-1.5c-1.2-1.1-1.6-2.5-1.7-4.1c-0.1-1.7,0.3-3.2,1.1-4.7c0.1-0.2,0.2-0.4,0.2-0.6c0,0,0,0,0,0
		c0.3-0.1,0.4-0.3,0.5-0.5c0,0,0,0,0,0c0,0,0.1-0.1,0.1-0.1c1.3-1.5,2.9-2.7,5-3.1c1.5-0.3,3.1-0.4,4.6,0c2.4,0.7,3.9,2.5,4.1,5
		c0.1,0.8,0,1.7-0.1,2.5c-0.1,0.6-0.1,0.6-0.7,0.6c-0.1,0-0.3,0-0.4,0c-3,0-5.9,0-8.9,0c-0.1,0-0.2,0-0.2,0c-0.2,0-0.3,0.1-0.3,0.4
		c0,0.3,0.1,0.3,0.3,0.3c0.2,0,0.3,0,0.5,0C83.7,124,86.6,124,89.6,124z M81.3,119.1c-0.4,0.3-0.7,0.7-0.7,1.4
		c1.6,0,3.2-0.1,4.7-0.1c0.2,0,0.5,0,0.7,0c0.1,0,0.2-0.1,0.2-0.2c0-0.7-0.7-1.7-1.4-1.9c-1.1-0.4-2.2-0.2-3.2,0.4
		C81.6,118.7,81.3,118.8,81.3,119.1z"/>
	<path class="st4" d="M123.1,115.5c0.1,0,0.2,0.1,0.3,0.1c1.4,0.3,2.3,1.8,2.4,3c0,1-0.1,1.9-0.3,2.9c-0.2,1.1-0.4,2.2-0.5,3.3
		c-0.1,0.9-0.3,1.8-0.4,2.7c-0.1,0.6-0.2,1.1-0.2,1.7c0,0.2-0.1,0.4-0.4,0.4c-0.1,0-0.3,0-0.4,0c-1.1,0-2.1,0-3.2,0
		c-0.2,0-0.3,0-0.5,0c-0.2,0-0.3-0.1-0.3-0.3c0-0.1,0-0.2,0-0.3c0.1-0.9,0.3-1.9,0.4-2.8c0.1-0.9,0.3-1.9,0.4-2.8
		c0.1-0.9,0.2-1.9,0.2-2.8c0-0.6-0.3-1.1-0.9-1.3c-0.8-0.3-1.6-0.2-2.3,0.2c-0.1,0.1-0.3,0.2-0.3,0.4c0,0,0,0,0,0c0,0-0.1,0-0.1,0.1
		c-0.6,0.4-0.9,1.1-1,1.8c-0.4,2.5-0.8,5-1.2,7.5c-0.1,0.5,0,0.5-0.6,0.5c-0.1,0-0.2,0-0.2,0c-1.1,0-2.2,0-3.3,0c-0.2,0-0.3,0-0.5,0
		c-0.2,0-0.3-0.1-0.3-0.3c0.1-0.3,0.1-0.6,0.1-0.9c0.2-0.9,0.3-1.7,0.4-2.6c0.1-0.9,0.2-1.8,0.4-2.7c0.2-1.1,0.4-2.3,0.5-3.4
		c0.2-1.1,0.3-2.1,0.5-3.2c0-0.1,0-0.3,0-0.4c0-0.2,0.1-0.3,0.3-0.3c1.4,0,2.9,0,4.3,0c0,0,0.1,0,0.1,0.1c0.1,0.5-0.3,1-0.2,1.6
		C118.3,115.9,120.5,115,123.1,115.5z"/>
	<path class="st6" d="M86.2,23.2c-1.2,0.3-2.3,0.7-3.5,1c-2.8,0.8-5.6,1.7-8.3,2.8c-3.5,1.3-7,2.9-10.3,4.6c-3.8,2-7.5,4.3-10.9,6.9
		c-2.1,1.6-4,3.3-5.8,5.2c-2.5,2.7-4.7,5.6-6.3,8.9c-0.9,2-1.5,4-1.8,6.1c-0.5,4.5,0.6,8.6,3.3,12.3c2,2.8,4.6,4.9,7.5,6.6
		c3.7,2.2,7.6,3.7,11.8,4.8c1.9,0.5,3.8,0.9,5.7,1.3c0.4,0.1,0.7,0.2,1.1,0.3c1.1,0.3,2.2,0.6,3.5,0.9c-0.7,0.1-1.2-0.1-1.8-0.1
		c-3.3-0.3-6.5-0.9-9.7-1.7c-4.6-1.1-9-2.7-13-5.2c-2.8-1.7-5.2-3.7-7.2-6.3c-1.8-2.4-3-5-3.5-7.9c-0.4-2.7-0.1-5.4,0.7-8
		c1-3.3,2.8-6.2,4.9-8.9c2.8-3.6,6.2-6.6,9.9-9.3C57.5,34,63,31,68.8,28.6c5.5-2.3,11.1-4.1,16.8-5.5c0.1,0,0.1,0,0.2,0
		C86,23.1,86.1,23.1,86.2,23.2z"/>
	<path class="st2" d="M161.2,129.9c-0.7-0.1-0.7-0.1-0.6-0.8c0.3-2.3,0.7-4.7,1-7c0.3-1.9,0.5-3.8,0.8-5.7c0-0.2,0.1-0.4,0.4-0.4
		c1.4,0,2.8,0,4.2,0c0.2,0,0.3,0.1,0.3,0.3c0,0.1,0,0.2,0,0.3c-0.1,0.3-0.1,0.7-0.1,1.1c0.3-0.2,0.5-0.4,0.7-0.7
		c0.4-0.2,0.7-0.5,1.1-0.7c0.7-0.4,1.5-0.5,2.3-0.6c0.1,0,0.4,0,0.3,0.2c-0.1,0.5,0.2,0.4,0.5,0.4c0.1,0,0.1,0,0.1,0.1
		c-0.1,0-0.3,0-0.4,0c-0.2,0-0.3,0.1-0.3,0.3c-0.1,0.9-0.2,1.7-0.3,2.6c0,0.3-0.1,0.4-0.4,0.4c-0.6,0.1-1.2,0.1-1.8,0.3
		c-1,0.3-1.8,0.9-2.1,2c-0.1,0.4-0.3,0.8-0.4,1.2c-0.4,1.5-0.6,3-0.8,4.5c-0.1,0.6-0.2,1.2-0.3,1.8c-0.1,0.2-0.1,0.3-0.4,0.3
		c-0.5,0-1.1,0-1.6,0C162.6,129.8,161.9,129.8,161.2,129.9z"/>
	<path class="st4" d="M70,120.7c-0.3,0.3-0.4,0.6-0.6,1c-0.5,1.4-0.8,2.8-1,4.2c-0.2,1-0.3,2-0.5,3.1c-0.1,0.6-0.1,0.6-0.7,0.6
		c-0.1,0-0.1,0-0.2,0c-0.3,0-0.5,0-0.8,0c-0.9,0-1.8,0-2.7,0c-0.4,0-0.4,0-0.4-0.4c0-0.1,0-0.2,0-0.3c0.1-0.7,0.2-1.4,0.3-2.1
		c0.1-0.9,0.3-1.8,0.4-2.7c0.1-0.9,0.3-1.9,0.4-2.8c0.1-0.9,0.3-1.8,0.4-2.8c0.1-0.8,0.3-1.5,0.3-2.3c0,0,0-0.1,0.1-0.1
		c0.1-0.6,0.1-0.6,0.8-0.6c1.2,0,2.4,0,3.6,0c0.4,0,0.4,0,0.3,0.4c-0.1,0.4-0.1,0.8-0.2,1.2c0,0.2-0.1,0.4,0,0.6
		c0.2,0,0.3-0.2,0.5-0.3c0.9-0.7,1.9-1.4,3.1-1.8c0.3-0.1,0.6-0.2,0.9-0.2c0.2,0,0.3,0.1,0.3,0.3c-0.1,0.4-0.1,0.9-0.2,1.3
		c-0.1,0.7-0.2,1.4-0.3,2.1c-0.1,0.4-0.1,0.4-0.5,0.4c-0.1,0-0.2,0-0.3,0c-0.6-0.1-1.2,0.1-1.7,0.3C70.8,119.9,70.3,120.2,70,120.7z
		"/>
	<path class="st7" d="M42.7,108.9c0,0.2-0.1,0.3-0.3,0.5c-1.2,1.2-2.2,2.5-3,4.1c-0.7,1.3-1,2.6-1.3,4c-0.2,0.9-0.3,1.8-0.3,2.7
		c0,1.7,0.2,3.3,0.8,4.9c0.5,1.2,1.1,2.3,2,3.2c0.8,0.8,1.8,1.5,2.9,1.9c1.1,0.5,2.2,0.8,3.4,0.9c1.1,0.1,2.1,0.2,3.2,0.1
		c1.1-0.1,2.2-0.3,3.3-0.6c0.3-0.1,0.5-0.2,0.8-0.3c0.2-0.1,0.4-0.2,0.7-0.1c-0.8,0.6-1.8,0.9-2.8,1.2c-0.8,0.2-1.6,0.4-2.4,0.5
		c-0.2,0-0.3,0.1-0.5,0.1c-0.2,0-0.4,0-0.7,0c-0.5,0-1.1,0-1.6,0c-0.2,0-0.4,0-0.7,0c-0.8-0.2-1.5-0.2-2.3-0.5
		c-2.3-0.6-4.2-1.8-5.5-3.8c-1-1.5-1.6-3.2-1.7-5c-0.4-5.4,1.4-9.9,5.5-13.4C42.5,109.1,42.6,108.9,42.7,108.9z"/>
	<path class="st8" d="M77.5,85.3c0.2,0.2,0.4,0.1,0.5,0.1c1.1,0,2.2,0.3,3.3,0.4c0.8,0.1,1.7,0.2,2.5,0.3c1.5,0.1,3,0.3,4.6,0.3
		c1.3,0.1,2.6,0,4,0c0.4,0,0.7,0,1.1,0c-0.5,0.3-1,0.4-1.5,0.6c-2.9,1-5.8,1.9-8.7,2.8c-3.4,1-6.8,2-10.1,2.9
		c-3.1,0.9-6.2,1.8-9.3,2.7c-0.1,0-0.1,0-0.1,0.1c1.3-0.1,2.6-0.1,3.9-0.2c0,0,0,0.1,0,0.1c-2.2,0.2-4.3,0.3-6.5,0.4
		c0.2-0.2,0.5-0.2,0.7-0.3c5.4-1.6,10.8-3.1,16.2-4.7c4.1-1.2,8.2-2.5,12.2-3.9c0.2-0.1,0.5-0.1,0.7-0.3c-5.8,0-11.4-0.4-17-1.5
		c0.3-0.2,0.6,0,0.9-0.1c0.7,0,1.4,0,2,0.1C77.1,85.4,77.3,85.4,77.5,85.3z"/>
	<path class="st9" d="M130.7,123.4c-0.1,0.1-0.2,0-0.3-0.1c-0.7-0.7-1.1-1.6-1.3-2.6c-0.5-2.2,0.2-4.3,1.5-6.1
		c1.1-1.5,2.5-2.6,4.3-3.1c0.5-0.2,1.1-0.2,1.6-0.3c1.9-0.1,3.7,0.2,5.5,1.1c0.1,0,0.2,0.1,0.4,0.1c0.1-0.7,0.2-1.4,0.4-2.2
		c0.2-1,0.3-2,0.5-3.1c0-0.1,0.1-0.1,0.1-0.1c0.4,0.2,0.4,0.2,0.4,0.6c-0.2,1.8-0.6,3.7-0.9,5.6c-0.3-0.1-0.5-0.3-0.8-0.4
		c-1.6-0.8-3.3-1.1-5-0.9c-1.8,0.2-3.3,0.9-4.5,2.2c-1.6,1.7-2.5,3.7-2.5,6C129.9,121.3,130.1,122.4,130.7,123.4z"/>
	<path class="st9" d="M183.1,129.7c1.2,0,2.5,0,3.7-0.1c0.5,0,0.5,0,0.6-0.5c0.2-1.5,0.4-2.9,0.6-4.4c0.2-1.4,0.4-2.8,0.6-4.2
		c0.2-1.5,0.4-2.9,0.6-4.4c0.2-1.4,0.4-2.8,0.6-4.2c0.2-1.2,0.4-2.5,0.6-3.7c0-0.1,0-0.2,0.1-0.3c0.2,0,0.4,0,0.7,0.1
		c-0.1,0.8-0.2,1.7-0.4,2.5c-0.4,2.5-0.7,4.9-1.1,7.4c-0.4,2.5-0.7,5-1.1,7.5c-0.2,1.5-0.4,3.1-0.7,4.6c-0.1,0.5-0.1,0.5-0.5,0.5
		c-1.2,0-2.5,0.1-3.7,0.1c-0.7,0-0.6,0.1-0.6-0.6C183.1,129.8,183.1,129.8,183.1,129.7z"/>
	<path class="st9" d="M161.2,129.9c0.7-0.2,1.5-0.1,2.2,0c0.5,0,1.1,0,1.6,0c0.2,0,0.3-0.1,0.4-0.3c0.1-0.6,0.2-1.2,0.3-1.8
		c0.2-1.5,0.4-3,0.8-4.5c0.1-0.4,0.2-0.8,0.4-1.2c0.4-1.1,1.1-1.7,2.1-2c0.6-0.2,1.2-0.2,1.8-0.3c0.3,0,0.4-0.1,0.4-0.4
		c0.1-0.9,0.2-1.7,0.3-2.6c0-0.2,0.1-0.3,0.3-0.3c0.1,0,0.3,0,0.4,0c0,0.9-0.2,1.9-0.3,2.8c0,0.2-0.1,0.5-0.1,0.7
		c-0.1,0.4-0.1,0.4-0.5,0.4c-0.5,0-1.1,0.1-1.6,0.2c-1.1,0.3-1.9,0.9-2.3,2c-0.4,1.3-0.7,2.6-0.9,4c-0.2,1.2-0.4,2.3-0.6,3.5
		c0,0.2-0.1,0.4-0.3,0.4c-1.5,0-3,0-4.4,0C161,130.3,161.2,130.1,161.2,129.9z"/>
	<path class="st9" d="M76.3,118.9c0,0.2-0.1,0.4-0.2,0.6c-0.8,1.5-1.2,3.1-1.1,4.7c0.1,1.5,0.5,3,1.7,4.1c0.8,0.8,1.9,1.2,3,1.5
		c0.7,0.2,1.5,0.3,2.2,0.2c1.7-0.1,3.3-0.3,4.8-1.2c0.1-0.1,0.2-0.1,0.3,0c-0.6,0.6-1.4,1.1-2.2,1.4c-2.1,0.7-4.2,0.9-6.4,0.3
		c-2.5-0.7-3.9-2.5-4.1-5.1c-0.2-2.2,0.3-4.1,1.6-5.9C76.1,119.1,76.2,119,76.3,118.9z"/>
	<path class="st9" d="M93.9,119.1c-0.2,0.7-0.6,1.3-0.8,1.9c-0.5,1.8-0.6,3.5,0,5.2c0.5,1.4,1.5,2.4,2.8,3c1.2,0.5,2.5,0.8,3.8,0.7
		c1.8-0.1,3.5-0.4,5-1.4c0.1-0.1,0.3-0.2,0.5-0.1c-0.7,0.8-1.6,1.3-2.5,1.6c-2.1,0.8-4.3,0.9-6.5,0.3c-2.4-0.7-3.8-2.5-4-4.9
		c-0.2-2,0.2-3.9,1.3-5.6C93.6,119.5,93.7,119.3,93.9,119.1z"/>
	<path class="st9" d="M153.6,129.7c0.2-0.1,0.4-0.1,0.5-0.1c1,0,2,0,3,0c0.5,0,0.5,0,0.5-0.5c0.2-1.5,0.4-3,0.6-4.5
		c0.2-1.2,0.3-2.5,0.5-3.7c0.2-1.4,0.4-2.9,0.6-4.3c0-0.1,0.1-0.1,0.1-0.1c0,0,0,0,0.1,0c0.6,0,0.6,0,0.5,0.6
		c-0.5,3.4-0.9,6.9-1.4,10.3c-0.1,0.9-0.2,1.7-0.4,2.6c0,0.2,0,0.4-0.3,0.4c-1.4,0-2.9,0-4.4,0C153.6,130.2,153.6,129.9,153.6,129.7
		z"/>
	<path class="st7" d="M65,116.1c0,0.8-0.2,1.6-0.3,2.3c-0.1,0.9-0.3,1.8-0.4,2.8c-0.1,0.9-0.3,1.9-0.4,2.8c-0.1,0.9-0.3,1.8-0.4,2.7
		c-0.1,0.7-0.2,1.4-0.3,2.1c0,0.1,0,0.2,0,0.3c0,0.3,0,0.4,0.4,0.4c0.9,0,1.8,0,2.7,0c0.3,0,0.5,0,0.8,0c0,0.1,0,0.3-0.1,0.4
		c0,0.2-0.1,0.3-0.3,0.3c-1.4,0-2.9,0-4.4,0c0.1-0.7,0.2-1.3,0.3-2c0.4-2.6,0.7-5.1,1.1-7.7c0.2-1.3,0.4-2.7,0.6-4
		c0.1-0.5,0.1-0.5,0.6-0.5C64.9,116.1,65,116.1,65,116.1z"/>
	<path class="st7" d="M111.5,116.3c-0.2,1.1-0.3,2.1-0.5,3.2c-0.2,1.1-0.4,2.3-0.5,3.4c-0.1,0.9-0.2,1.8-0.4,2.7
		c-0.1,0.9-0.2,1.7-0.4,2.6c-0.1,0.3,0,0.6-0.1,0.9c-0.1,0.2,0,0.3,0.3,0.3c0.2,0,0.3,0,0.5,0c1.1,0,2.2,0,3.3,0
		c0,0.1-0.1,0.1-0.1,0.2c0,0.3-0.2,0.4-0.5,0.4c-1.3,0-2.6,0-3.8,0c-0.4,0-0.5,0-0.4-0.4c0.2-1.5,0.4-2.9,0.6-4.4
		c0.4-2.5,0.7-5,1.1-7.4c0.1-0.4,0.1-0.8,0.2-1.2c0-0.3,0.2-0.4,0.5-0.4C111.3,116.4,111.4,116.3,111.5,116.3z"/>
	<path class="st7" d="M116.9,119.7c0-0.2,0.2-0.3,0.3-0.4c0.7-0.4,1.5-0.5,2.3-0.2c0.6,0.2,0.9,0.6,0.9,1.3c0,0.9-0.1,1.9-0.2,2.8
		c-0.1,0.9-0.2,1.9-0.4,2.8c-0.1,0.9-0.3,1.9-0.4,2.8c0,0.1,0,0.2,0,0.3c0,0.2,0.1,0.4,0.3,0.3c0.2,0,0.3,0,0.5,0c1.1,0,2.1,0,3.2,0
		c0,0.1-0.1,0.2-0.1,0.3c0,0.2-0.1,0.3-0.3,0.3c-1.3,0-2.7,0-4,0c-0.3,0-0.3-0.1-0.3-0.3c0.3-1.9,0.6-3.8,0.8-5.7
		c0.1-0.9,0.2-1.8,0.3-2.7c0.1-1-0.6-1.7-1.6-1.8C117.7,119.5,117.3,119.6,116.9,119.7z"/>
	<path class="st9" d="M128.4,130.3c0.1-0.1,0.2-0.1,0.3,0c1.3,0.5,2.7,0.8,4.1,0.9c2.2,0.2,4.4-0.2,6.5-0.8c0.1,0,0.2-0.1,0.3-0.1
		c0.3-0.1,0.5-0.3,0.5-0.6c0.1-1.1,0.2-2.3,0.3-3.4c0-0.5,0.1-1,0.2-1.4c0.1-0.1,0.3-0.1,0.4-0.2c0.1,0.1,0.1,0.3,0,0.4
		c-0.1,1.8-0.2,3.5-0.5,5.3c0,0.4-0.2,0.5-0.5,0.6c-1.9,0.7-3.9,1.1-5.9,1c-1.5,0-2.9-0.3-4.3-0.8
		C129.4,130.8,128.9,130.6,128.4,130.3z"/>
	<path class="st7" d="M51,117.6c0,0.8-0.2,1.5-0.3,2.3c-0.1,0.5-0.2,0.9-0.2,1.4c0,0.3,0.1,0.4,0.4,0.4c1.3,0,2.6,0.2,3.8,0.1
		c0.1,0,0.3,0,0.4,0c0.2,0,0.3,0.1,0.2,0.3c-0.3,1.3-0.9,2.4-2.2,3c0.6-0.7,1-1.5,1.1-2.5c-0.4-0.1-0.7-0.1-1.1-0.1
		c-1.1,0-2.2,0-3.3,0c-0.6,0-0.5,0-0.5-0.5c0.2-1.3,0.4-2.7,0.6-4c0-0.2,0.1-0.3,0.4-0.3C50.6,117.7,50.8,117.6,51,117.6z"/>
	<path class="st7" d="M48.4,111.6c0.7-0.6,1.5-0.9,2.4-1.1c0.9-0.2,1.7-0.1,2.6,0c1,0.1,2,0.4,2.9,0.7c0.2,0.1,0.5,0.2,0.7,0.4
		c-0.1,0.3-0.2,0.6-0.4,1c-0.5-0.2-1-0.4-1.4-0.6c-1.7-0.7-3.4-0.9-5.2-0.7C49.5,111.2,48.9,111.4,48.4,111.6z"/>
	<path class="st9" d="M144.7,129.3c0.2-0.1,0.3,0.1,0.5,0.2c1.4,0.9,2.9,1.1,4.5,0.7c1.2-0.3,2.2-0.7,3.1-1.5c0,0,0.1,0,0.2-0.1
		c0.2,0.4-0.1,0.8,0,1.2c-2.3,1.6-5.7,2-8.1-0.3C144.8,129.4,144.7,129.3,144.7,129.3z"/>
	<path class="st10" d="M107.3,124c-3,0-5.9,0-8.9,0c-0.2,0-0.3,0-0.5,0c-0.2,0-0.4-0.1-0.3-0.3c0-0.2,0.1-0.4,0.3-0.4
		c0.1,0,0.1,0,0.2,0c3,0,6.1,0,9.1,0c0.1,0,0.2,0,0.3,0C107.4,123.5,107.5,123.8,107.3,124z"/>
	<path class="st9" d="M174.3,129.3c0.2-0.1,0.2,0.1,0.3,0.1c0.6,0.4,1.2,0.6,1.8,0.7c1.4,0.3,2.8,0.2,4.2-0.4c0.5-0.2,1-0.5,1.4-0.9
		c0.1-0.1,0.2-0.3,0.4-0.3c0.2,0.4,0,0.7,0.1,1.1c-0.8,0.8-1.8,1.1-2.9,1.3c-0.8,0.1-1.7,0.1-2.5-0.1
		C176,130.7,175.1,130.1,174.3,129.3z"/>
	<path class="st10" d="M89.6,124c-2.9,0-5.9,0-8.8,0c-0.2,0-0.3,0-0.5,0c-0.2,0-0.4-0.1-0.3-0.3c0-0.2,0.1-0.4,0.3-0.4
		c0.1,0,0.2,0,0.2,0c3,0,5.9,0,8.9,0c0.1,0,0.3,0,0.4,0C89.7,123.5,89.7,123.8,89.6,124z"/>
	<path class="st8" d="M107.9,86.8c0.6-0.4,1.2-0.6,2-0.4c0.1,0,0.1,0,0.2,0c0.8,0,1.5,0.1,2.3,0.1c2.3,0.1,4.6,0.1,6.8,0.1
		c1.4,0,2.8-0.1,4.2-0.2c0,0.1,0,0.1,0,0.2c-4.6,0.4-9.1,0.5-13.7,0.3C109.1,86.9,108.5,86.9,107.9,86.8z"/>
	<path class="st8" d="M70,120.7c0.3-0.5,0.8-0.7,1.3-0.9c0.6-0.2,1.1-0.4,1.7-0.3c-0.1,0.2,0,0.5-0.2,0.7c-0.2,0.1-0.5,0-0.7,0
		C71.4,120.2,70.7,120.4,70,120.7z"/>
	<path class="st5" d="M67.6,95.6c0,0,0-0.1,0-0.1c0.3-0.1,0.7-0.1,1-0.2c1-0.1,2.1-0.1,3.1-0.3c0.8-0.1,1.6-0.2,2.4-0.3
		c0.8-0.1,1.6-0.2,2.4-0.3c-0.9,0.2-1.8,0.3-2.7,0.4c-1.9,0.2-3.8,0.4-5.7,0.7C68,95.6,67.8,95.6,67.6,95.6z"/>
	<path class="st8" d="M86.2,23.2c-0.1-0.1-0.2-0.1-0.3-0.1c0.8-0.3,1.7-0.4,2.6-0.6c1.4-0.3,2.9-0.6,4.3-0.8c0.1,0,0.2,0,0.3,0
		c-2.3,0.5-4.5,1-6.8,1.6C86.3,23.2,86.2,23.2,86.2,23.2z"/>
	<path class="st5" d="M123.4,86.6c0-0.1,0-0.1,0-0.2c1.1-0.1,2.2-0.1,3.4-0.3c0.8-0.1,1.6-0.2,2.4-0.2c-0.7,0.2-1.4,0.2-2,0.3
		c-1.1,0.1-2.3,0.2-3.4,0.4C123.6,86.6,123.5,86.6,123.4,86.6z"/>
	<path class="st7" d="M167.8,117.2c-0.2,0.2-0.4,0.4-0.7,0.7c-0.1-0.4-0.1-0.8,0.1-1.1c0.1,0,0.2,0,0.3,0
		C167.8,116.7,167.8,116.7,167.8,117.2z"/>
	<path class="st2" d="M125,20.2c-0.1,0.1-0.3,0-0.4,0.2c-0.5,0.1-1.1,0.1-1.6,0.1c0.2-0.3,0.5-0.1,0.7-0.1c0.1,0,0.1,0,0-0.2
		C124.1,20.2,124.5,20.2,125,20.2z"/>
	<path class="st2" d="M74.5,84.7c0.1,0,0.2,0,0.3-0.1c0.5,0.1,1.1,0,1.6,0.2c-0.1,0-0.3,0-0.4,0.1C75.4,84.8,74.9,84.8,74.5,84.7z"
		/>
	<path class="st2" d="M74.8,85.3c-0.3,0.1-0.6-0.1-0.9,0.1c-0.3,0-0.7-0.1-1.1-0.2C73.6,85.2,74.2,85.1,74.8,85.3z"/>
	<path class="st9" d="M76.8,118.3c-0.1,0.2-0.2,0.5-0.5,0.5C76.4,118.6,76.6,118.5,76.8,118.3z"/>
	<path class="st5" d="M129.2,85.9c0.2-0.2,0.5,0,0.7-0.1C129.7,86,129.4,85.9,129.2,85.9z"/>
	<path class="st7" d="M54.9,130.1c0.1-0.3,0.3-0.3,0.5-0.3C55.2,130,55.1,130.1,54.9,130.1z"/>
	<path class="st7" d="M43.2,108.5c0,0.2-0.2,0.3-0.3,0.3C42.9,108.7,43.1,108.6,43.2,108.5z"/>
	<path class="st9" d="M87.1,128.7c0-0.1,0.1-0.2,0.2-0.2C87.3,128.6,87.2,128.6,87.1,128.7z"/>
	<path class="st9" d="M87.3,128.5c0,0,0.1-0.1,0.1-0.1C87.4,128.4,87.4,128.5,87.3,128.5z"/>
	<path class="st7" d="M42.9,108.8c0,0.1-0.1,0.1-0.1,0.1C42.7,108.8,42.8,108.8,42.9,108.8z"/>
	<path class="st7" d="M53.2,125.1C53.1,125.1,53.1,125.2,53.2,125.1C53.1,125.2,53.1,125.1,53.2,125.1z"/>
	<path class="st9" d="M76.9,118.2c0,0-0.1,0.1-0.1,0.1C76.8,118.3,76.9,118.2,76.9,118.2z"/>
	<path class="st9" d="M94,119c0,0-0.1,0.1-0.1,0.1C93.9,119,93.9,119,94,119z"/>
	<path class="st7" d="M116.8,119.7C116.8,119.7,116.8,119.7,116.8,119.7C116.8,119.7,116.8,119.7,116.8,119.7z"/>
	<path class="st9" d="M105.2,128.4c0-0.1,0.1-0.1,0.1-0.1C105.3,128.3,105.3,128.4,105.2,128.4z"/>
	<path class="st9" d="M105.3,128.3c0-0.1,0.1-0.1,0.1-0.1C105.4,128.2,105.4,128.3,105.3,128.3z"/>
	<path class="st6" d="M90.6,84.5c-2.3-0.3-4.6-0.7-6.9-1.3c-3.9-0.9-7.7-2.2-11.3-4.1c-2.8-1.5-5.4-3.2-7.6-5.5
		c-2.2-2.3-3.9-4.9-4.7-8c-1-3.5-0.7-6.9,0.4-10.3c1.1-3.2,2.8-6,4.9-8.6c2.9-3.6,6.4-6.7,10.1-9.4c5.3-3.8,11.1-6.8,17.2-9.3
		c4.6-1.9,9.2-3.4,14-4.6c0.1,0,0.2,0,0.3,0c0.1,0,0.3-0.1,0.4,0.1c-1.2,0.3-2.3,0.7-3.5,1c-3.1,0.9-6.2,2.1-9.2,3.3
		c-1.5,0.6-3,1.3-4.5,2c-3.9,1.9-7.7,4-11.3,6.5c-1.9,1.3-3.7,2.7-5.4,4.2c-0.9,0.8-1.8,1.6-2.6,2.4c-2.1,2.2-4.1,4.5-5.6,7.2
		c-1.5,2.5-2.6,5.1-3,8c-0.5,3.4-0.1,6.6,1.3,9.8c1.3,2.8,3.2,5,5.5,7c2.4,2,5,3.6,7.9,4.9c3.7,1.7,7.6,2.8,11.6,3.6
		c1.3,0.3,2.6,0.5,3.9,0.7c0.1,0,0.3,0.1,0.4,0.1c0.1,0.2,0.3,0.1,0.4,0.2c-0.6,0.2-1.2,0.1-1.9,0.2C91.1,84.6,90.9,84.4,90.6,84.5z
		"/>
	<path class="st6" d="M129.7,81.8c1.2-0.3,2.4-0.7,3.6-1c7.3-2.1,14.3-5,21-8.7c4.6-2.6,8.9-5.6,12.8-9.3c2.7-2.6,5-5.4,6.8-8.6
		c1.2-2.1,2.1-4.4,2.6-6.8c0.9-4.8-0.1-9.1-2.8-13.1c-1.9-2.7-4.3-4.8-7-6.5c-3.4-2.2-7.1-3.7-10.9-4.9c-0.9-0.3-1.9-0.5-2.8-0.8
		c-0.2-0.1-0.4-0.1-0.6-0.2c1.7,0.1,3.3,0.3,5,0.5c0.1,0,0.2,0,0.3,0c1.9,0.4,3.6,1.1,5.4,1.8c3.1,1.3,6,2.9,8.6,5
		c2.5,2,4.5,4.3,5.9,7.2c0.8,1.7,1.4,3.6,1.6,5.5c0.3,3.3-0.3,6.4-1.6,9.5c-1.1,2.5-2.6,4.8-4.3,7c-1.1,1.4-2.4,2.7-3.7,4
		c-1.5,1.4-3,2.7-4.6,4c-2.9,2.2-6,4.2-9.2,5.9c-3.2,1.7-6.5,3.3-9.9,4.7c-4.6,1.9-9.3,3.4-14.2,4.6c-0.6,0.2-1.2,0.3-1.8,0.4
		C129.9,81.9,129.8,81.9,129.7,81.8z"/>
	<path class="st10" d="M123.7,76.1c5.4-2.4,10.6-5.2,15.3-8.8c3.6-2.7,6.9-5.7,9.6-9.2c2-2.6,3.6-5.4,4.6-8.5c0.7-2.3,1-4.6,0.8-7
		c-0.3-3.2-1.4-6-3.3-8.6c-1.9-2.6-4.4-4.7-7.1-6.5c-3.3-2.1-6.8-3.5-10.5-4.6c-0.3-0.1-0.7-0.2-1-0.3c0.4-0.2,0.8-0.2,1.2-0.2
		c0.2,0,0.5-0.1,0.7-0.1c0.4,0.3,0.9,0.2,1.4,0.3c0.2,0,0.5,0.1,0.7,0.1c2.7,0.8,5.3,1.9,7.7,3.2c2.2,1.2,4.2,2.5,6.1,4.2
		c2,1.8,3.7,3.8,4.9,6.2c0.8,1.5,1.3,3.1,1.5,4.7c0.2,1,0.2,2.1,0.2,3.1c-0.1,2-0.5,4-1.1,5.9c-1.1,3.2-2.9,6.1-5.1,8.7
		c-1,1.2-2,2.3-3.1,3.4c-2.3,2.2-4.8,4.3-7.5,6.1c-3.5,2.4-7.2,4.5-11.1,6.4c-1.8,0.9-3.6,1.7-5.5,2.4c0,0-0.1,0-0.2,0
		C123.2,76.6,123.4,76.3,123.7,76.1z"/>
	<path class="st10" d="M99.8,83.4c2.6-1.2,5.1-2.6,7.5-4.3c1.5-1.1,2.8-2.3,3.9-3.7c1.8-2.3,2.7-4.9,2.5-7.8
		c-0.1-1.8-0.6-3.5-1.3-5.1c-1.1-2.6-2.6-4.9-4.4-7c-2.6-3.3-5.5-6.2-8.6-9c-0.4-0.3-0.7-0.7-1.1-1c0,0,0.1-0.1,0.1-0.1
		c2.2,1.2,4.4,2.5,6.5,3.8c0.1,0.2,0.3,0.3,0.5,0.3c0.5,0.3,0.8,0.8,1.2,1.2c1.7,1.7,3.2,3.4,4.6,5.3c1.6,2.1,2.9,4.2,3.9,6.7
		c0.7,1.7,1.1,3.5,1.1,5.3c0,2.2-0.6,4.3-1.8,6.2c-1,1.6-2.4,3-3.9,4.2c-2.5,2-5.3,3.5-8.2,4.9c-0.5,0.3-1.2,0.3-1.8,0.4
		C100.3,83.4,100,83.6,99.8,83.4z"/>
	<path class="st8" d="M151.7,21.3c-0.5,0-1-0.1-1.5,0c0.5,0.3,1,0.2,1.4,0.5c-0.9,0-1.8-0.1-2.6-0.1c-2.2-0.1-4.4-0.1-6.6,0
		c-0.2,0-0.5,0-0.7,0c-0.5,0-1.1-0.1-1.6,0.1c-0.2,0-0.4,0-0.6,0c-0.3-0.1-0.5,0.1-0.8-0.1c1.3-0.1,2.6-0.2,3.9-0.3
		c0.3,0,0.6,0,0.8,0c1.8-0.1,3.5-0.1,5.3-0.1c0.8,0,1.7,0.2,2.5,0.1C151.4,21.3,151.5,21.4,151.7,21.3z"/>
	<path class="st9" d="M123,20.5c0.5,0,1.1,0,1.6-0.1c1.1,0,2.2,0.2,3.2,0.4c0.8,0.1,1.5,0.3,2.3,0.5c-0.3,0-0.7,0-1,0
		c-0.8-0.1-1.6-0.1-2.4-0.1c-0.8,0-1.6-0.1-2.4-0.2c-0.7-0.1-1.4-0.2-2.1-0.3C122.4,20.5,122.7,20.7,123,20.5z"/>
	<path class="st8" d="M107.3,23.5c-0.1-0.2-0.3-0.1-0.4-0.1c1-0.3,2.1-0.6,3.2-0.8c1.1-0.2,2.1-0.4,3.2-0.7c0.1,0,0.3,0,0.2-0.2
		c-0.1-0.1-0.2-0.1-0.3,0c-0.3,0-0.6,0-0.9,0.1c0,0,0,0,0-0.1c0,0,0,0,0-0.1c1.2-0.1,2.5-0.2,3.7-0.4c-2.4,0.8-4.8,1.2-7.2,1.8
		C108.3,23.3,107.8,23.5,107.3,23.5z"/>
	<path class="st8" d="M134.3,22.3c-1-0.4-2-0.5-3-0.8c0.8,0,4.3,0.3,4.8,0.6c-0.6,0.1-1.1,0.2-1.6,0.2
		C134.4,22.2,134.4,22.2,134.3,22.3z"/>
	<path class="st8" d="M129.7,81.8c0,0.1,0.1,0.1,0.2,0.1c-0.7,0.3-1.5,0.4-2.2,0.5c-1.3,0.3-2.6,0.5-3.9,0.8c-0.2,0-0.4,0-0.6,0
		c0.9-0.2,1.9-0.4,2.8-0.6c1.1-0.3,2.3-0.5,3.4-0.8C129.6,81.8,129.7,81.8,129.7,81.8z"/>
	<path class="st8" d="M96,84c0.1,0,0.2,0,0.3,0c0.6,0.3,1.3,0.3,1.9,0.6c-1.2-0.1-2.3-0.1-3.5-0.3C95.2,84.1,95.7,84.3,96,84z"/>
	<path class="st5" d="M138.7,21.7c0.2,0.2,0.5,0,0.8,0.1c-0.5,0.1-1,0.1-1.4,0.1c-0.2,0-0.4,0-0.5,0.2c-0.2-0.2-0.5-0.1-0.7-0.2
		C137.4,21.8,138,21.8,138.7,21.7z"/>
	<path class="st2" d="M134.3,22.3c0,0,0.1,0,0.1,0c0.3,0.1,0.7,0,0.9,0.3c-0.5-0.1-0.9,0-1.4-0.3C134.1,22.3,134.2,22.3,134.3,22.3z
		"/>
	<path class="st2" d="M93.3,84.4c-0.1-0.1-0.3,0-0.4-0.2c0.4,0,0.7,0,1.1,0.2C93.7,84.4,93.5,84.4,93.3,84.4z"/>
	<path class="st5" d="M111.9,21.9c-0.3,0-0.5,0-0.8,0c0,0-0.2-0.1-0.1-0.1C111.3,21.8,111.6,21.8,111.9,21.9
		C111.9,21.8,111.9,21.8,111.9,21.9C111.9,21.9,111.9,21.9,111.9,21.9z"/>
	<path class="st2" d="M105.4,49.3c-0.2-0.1-0.4-0.1-0.5-0.3c0.1,0,0.2,0,0.2,0C105.3,49.1,105.4,49.2,105.4,49.3z"/>
	<path class="st5" d="M112.2,21.7C112.2,21.8,112.2,21.8,112.2,21.7c-0.1,0.1-0.2,0.1-0.3,0.1c0,0,0,0,0,0
		C112,21.7,112.1,21.7,112.2,21.7z"/>
	<path class="st11" d="M153.8,21.3c0.1,0,0.2,0,0.2,0.1C154,21.4,153.9,21.3,153.8,21.3z"/>
	<path class="st9" d="M183.1,120.7c-0.6-0.3-1.3-0.4-2-0.4c-1.9,0.2-3.5,2-3.4,3.8c0,0.4,0.1,0.8,0.3,1.1c-0.7-0.4-0.9-1.2-0.9-1.9
		c-0.1-1.2,0.4-2.1,1.3-2.9c1-0.8,2.1-1.2,3.4-0.9c0.4,0.1,0.8,0.3,1.1,0.6C183,120.4,183.2,120.5,183.1,120.7z"/>
	<path class="st9" d="M183.3,120.8c-0.1,0-0.1,0-0.1-0.1C183.2,120.7,183.3,120.7,183.3,120.8z"/>
	<path class="st9" d="M153.5,120.7c-2.2-1.2-5.2,0.5-5.4,3.2c0,0.5,0.1,0.9,0.2,1.3c-0.3,0-0.3-0.2-0.4-0.4
		c-0.5-0.8-0.6-1.6-0.3-2.4c0.5-1.6,2.1-3,4.1-2.8c0.7,0.1,1.2,0.3,1.7,0.8C153.5,120.4,153.7,120.5,153.5,120.7z"/>
	<path class="st9" d="M148.3,125.2c0.1,0,0.1,0.1,0.1,0.1C148.4,125.3,148.3,125.2,148.3,125.2z"/>
	<path class="st7" d="M103.2,120.3c-0.3-0.9-1-1.5-2-1.6c-0.8-0.1-1.6,0.1-2.3,0.5c-0.1-0.1,0-0.3,0.1-0.3c0.9-0.7,2-1.1,3.2-0.8
		c0.9,0.2,1.5,0.8,1.7,2c0,0.2,0,0.3-0.2,0.3C103.5,120.3,103.3,120.3,103.2,120.3z"/>
	<path class="st7" d="M98.9,119.2c0,0.1-0.1,0.1-0.1,0.1C98.8,119.3,98.8,119.2,98.9,119.2z"/>
	<path class="st7" d="M85.4,120.3c-0.3-0.9-0.9-1.5-1.9-1.6c-0.6-0.1-1.2,0-1.7,0.2c-0.2,0.1-0.3,0.2-0.5,0.1c0-0.3,0.3-0.4,0.4-0.5
		c1-0.6,2-0.9,3.2-0.4c0.7,0.3,1.4,1.2,1.4,1.9c0,0.1-0.1,0.2-0.2,0.2C85.8,120.3,85.6,120.3,85.4,120.3z"/>
	<path class="st2" d="M98.4,45.2c0,0-0.1,0.1-0.1,0.1C98.1,45.3,98,45.2,98,45l0,0C98.1,45,98.3,45.1,98.4,45.2z"/>
	<path class="st2" d="M98,45C97.9,45,97.9,45,98,45C97.9,45,97.9,45,98,45C98,45,98,45,98,45z"/>
	<path class="st1" d="M113.1,21.8c0.1-0.1,0.2-0.1,0.3,0C113.3,21.8,113.2,21.8,113.1,21.8z"/>
	<path class="st1" d="M111.9,21.8c0.1,0,0.2,0,0.3,0c0,0,0,0,0,0.1C112.1,21.9,112,21.9,111.9,21.8
		C111.9,21.9,111.9,21.9,111.9,21.8z"/>
	<path class="st5" d="M140,21.8c0.5-0.2,1.1-0.1,1.6-0.1C141.1,21.8,140.6,21.8,140,21.8z"/>
</g>
</svg>
