<?xml version="1.0" encoding="utf-8"?>
<!-- Generator: Adobe Illustrator 25.2.0, SVG Export Plug-In . SVG Version: 6.00 Build 0)  -->
<svg version="1.1" id="Camada_1" xmlns="http://www.w3.org/2000/svg" xmlns:xlink="http://www.w3.org/1999/xlink" x="0px" y="0px"
	 width="230px" height="158px" viewBox="0 0 230 158" style="enable-background:new 0 0 230 158;" xml:space="preserve">
<style type="text/css">
	.st0{fill:#FFFFFF;}
	.st1{fill-rule:evenodd;clip-rule:evenodd;fill:#15130E;}
	.st2{fill-rule:evenodd;clip-rule:evenodd;fill:#FFFFFF;}
</style>
<path class="st0" d="M210.1,0.2H19.6C8.8,0.2-0.1,9.1-0.1,20v118.5c0,10.8,8.9,19.7,19.7,19.7h190.7c10.8,0,19.7-8.9,19.7-19.7V20
	C229.9,9.1,221,0.2,210.1,0.2z"/>
<g>
	<desc>Created with Sketch.</desc>
</g>
<g>
	<path class="st1" d="M138.1,62.3c-3.4-0.1-6.2-2.8-6.3-6.3c-0.4-21.3-17.8-38.5-39.2-38.5c-21.7,0-39.2,17.6-39.2,39.2v77.7
		c0,3.4,2.8,6.2,6.2,6.2h77.7c21.7,0,39.2-17.6,39.2-39.2C176.6,80.2,159.4,62.7,138.1,62.3z"/>
	<path class="st2" d="M125.2,101.1c-0.2,2.2-0.8,2.8-3.1,2.8h-16.7v1.3c0,4.4,2.5,6.1,8.6,6.1c2.5,0,5-0.3,7.8-1
		c1.9-0.5,2.5,0,2.5,2.1v0.8c0,2-0.4,2.4-2.5,2.9c-2.4,0.7-5,1-7.8,1c-10.1,0-14.8-3.8-14.8-12.9V99c0-8.7,4.4-13,13.3-13
		c8.4,0,12.7,4.3,12.7,12.4C125.3,99.3,125.3,100.2,125.2,101.1L125.2,101.1z M79.4,86C79,86,79.8,86,79.4,86
		c-2.5,0-5.9,0.4-7.6,1.2V77.1c0-2.2-0.5-2.7-2.7-2.7h-0.7c-2.2,0-2.7,0.5-2.7,2.7v27.2c0,8.6,5.1,12.9,13.7,12.9
		c9.2,0,13.8-4.2,13.8-12.9v-5.2C93.1,90.4,87.8,86,79.4,86L79.4,86z M86.9,104.1c0,5-1.6,7.2-7.5,7.2c-5.9,0-7.6-2.2-7.6-7.2V99
		c0-5,1.7-7.2,7.5-7.2h0.1c5.8,0,7.5,2.2,7.5,7.2V104.1L86.9,104.1z M137.7,114.4c0,2.2-0.5,2.7-2.7,2.7h-0.8
		c-2.2,0-2.7-0.5-2.7-2.7V97.7c0-7.7,4.4-11.6,13.1-11.6c9.1,0,13,3.9,13,11.6v16.8c0,2.2-0.5,2.7-2.7,2.7h-0.8
		c-2.2,0-2.7-0.5-2.7-2.7V97.7c0-4.1-1.5-5.9-6.9-5.9c-5.3,0-6.9,1.8-6.9,5.9V114.4L137.7,114.4z M105.4,98.8h13.8v-1.1
		c0-4-2.3-5.9-6.9-5.9c-4.5,0-6.8,2-6.8,5.9V98.8z"/>
</g>
</svg>
