<?xml version="1.0" encoding="utf-8"?>
<!-- Generator: Adobe Illustrator 25.0.1, SVG Export Plug-In . SVG Version: 6.00 Build 0)  -->
<svg version="1.1" id="Camada_1" xmlns="http://www.w3.org/2000/svg" xmlns:xlink="http://www.w3.org/1999/xlink" x="0px" y="0px"
	 width="230px" height="158px" viewBox="0 0 230 158" style="enable-background:new 0 0 230 158;" xml:space="preserve">
<style type="text/css">
	.st0{fill:#FFFFFF;}
	.st1{fill-rule:evenodd;clip-rule:evenodd;fill:#991915;}
	.st2{fill-rule:evenodd;clip-rule:evenodd;fill:#FFFFFF;}
</style>
<path class="st0" d="M210.2,0H19.7C8.9,0,0,8.9,0,19.8v118.5C0,149.1,8.9,158,19.7,158h190.7c10.8,0,19.7-8.9,19.7-19.7V19.8
	C230,8.9,221.1,0,210.2,0z"/>
<g>
	<desc>Created with Sketch.</desc>
</g>
<path id="fundo" class="st1" d="M68.8,33.2c-7.3,0-21.9,0-21.9,0c-9.7,0.5-17.6,4.4-19.9,12.4c-1.2,4.2-1.9,8.8-2.8,13.2
	c-4.7,22.1-8.9,44.9-13.5,66.6h170.8c13.2,0,22.3-2.8,24.7-13.3c1.1-4.9,2.2-10.4,3.3-15.7c4.2-20.9,8.5-41.7,12.8-63.2H68.8z"/>
<path id="hipercard" class="st2" d="M67.1,66c0.9-0.6,2.1-3.5,0.7-4.7c-0.4-0.4-1.1-0.5-2.1-0.3c-0.9,0.2-1.5,0.5-1.8,1
	c-0.6,0.8-1.1,3.2-0.2,4.1C64.5,66.8,66.5,66.4,67.1,66z M54,61.2c-0.7,4.3-1.4,8.4-2.1,12.6c-4.8,0.1-9.6,0.2-14.2-0.1
	c0.9-4.1,1.5-8.4,2.4-12.5h-5.1c-1.8,10.4-3.5,21-5.6,31.3h5.2c0.8-5.2,1.6-10.5,2.7-15.5c4.5-0.1,9.8-0.3,14.1,0.1
	c-0.9,5.2-2,10.2-2.8,15.4h5.2c1.7-10.6,3.5-21.1,5.6-31.3H54z M128.2,70.2c-4.1-1.6-7.3,1.1-8.8,3.7c0.3-1.2,0.5-2.5,0.7-3.7h-4.1
	c-1,7.7-2.5,15-3.9,22.3h4.6c0.6-4.3,0.9-10.2,2.4-14.3c1.1-3.3,4.1-6.1,8.5-4.6C127.7,72.3,128.1,71.4,128.2,70.2z M130.8,87.3
	c-0.4-1.1-0.5-2.9-0.4-4.3c0.2-3.1,1.4-6.9,3.1-8.6c2.4-2.4,7.1-2,10.9-0.6c0.1-1.3,0.4-2.4,0.5-3.6c-6.2-1-12.1-0.4-15.2,2.9
	c-3.1,3.2-5.1,10.6-3.6,15.2c1.7,5.4,9.1,5.7,15.1,3.6c0.3-1.1,0.4-2.3,0.6-3.4C138.5,90.1,132.2,91,130.8,87.3z M182.5,70.3
	c-4.1-2-7.5,1.4-8.8,3.4c0.4-1.1,0.4-2.5,0.7-3.5h-4.1c-1.1,7.6-2.4,15.1-4,22.3h4.7c0-3,0.6-5.1,1.1-8c1-6.2,2.4-13,9.6-10.9
	C182.1,72.5,182.2,71.3,182.5,70.3z M62.4,70.2c-0.1,0-0.1,0.2-0.1,0.3c-1,7.6-2.4,14.8-3.9,21.9H63c1.1-7.6,2.4-15.1,4-22.3H62.4z
	 M102.8,69.8c-3.3,0.3-6.1,1.2-8.1,3.3c-2.5,2.6-4.4,8.3-3.9,13.5c0.8,7.4,10.1,7.1,17.4,5.4c0.1-1.3,0.4-2.4,0.6-3.6
	c-3,1.1-8.3,2.7-11.5,0.7c-2.4-1.5-2.4-5.3-1.6-8.6c5-0.2,10.1-0.1,15.1,0c0.3-2.3,1.2-4.9,0.4-7.2
	C110.4,70.3,106.6,69.5,102.8,69.8z M107.2,77.9H96.4c0.3-2.5,2.6-5.2,6.1-5.4C105.8,72.5,108.2,73.8,107.2,77.9z M85.4,70.2
	c-3.9-1.5-8.6,0.3-10.7,1.9c0,0.1,0,0.1-0.1,0.1c0,0,0.1-0.1,0.1-0.1c0,0,0,0,0,0c0-0.7,0.3-1.2,0.3-1.9h-4
	c-1.7,11-3.6,21.7-5.7,32.2H70c0.7-4.1,1.1-8.5,2-12.3c1.1,4.1,7.9,3.3,10.8,1.7C88.8,88.6,93.4,73.2,85.4,70.2z M81.8,88.3
	c-2.5,2.6-8.5,2.6-9-1.8c-0.2-1.9,0.5-3.9,0.9-5.9c0.4-2,0.6-3.9,1-5.7c2.4-3,9.6-3.3,10.3,1.6C85.5,80.8,83.8,86.2,81.8,88.3z
	 M199.6,60.6c-0.4,3.5-0.9,6.8-1.6,10c-11.3-3.6-18.2,4.7-18.1,15c0,2,0.4,3.9,1.6,5.4c2.1,2.4,8.3,3,11.3,1
	c0.6-0.4,1.2-1.1,1.6-1.6c0.3-0.4,0.8-1.4,0.9-1.1c-0.2,1.1-0.4,2.1-0.4,3.3h4.2c0.8-11.5,3.3-21.4,5.1-31.9H199.6z M189.3,90
	c-3.1,0.1-4.6-1.9-4.7-5c-0.1-5.6,2.3-11.8,7.3-12.3c2.3-0.3,4,0.3,5.7,0.9C196,79.8,196.6,89.9,189.3,90z M149.6,70.2
	c-0.2,1.3-0.6,2.4-0.9,3.6c2.7-0.7,11.2-2.8,12,0.9c0.3,1.2-0.2,2.5-0.5,3.4c-7.6-0.7-13.9,0.5-15.5,6c-1.1,3.6,0.1,7.2,2.5,8.2
	c4.5,1.9,10-0.3,11.9-3.3c-0.2,1.1-0.4,2.1-0.3,3.4h4c0-3.8,0.6-6.9,1.2-10.3c0.5-2.9,1.4-5.8,1.3-8.3
	C164.8,68,155.1,70.1,149.6,70.2z M157.1,88.2c-2.4,2.3-9,3-8.3-2.6c0.6-4.6,5.6-5.6,11-4.9C159.4,83.2,158.9,86.4,157.1,88.2z"/>
</svg>
