<?xml version="1.0" encoding="utf-8"?>
<!-- Generator: Adobe Illustrator 25.0.1, SVG Export Plug-In . SVG Version: 6.00 Build 0)  -->
<svg version="1.1" id="Camada_1" xmlns="http://www.w3.org/2000/svg" xmlns:xlink="http://www.w3.org/1999/xlink" x="0px" y="0px"
	 width="230px" height="158px" viewBox="0 0 230 158" style="enable-background:new 0 0 230 158;" xml:space="preserve">
<style type="text/css">
	.st0{fill:#FFFFFF;}
	.st1{fill:#FFCA05;}
	.st2{fill:#00A3DF;}
	.st3{fill:#EE4023;}
	.st4{fill:#231F20;}
</style>
<g>
	<desc>Created with Sketch.</desc>
</g>
<path class="st0" d="M210.2,0H19.7C8.9,0,0,8.9,0,19.8v118.5C0,149.1,8.9,158,19.7,158h190.7c10.8,0,19.7-8.9,19.7-19.7V19.8
	C230,8.9,221.1,0,210.2,0z"/>
<g>
	<g>
		<g>
			<path class="st1" d="M48.6,56.3c2.1-0.7,4.3-1.1,6.7-1.1c10.2,0,18.7,7.2,20.6,16.8l14.4-2.9c-3.3-16.3-17.7-28.6-35-28.6
				c-4,0-7.8,0.6-11.3,1.8L48.6,56.3z"/>
			<path class="st2" d="M31.6,103l9.7-11c-4.4-3.9-7.1-9.5-7.1-15.8c0-6.3,2.7-11.9,7.1-15.7l-9.8-11C24.2,56,19.6,65.6,19.6,76.2
				C19.6,86.9,24.2,96.5,31.6,103"/>
			<path class="st3" d="M75.9,80.5c-2,9.6-10.4,16.8-20.6,16.8c-2.3,0-4.6-0.4-6.7-1.1l-4.7,14c3.6,1.2,7.4,1.8,11.3,1.8
				c17.3,0,31.7-12.3,35-28.6L75.9,80.5z"/>
		</g>
	</g>
	<path class="st4" d="M102.9,92.5c-0.5-0.8-1.1-2-1.5-2.9c-2.3-5.3-2.4-10.8-0.5-16.1c2.1-5.8,6.2-10.2,11.4-12.4
		c6.6-2.8,13.9-2.3,20.2,1.5c4,2.3,6.8,5.8,9,10.9c0.3,0.6,0.5,1.3,0.8,1.9L102.9,92.5z M116.1,69.6c-4.7,2-7.1,6.4-6.6,11.5
		l19.8-8.5C125.9,68.6,121.5,67.3,116.1,69.6z M131.8,88.1C131.7,88.1,131.7,88.1,131.8,88.1l-0.4-0.3c-1.2,1.9-3,3.5-5.3,4.5
		c-4.4,1.9-8.5,1.4-11.5-1.2l-0.3,0.4c0,0,0,0,0,0l-5,7.5c1.2,0.9,2.6,1.6,4,2.2c5.5,2.3,11.2,2.2,16.8-0.2c4-1.8,7.2-4.4,9.4-7.8
		L131.8,88.1z"/>
	<path class="st4" d="M156,50v41.8l6.5,2.6l-3.7,8.6l-7.2-3c-1.6-0.7-2.7-1.8-3.5-3c-0.8-1.2-1.4-2.9-1.4-5.2V50H156z"/>
	<g>
		<path class="st4" d="M172.9,81.1c0-3.6,1.6-6.7,4.1-8.9l-6.7-7.4c-4.5,4-7.4,9.8-7.4,16.3c0,6.5,2.8,12.3,7.3,16.3l6.7-7.4
			C174.4,87.9,172.9,84.7,172.9,81.1z"/>
		<path class="st4" d="M184.7,93c-1.3,0-2.6-0.2-3.8-0.6l-3.2,9.5c2.2,0.7,4.5,1.1,6.9,1.1c10.5,0,19.4-7.5,21.4-17.4l-9.8-2
			C195.2,88.9,190.4,93,184.7,93z"/>
		<path class="st4" d="M184.7,59.3c-2.4,0-4.7,0.4-6.9,1.1l3.2,9.5c1.2-0.4,2.4-0.6,3.8-0.6c5.7,0,10.5,4.1,11.6,9.5l9.8-2
			C204.1,66.8,195.3,59.3,184.7,59.3z"/>
	</g>
</g>
</svg>
