<?xml version="1.0" encoding="utf-8"?>
<!-- Generator: Adobe Illustrator 25.3.1, SVG Export Plug-In . SVG Version: 6.00 Build 0)  -->
<svg version="1.1" id="Camada_1" xmlns="http://www.w3.org/2000/svg" xmlns:xlink="http://www.w3.org/1999/xlink" x="0px" y="0px"
	 width="25px" height="40px" viewBox="0 0 25 40" style="enable-background:new 0 0 25 40;" xml:space="preserve">
<style type="text/css">
	.st0{fill:#443E3F;}
	.st1{fill:#FFFFFF;}
</style>
<rect class="st0" width="25" height="40"/>
<g>
	<path class="st1" d="M16.5,17.5h-8c-0.2,0-0.2,0-0.4,0.1C8,17.7,8,17.8,8,17.9c0,0.2,0,0.2,0,0.4l4,4c0.1,0.1,0.2,0.1,0.3,0.1
		c0.2,0,0.2,0,0.4-0.2l4-4c0-0.1,0.1-0.2,0.1-0.3c0-0.1,0-0.2-0.1-0.3C16.8,17.5,16.6,17.5,16.5,17.5z"/>
</g>
</svg>
