<?xml version="1.0" encoding="utf-8"?>
<!-- Generator: Adobe Illustrator 25.3.1, SVG Export Plug-In . SVG Version: 6.00 Build 0)  -->
<svg version="1.1" id="Camada_1" xmlns="http://www.w3.org/2000/svg" xmlns:xlink="http://www.w3.org/1999/xlink" x="0px" y="0px"
	 width="20px" height="20px" viewBox="0 0 20 20" style="enable-background:new 0 0 20 20;" xml:space="preserve">
<style type="text/css">
	.st0{fill:#444444;}
</style>
<g id="icon-carrinho" transform="translate(0 0)">
	<path id="Caminho_13011" class="st0" d="M8.6,15.2c-0.5,0-0.9,0.4-0.9,0.9c0,0.5,0.4,0.9,0.9,0.9s0.9-0.4,0.9-0.9l0,0
		C9.5,15.6,9.1,15.2,8.6,15.2z M8.6,16.4c-0.2,0-0.3-0.1-0.3-0.3c0-0.2,0.1-0.3,0.3-0.3s0.3,0.1,0.3,0.3l0,0l0,0
		C8.9,16.2,8.8,16.4,8.6,16.4L8.6,16.4z"/>
	<path id="Caminho_13012" class="st0" d="M16,15.2c-0.5,0-0.9,0.4-0.9,0.9c0,0.5,0.4,0.9,0.9,0.9s0.9-0.4,0.9-0.9l0,0
		C16.9,15.6,16.5,15.2,16,15.2z M16,16.4c-0.2,0-0.3-0.1-0.3-0.3c0-0.2,0.1-0.3,0.3-0.3c0.2,0,0.3,0.1,0.3,0.3l0,0l0,0
		C16.3,16.2,16.2,16.4,16,16.4z"/>
	<path id="Caminho_13013" class="st0" d="M17.8,6.8c-0.1-0.2-0.3-0.3-0.4-0.3h-11L6.1,5.7C5.9,4.8,5.2,4.1,4.3,4.1H2.7
		c-0.3,0-0.6,0.4-0.6,0.7l0,0c0,0.3,0.2,0.7,0.6,0.7l0,0h1.6C4.7,5.5,5,5.8,5,6.2l1.7,7c0.2,1,1,1.7,2,1.8h5.9c1-0.1,1.8-0.8,2-1.8
		L18,7.6C17.9,7.2,17.9,7,17.8,6.8z M15.4,12.6c-0.1,0.4-0.4,0.8-0.9,0.8H8.7c-0.5,0-0.8-0.4-0.9-0.8L6.6,7.9h10L15.4,12.6z"/>
</g>
</svg>
