<svg xmlns="http://www.w3.org/2000/svg" width="72" height="26" viewBox="0 0 72 26">
  <g id="icon-alto-teor-nutriente" transform="translate(-0.004 0.001)">
    <path id="Caminho_187" data-name="Caminho 187" d="M44.4,147.83l-2.881,8.658H43.1l.612-1.964h2.956l.648,1.964h1.617l-2.96-8.658Zm-.223,5.237,1-3.214,1.019,3.214Z" transform="translate(-18.677 -139.168)" fill="#272425"/>
    <path id="Caminho_188" data-name="Caminho 188" d="M55.508,147.942H54.021v8.593h5.2V155.07H55.508Z" transform="translate(-22.932 -139.211)" fill="#272425"/>
    <path id="Caminho_189" data-name="Caminho 189" d="M61.577,149.3H63.77v7.2h1.487v-7.2h2.182V147.83H61.57Z" transform="translate(-25.512 -139.168)" fill="#272425"/>
    <path id="Caminho_190" data-name="Caminho 190" d="M74.8,147.6a3.39,3.39,0,0,0-1.862.492,3.492,3.492,0,0,0-1.246,1.493,5.947,5.947,0,0,0-.475,2.549,4.96,4.96,0,0,0,1.055,3.356,3.5,3.5,0,0,0,5.041,0,5.027,5.027,0,0,0,1.059-3.4,4.943,4.943,0,0,0-1-3.314A3.243,3.243,0,0,0,74.8,147.6Zm1.469,6.722a1.773,1.773,0,0,1-1.44.741,1.8,1.8,0,0,1-1.465-.748,3.573,3.573,0,0,1-.591-2.244,3.622,3.622,0,0,1,.573-2.251,1.8,1.8,0,0,1,1.484-.727,1.78,1.78,0,0,1,1.473.72,3.6,3.6,0,0,1,.562,2.227,3.7,3.7,0,0,1-.6,2.272Z" transform="translate(-28.799 -139.077)" fill="#272425"/>
    <path id="Caminho_191" data-name="Caminho 191" d="M89.7,152.675h3.712v-1.458H89.7V149.3H93.7V147.83h-5.48v8.658h5.617v-1.465H89.7Z" transform="translate(-34.585 -139.168)" fill="#272425"/>
    <path id="Caminho_192" data-name="Caminho 192" d="M102.189,153.745l-1.343-5.915H98.617v8.658H100v-6.826l1.462,6.826h1.44l1.473-6.826v6.826h1.39V147.83h-2.24Z" transform="translate(-38.132 -139.168)" fill="#272425"/>
    <path id="Caminho_193" data-name="Caminho 193" d="M14.588,150.817l1.141-1.9a8.075,8.075,0,0,0,10.087-3.761,7.491,7.491,0,0,0-3.167-9.949A8.138,8.138,0,0,0,12.1,137.522a7.445,7.445,0,0,0,1.636,10.286l-1.141,1.9a1.933,1.933,0,0,0-1.476.914l-4.015,6.688a1.794,1.794,0,0,0-.187,1.411,1.869,1.869,0,0,0,.907,1.124l.043.024a2,2,0,0,0,1.467.18,1.921,1.921,0,0,0,1.169-.872l4.015-6.688a1.787,1.787,0,0,0,.068-1.676Zm-1.4-7.585a5.43,5.43,0,0,1,4-6.674,5.691,5.691,0,0,1,6.938,3.853,5.43,5.43,0,0,1-4.007,6.672,5.7,5.7,0,0,1-6.946-3.851Z" transform="translate(-6.847 -134.179)" fill="#272425"/>
    <path id="Caminho_194" data-name="Caminho 194" d="M75.09,134.179H25.622l1.584,1.212a8.351,8.351,0,0,1,2.533,10.326,9,9,0,0,1-9.854,4.768l-.5-.1-.551.918v.2a2.122,2.122,0,0,1-.3,1.233L14.1,160.171H75.09a5.985,5.985,0,0,0,6.24-5.666V139.848a5.985,5.985,0,0,0-6.24-5.67Zm4.829,20.327a4.611,4.611,0,0,1-4.829,4.308H16.545l3.241-5.393a3.444,3.444,0,0,0,.483-1.5,10.432,10.432,0,0,0,10.5-5.132,9.623,9.623,0,0,0-1.346-11.25H75.09a4.61,4.61,0,0,1,4.829,4.308Z" transform="translate(-9.326 -134.175)" fill="#272425"/>
  </g>
</svg>
