<?xml version="1.0" encoding="utf-8"?>
<!-- Generator: Adobe Illustrator 25.3.1, SVG Export Plug-In . SVG Version: 6.00 Build 0)  -->
<svg version="1.1" id="Camada_1" xmlns="http://www.w3.org/2000/svg" xmlns:xlink="http://www.w3.org/1999/xlink" x="0px" y="0px"
	 width="20px" height="20px" viewBox="0 0 20 20" style="enable-background:new 0 0 20 20;" xml:space="preserve">
<style type="text/css">
	.st0{fill:#444444;}
</style>
<g id="icon-carrinho" transform="translate(0 0)">
	<path id="Caminho_13011" class="st0" d="M8.4,13.8c-0.4,0-0.7,0.3-0.7,0.7s0.3,0.7,0.7,0.7s0.7-0.3,0.7-0.7l0,0
		C9.1,14.1,8.8,13.8,8.4,13.8z M8.4,14.8c-0.2,0-0.2-0.1-0.2-0.2s0.1-0.2,0.2-0.2s0.2,0.1,0.2,0.2l0,0l0,0
		C8.6,14.6,8.5,14.8,8.4,14.8L8.4,14.8z"/>
	<path id="Caminho_13012" class="st0" d="M14.3,13.8c-0.4,0-0.7,0.3-0.7,0.7s0.3,0.7,0.7,0.7s0.7-0.3,0.7-0.7l0,0
		C15.1,14.1,14.7,13.8,14.3,13.8z M14.3,14.8c-0.2,0-0.2-0.1-0.2-0.2s0.1-0.2,0.2-0.2s0.2,0.1,0.2,0.2l0,0l0,0
		C14.6,14.6,14.5,14.8,14.3,14.8z"/>
	<path id="Caminho_13013" class="st0" d="M15.8,7c-0.1-0.2-0.2-0.2-0.4-0.2H6.5L6.4,6.1C6.3,5.4,5.6,4.9,4.9,4.9H3.6
		c-0.2,0-0.5,0.3-0.5,0.6l0,0C3.1,5.7,3.3,6,3.6,6l0,0h1.3c0.3,0,0.6,0.2,0.6,0.6l1.4,5.6C7,13,7.6,13.5,8.5,13.6h4.7
		c0.8-0.1,1.4-0.6,1.6-1.4l1.1-4.5C15.9,7.4,15.9,7.2,15.8,7z M13.9,11.7c-0.1,0.3-0.3,0.6-0.7,0.6H8.5c-0.4,0-0.6-0.3-0.7-0.6
		l-1-3.8h8L13.9,11.7z"/>
</g>
</svg>
