<?xml version="1.0" encoding="utf-8"?>
<!-- Generator: Adobe Illustrator 25.3.1, SVG Export Plug-In . SVG Version: 6.00 Build 0)  -->
<svg version="1.1" id="Camada_1" xmlns="http://www.w3.org/2000/svg" xmlns:xlink="http://www.w3.org/1999/xlink" x="0px" y="0px"
	 width="25px" height="25px" viewBox="0 0 25 25" style="enable-background:new 0 0 25 25;" xml:space="preserve">
<style type="text/css">
	.st0{fill:#444444;}
</style>
<path id="icon-entrar" class="st0" d="M15.3,12.8c1.9-1.6,2.2-4.3,0.6-6.2S11.6,4.4,9.7,6s-2.2,4.3-0.6,6.2c0.2,0.2,0.4,0.4,0.6,0.6
	c-2.9,1.1-4.8,3.9-4.8,7v0.3h1.6v-0.3c0-3.3,2.7-6,6-6s6,2.7,6,6v0.3h1.6v-0.3C20.1,16.7,18.2,13.9,15.3,12.8z M15.4,9.4
	c0,1.6-1.3,2.9-2.9,2.9S9.6,11,9.6,9.4s1.3-2.9,2.9-2.9S15.4,7.8,15.4,9.4z"/>
</svg>
