<?xml version="1.0" encoding="utf-8"?>
<!-- Generator: Adobe Illustrator 25.3.1, SVG Export Plug-In . SVG Version: 6.00 Build 0)  -->
<svg version="1.1" id="Camada_1" xmlns="http://www.w3.org/2000/svg" xmlns:xlink="http://www.w3.org/1999/xlink" x="0px" y="0px"
	 width="20px" height="20px" viewBox="0 0 20 20" style="enable-background:new 0 0 20 20;" xml:space="preserve">
<style type="text/css">
	.st0{fill:#444444;}
</style>
<path id="icon-buscar" class="st0" d="M15.4,15.2L13,12.8c1.9-2.5,1.5-6-1-8C9.7,2.9,6.2,3.3,4.3,5.7l0,0L4.2,5.8
	c-1.9,2.5-1.5,6,1,7.9c2,1.6,4.8,1.6,6.8,0l2.4,2.4c0.3,0.3,0.7,0.3,1,0l0,0C15.7,15.9,15.7,15.4,15.4,15.2z M8.7,13.5
	c-2.3,0-4.3-1.8-4.3-4.2S6.2,5,8.6,5c2.3,0,4.3,1.8,4.3,4.2v0.1C12.8,11.6,11,13.5,8.7,13.5L8.7,13.5z"/>
</svg>
