<?xml version="1.0" encoding="utf-8"?>
<!-- Generator: Adobe Illustrator 25.0.0, SVG Export Plug-In . SVG Version: 6.00 Build 0)  -->
<svg version="1.1" id="Camada_1" xmlns="http://www.w3.org/2000/svg" xmlns:xlink="http://www.w3.org/1999/xlink" x="0px" y="0px"
	 width="20px" height="20px" viewBox="0 0 20 20" style="enable-background:new 0 0 20 20;" xml:space="preserve">
<style type="text/css">
	.st0{fill:#FFFFFF;}
</style>
<g id="icon-carrinho" transform="translate(0 0)">
	<path id="Caminho_13011" class="st0" d="M7.8,15.2c-0.5,0-0.9,0.4-0.9,0.9c0,0.5,0.4,0.9,0.9,0.9c0.5,0,0.9-0.4,0.9-0.9v0
		C8.7,15.6,8.3,15.2,7.8,15.2z M7.8,16.4c-0.2,0-0.3-0.1-0.3-0.3c0-0.2,0.1-0.3,0.3-0.3c0.2,0,0.3,0.1,0.3,0.3c0,0,0,0,0,0v0
		C8.1,16.2,8,16.4,7.8,16.4L7.8,16.4z"/>
	<path id="Caminho_13012" class="st0" d="M15.2,15.2c-0.5,0-0.9,0.4-0.9,0.9c0,0.5,0.4,0.9,0.9,0.9c0.5,0,0.9-0.4,0.9-0.9v0
		C16.1,15.6,15.7,15.2,15.2,15.2z M15.2,16.4c-0.2,0-0.3-0.1-0.3-0.3c0-0.2,0.1-0.3,0.3-0.3c0.2,0,0.3,0.1,0.3,0.3c0,0,0,0,0,0v0
		C15.5,16.2,15.4,16.4,15.2,16.4z"/>
	<path id="Caminho_13013" class="st0" d="M17,6.8c-0.1-0.2-0.3-0.3-0.4-0.3h-11L5.3,5.7C5.1,4.8,4.4,4.1,3.5,4.1H1.9
		c-0.3,0-0.6,0.4-0.6,0.7c0,0,0,0,0,0c0,0.3,0.2,0.7,0.6,0.7h0h1.6c0.4,0,0.7,0.3,0.7,0.7l1.7,7c0.2,1,1,1.7,2,1.8h5.9
		c1-0.1,1.8-0.8,2-1.8L17,7.4C17.1,7.2,17.1,7,17,6.8z M14.6,12.6c-0.1,0.4-0.4,0.8-0.9,0.8H7.9c-0.5,0-0.8-0.4-0.9-0.8L5.8,7.9h10
		L14.6,12.6z"/>
</g>
</svg>
