<?xml version="1.0" encoding="utf-8"?>
<!-- Generator: Adobe Illustrator 25.3.1, SVG Export Plug-In . SVG Version: 6.00 Build 0)  -->
<svg version="1.1" id="Camada_1" xmlns="http://www.w3.org/2000/svg" xmlns:xlink="http://www.w3.org/1999/xlink" x="0px" y="0px"
	 width="20px" height="20px" viewBox="0 0 20 20" style="enable-background:new 0 0 20 20;" xml:space="preserve">
<style type="text/css">
	.st0{fill:#444444;}
</style>
<path id="icon-entrar" class="st0" d="M12.4,10.2c1.6-1.3,1.9-3.8,0.5-5.4S9.2,3,7.6,4.3S5.7,8.1,7,9.7c0.2,0.2,0.3,0.4,0.5,0.5
	c-2.5,1-4.1,3.4-4.1,6.1v0.2h1.3v-0.2c0-2.9,2.3-5.2,5.2-5.2s5.2,2.3,5.2,5.2v0.2h1.3v-0.2C16.6,13.7,14.9,11.2,12.4,10.2z
	 M12.5,7.3c0,1.4-1.1,2.5-2.5,2.5S7.5,8.7,7.5,7.3S8.6,4.8,10,4.8S12.5,5.9,12.5,7.3z"/>
</svg>
