<?xml version="1.0" encoding="utf-8"?>
<!-- Generator: Adobe Illustrator 25.3.1, SVG Export Plug-In . SVG Version: 6.00 Build 0)  -->
<svg version="1.1" id="Camada_1" xmlns="http://www.w3.org/2000/svg" xmlns:xlink="http://www.w3.org/1999/xlink" x="0px" y="0px"
	 width="20px" height="20px" viewBox="0 0 20 20" style="enable-background:new 0 0 20 20;" xml:space="preserve">
<style type="text/css">
	.st0{fill:#444444;}
</style>
<path id="icon-buscar" class="st0" d="M16.4,15.7L14,13.2c2-2.6,1.5-6.3-1-8.4c-2.5-2-6.2-1.6-8.2,1l0,0L4.7,5.9
	c-2,2.6-1.5,6.3,1,8.4c2.1,1.7,5.1,1.7,7.2,0l2.5,2.5c0.3,0.3,0.7,0.3,1,0l0,0C16.7,16.4,16.7,16,16.4,15.7z M9.3,14
	c-2.5,0-4.5-1.9-4.5-4.4s1.9-4.5,4.4-4.5s4.5,1.9,4.5,4.4v0.1C13.7,12,11.8,14,9.3,14L9.3,14z"/>
</svg>
